<?xml version="1.0" encoding="UTF-8" standalone="no"?><!DOCTYPE svg PUBLIC "-//W3C//DTD SVG 1.1//EN" "http://www.w3.org/Graphics/SVG/1.1/DTD/svg11.dtd"><svg width="1217px" height="812px" version="1.1" xmlns="http://www.w3.org/2000/svg" xmlns:xlink="http://www.w3.org/1999/xlink" xml:space="preserve" xmlns:serif="http://www.serif.com/" style="fill-rule:evenodd;clip-rule:evenodd;stroke-linejoin:round;stroke-miterlimit:2;"><g transform="matrix(1.01389,0,0,1.01389,0,0)"><g id="Artboard1" transform="matrix(0.630252,0,0,0.730016,-0.11912,-0.827748)"><rect x="0.189" y="1.134" width="1904" height="1095.87" style="fill:none;"/><clipPath id="_clip1"><rect x="0.189" y="1.134" width="1904" height="1095.87"/></clipPath><g clip-path="url(#_clip1)"><g transform="matrix(1.61965,0,0,1.3116,-599.745,-171.932)"><rect x="-3.811" y="-4.866" width="1924" height="1082" style="fill:rgb(189,34,68);"/></g><g transform="matrix(0.61327,0,0,0.61327,346.995,187.922)"><g transform="matrix(42.848,0,0,36.9924,-23853.2,-17406.4)"><g transform="matrix(12,0,0,12,558.069,489.134)"><path d="M0.283,0.003C0.241,0.003 0.202,-0.008 0.167,-0.029C0.131,-0.049 0.102,-0.078 0.082,-0.114C0.061,-0.149 0.05,-0.188 0.05,-0.23L0.05,-0.467C0.05,-0.509 0.061,-0.548 0.082,-0.584C0.102,-0.619 0.131,-0.648 0.167,-0.669C0.202,-0.69 0.241,-0.7 0.283,-0.7L0.342,-0.7C0.384,-0.7 0.423,-0.69 0.459,-0.669C0.494,-0.648 0.523,-0.619 0.544,-0.584C0.565,-0.548 0.575,-0.509 0.575,-0.467L0.575,-0.23C0.575,-0.188 0.565,-0.149 0.544,-0.114C0.523,-0.078 0.494,-0.049 0.459,-0.029C0.423,-0.008 0.384,0.003 0.342,0.003L0.283,0.003ZM0.342,-0.101C0.374,-0.101 0.401,-0.112 0.424,-0.135C0.447,-0.158 0.458,-0.185 0.458,-0.217L0.458,-0.337C0.458,-0.379 0.448,-0.418 0.427,-0.454C0.405,-0.489 0.377,-0.518 0.342,-0.539C0.306,-0.56 0.267,-0.57 0.225,-0.57L0.225,-0.217C0.225,-0.185 0.236,-0.158 0.259,-0.135C0.282,-0.112 0.309,-0.101 0.342,-0.101Z" style="fill:rgb(255,243,219);fill-rule:nonzero;"/></g><g transform="matrix(12,0,0,12,565.029,489.134)"><path d="M0.172,-0C0.142,-0 0.117,-0.011 0.096,-0.032C0.075,-0.053 0.064,-0.078 0.064,-0.109L0.064,-0.472C0.064,-0.514 0.074,-0.552 0.094,-0.587C0.114,-0.622 0.141,-0.649 0.175,-0.67C0.209,-0.69 0.246,-0.7 0.286,-0.7C0.327,-0.7 0.364,-0.69 0.399,-0.67C0.433,-0.649 0.46,-0.622 0.481,-0.587C0.501,-0.552 0.511,-0.514 0.511,-0.472L0.511,-0.056C0.511,-0.041 0.505,-0.028 0.494,-0.017C0.483,-0.006 0.469,-0 0.454,-0C0.439,-0 0.426,-0.006 0.415,-0.017C0.404,-0.028 0.398,-0.041 0.398,-0.056L0.398,-0.201C0.398,-0.21 0.395,-0.217 0.389,-0.224C0.382,-0.23 0.374,-0.233 0.365,-0.233L0.313,-0.233C0.304,-0.233 0.297,-0.23 0.291,-0.224C0.284,-0.217 0.281,-0.21 0.281,-0.201L0.281,-0.109C0.281,-0.078 0.271,-0.053 0.25,-0.032C0.229,-0.011 0.203,-0 0.172,-0ZM0.365,-0.288C0.375,-0.288 0.382,-0.291 0.389,-0.298C0.395,-0.304 0.398,-0.311 0.398,-0.32L0.398,-0.474C0.398,-0.505 0.387,-0.532 0.364,-0.555C0.341,-0.577 0.314,-0.588 0.282,-0.588L0.282,-0.32C0.282,-0.311 0.285,-0.304 0.291,-0.298C0.298,-0.291 0.305,-0.288 0.314,-0.288L0.365,-0.288Z" style="fill:rgb(255,243,219);fill-rule:nonzero;"/></g><g transform="matrix(12,0,0,12,571.209,489.134)"><path d="M0.263,-0C0.235,-0 0.211,-0.01 0.192,-0.029C0.173,-0.048 0.163,-0.072 0.163,-0.1L0.163,-0.641L0.363,-0.641L0.363,-0.1C0.363,-0.072 0.353,-0.048 0.334,-0.029C0.315,-0.01 0.291,-0 0.263,-0ZM0.098,-0.584C0.065,-0.584 0.038,-0.595 0.015,-0.616C-0.008,-0.637 -0.019,-0.663 -0.019,-0.694L0.545,-0.694C0.545,-0.663 0.534,-0.637 0.511,-0.616C0.488,-0.595 0.461,-0.584 0.429,-0.584L0.098,-0.584Z" style="fill:rgb(255,243,219);fill-rule:nonzero;"/></g><g transform="matrix(12,0,0,12,576.921,489.134)"><path d="M0.462,-0.549C0.494,-0.549 0.521,-0.538 0.544,-0.515C0.567,-0.492 0.578,-0.465 0.578,-0.432L0.578,-0.118C0.578,-0.085 0.59,-0.058 0.613,-0.035C0.636,-0.012 0.664,-0 0.697,-0L0.697,-0.482C0.697,-0.522 0.687,-0.558 0.668,-0.592C0.649,-0.625 0.622,-0.652 0.589,-0.672C0.556,-0.692 0.519,-0.702 0.48,-0.702C0.44,-0.702 0.404,-0.692 0.371,-0.672C0.338,-0.692 0.301,-0.702 0.262,-0.702C0.223,-0.702 0.186,-0.692 0.153,-0.672C0.12,-0.652 0.093,-0.625 0.074,-0.591C0.054,-0.557 0.044,-0.521 0.044,-0.482L0.044,-0.091C0.044,-0.066 0.053,-0.045 0.071,-0.027C0.089,-0.009 0.111,-0 0.137,-0C0.152,-0 0.167,-0.004 0.182,-0.013C0.196,-0.022 0.207,-0.033 0.216,-0.047C0.224,-0.061 0.228,-0.076 0.228,-0.092L0.228,-0.549C0.261,-0.549 0.288,-0.538 0.311,-0.515C0.334,-0.492 0.345,-0.465 0.345,-0.432L0.345,-0.118C0.345,-0.085 0.356,-0.058 0.379,-0.035C0.402,-0.012 0.43,-0 0.462,-0L0.462,-0.549Z" style="fill:rgb(255,243,219);fill-rule:nonzero;"/></g><g transform="matrix(12,0,0,12,585.573,489.134)"><path d="M0.261,0.001C0.223,0.001 0.188,-0.009 0.156,-0.028C0.123,-0.047 0.097,-0.072 0.079,-0.105C0.059,-0.137 0.05,-0.172 0.05,-0.21L0.05,-0.489C0.05,-0.528 0.059,-0.563 0.078,-0.595C0.097,-0.627 0.122,-0.653 0.154,-0.672C0.185,-0.691 0.22,-0.7 0.258,-0.7C0.305,-0.7 0.347,-0.686 0.385,-0.658C0.422,-0.63 0.447,-0.594 0.46,-0.551C0.461,-0.546 0.462,-0.541 0.462,-0.534C0.462,-0.523 0.458,-0.513 0.45,-0.504C0.441,-0.495 0.431,-0.491 0.419,-0.491L0.405,-0.491C0.393,-0.491 0.383,-0.495 0.375,-0.504C0.367,-0.513 0.363,-0.523 0.363,-0.534L0.363,-0.539C0.363,-0.556 0.356,-0.572 0.341,-0.586C0.326,-0.6 0.309,-0.607 0.29,-0.607C0.276,-0.607 0.263,-0.604 0.252,-0.597C0.24,-0.59 0.231,-0.582 0.224,-0.571C0.217,-0.56 0.213,-0.548 0.213,-0.536L0.217,-0.153C0.217,-0.133 0.225,-0.116 0.24,-0.101C0.255,-0.087 0.272,-0.08 0.293,-0.08C0.306,-0.08 0.319,-0.084 0.331,-0.092C0.342,-0.099 0.351,-0.109 0.358,-0.121C0.361,-0.128 0.367,-0.134 0.375,-0.139C0.382,-0.144 0.39,-0.147 0.397,-0.147C0.409,-0.147 0.419,-0.143 0.427,-0.136C0.435,-0.128 0.439,-0.119 0.439,-0.108C0.439,-0.101 0.436,-0.093 0.431,-0.085C0.413,-0.057 0.39,-0.036 0.362,-0.021C0.334,-0.006 0.3,0.001 0.261,0.001ZM0.152,-0.315L0.369,-0.315C0.381,-0.315 0.391,-0.311 0.399,-0.303C0.407,-0.294 0.411,-0.284 0.411,-0.273C0.411,-0.262 0.407,-0.252 0.399,-0.244C0.391,-0.235 0.381,-0.231 0.369,-0.231L0.152,-0.231L0.152,-0.315Z" style="fill:rgb(255,243,219);fill-rule:nonzero;"/></g><g transform="matrix(12,0,0,12,590.877,489.134)"><path d="M0.136,-0C0.115,-0 0.098,-0.007 0.083,-0.022C0.068,-0.037 0.061,-0.055 0.061,-0.076L0.061,-0.49C0.061,-0.532 0.069,-0.569 0.086,-0.601C0.102,-0.632 0.124,-0.657 0.151,-0.674C0.178,-0.691 0.206,-0.7 0.237,-0.7C0.273,-0.7 0.306,-0.691 0.335,-0.674C0.364,-0.657 0.387,-0.632 0.404,-0.601C0.421,-0.569 0.429,-0.532 0.429,-0.49L0.429,-0.05C0.429,-0.036 0.424,-0.024 0.414,-0.015C0.404,-0.005 0.392,-0 0.379,-0C0.365,-0 0.353,-0.005 0.344,-0.015C0.334,-0.024 0.329,-0.036 0.329,-0.05L0.329,-0.201C0.329,-0.21 0.326,-0.217 0.32,-0.224C0.313,-0.23 0.305,-0.233 0.296,-0.233L0.244,-0.233C0.235,-0.233 0.228,-0.23 0.222,-0.224C0.215,-0.217 0.212,-0.21 0.212,-0.201L0.212,-0.076C0.212,-0.055 0.205,-0.037 0.19,-0.022C0.175,-0.007 0.157,-0 0.136,-0ZM0.296,-0.274C0.306,-0.274 0.313,-0.277 0.32,-0.284C0.326,-0.29 0.329,-0.297 0.329,-0.306L0.329,-0.496C0.329,-0.527 0.318,-0.554 0.295,-0.577C0.272,-0.599 0.245,-0.61 0.213,-0.61L0.213,-0.306C0.213,-0.297 0.216,-0.29 0.222,-0.284C0.229,-0.277 0.236,-0.274 0.245,-0.274L0.296,-0.274Z" style="fill:rgb(255,243,219);fill-rule:nonzero;"/></g><g transform="matrix(12,0,0,12,596.517,489.134)"><path d="M0.114,-0C0.099,-0.001 0.086,-0.008 0.076,-0.019C0.065,-0.03 0.06,-0.044 0.06,-0.059L0.06,-0.7C0.081,-0.7 0.101,-0.695 0.119,-0.684C0.137,-0.673 0.151,-0.658 0.162,-0.64C0.172,-0.622 0.177,-0.603 0.177,-0.582L0.177,-0.1C0.177,-0.092 0.18,-0.085 0.186,-0.08C0.191,-0.074 0.198,-0.071 0.207,-0.071L0.375,-0.071C0.384,-0.071 0.393,-0.068 0.4,-0.061C0.407,-0.054 0.41,-0.046 0.41,-0.036C0.41,-0.026 0.407,-0.018 0.4,-0.011C0.393,-0.004 0.384,-0 0.375,-0L0.114,-0Z" style="fill:rgb(255,243,219);fill-rule:nonzero;"/></g></g><g transform="matrix(0.438144,0,0,0.378267,-477.536,832.274)"><g transform="matrix(260.736,0,0,260.736,397.745,-379.265)"><path d="M0.167,-0C0.135,-0 0.108,-0.011 0.085,-0.034C0.062,-0.057 0.05,-0.084 0.05,-0.117L0.05,-0.583C0.05,-0.616 0.062,-0.643 0.085,-0.666C0.108,-0.689 0.135,-0.7 0.167,-0.7C0.2,-0.7 0.227,-0.689 0.25,-0.666C0.273,-0.643 0.284,-0.616 0.284,-0.583L0.284,-0.324C0.284,-0.315 0.287,-0.308 0.294,-0.302C0.3,-0.295 0.307,-0.292 0.316,-0.292L0.368,-0.292C0.377,-0.292 0.385,-0.295 0.391,-0.302C0.397,-0.308 0.4,-0.315 0.4,-0.324L0.4,-0.642C0.4,-0.658 0.406,-0.672 0.418,-0.683C0.429,-0.694 0.443,-0.7 0.459,-0.7C0.475,-0.7 0.489,-0.694 0.5,-0.683C0.511,-0.672 0.517,-0.658 0.517,-0.642L0.517,-0.058C0.517,-0.042 0.511,-0.028 0.5,-0.017C0.489,-0.006 0.475,-0 0.459,-0C0.443,-0 0.429,-0.006 0.418,-0.017C0.406,-0.028 0.4,-0.042 0.4,-0.058L0.4,-0.201C0.4,-0.21 0.397,-0.218 0.391,-0.224C0.385,-0.23 0.377,-0.233 0.368,-0.233L0.316,-0.233C0.307,-0.233 0.3,-0.23 0.294,-0.224C0.287,-0.218 0.284,-0.21 0.284,-0.201L0.284,-0.117C0.284,-0.084 0.273,-0.057 0.25,-0.034C0.227,-0.011 0.2,-0 0.167,-0Z" style="fill:rgb(240,138,74);fill-rule:nonzero;"/></g><g transform="matrix(260.736,0,0,260.736,540.368,-379.265)"><path d="M0.285,0.001C0.243,0.001 0.204,-0.01 0.168,-0.031C0.132,-0.052 0.103,-0.081 0.082,-0.117C0.061,-0.154 0.05,-0.193 0.05,-0.236L0.05,-0.464C0.05,-0.507 0.061,-0.546 0.082,-0.582C0.102,-0.618 0.131,-0.647 0.167,-0.668C0.202,-0.689 0.241,-0.7 0.283,-0.7C0.337,-0.7 0.385,-0.684 0.427,-0.651C0.468,-0.618 0.496,-0.577 0.509,-0.526C0.51,-0.521 0.511,-0.517 0.511,-0.514C0.511,-0.501 0.506,-0.49 0.497,-0.481C0.488,-0.472 0.476,-0.467 0.463,-0.467L0.447,-0.467C0.434,-0.467 0.423,-0.472 0.414,-0.481C0.405,-0.49 0.4,-0.501 0.4,-0.514L0.4,-0.525C0.4,-0.541 0.394,-0.555 0.383,-0.566C0.372,-0.577 0.358,-0.583 0.343,-0.583C0.332,-0.583 0.322,-0.58 0.313,-0.576C0.304,-0.571 0.296,-0.563 0.291,-0.554C0.286,-0.545 0.283,-0.535 0.283,-0.524L0.283,-0.175C0.283,-0.158 0.289,-0.144 0.301,-0.133C0.312,-0.122 0.326,-0.116 0.343,-0.116C0.354,-0.116 0.364,-0.119 0.373,-0.125C0.382,-0.131 0.389,-0.139 0.394,-0.148C0.398,-0.156 0.404,-0.162 0.412,-0.167C0.419,-0.172 0.427,-0.174 0.436,-0.174C0.449,-0.174 0.461,-0.169 0.47,-0.159C0.479,-0.15 0.484,-0.138 0.484,-0.126C0.484,-0.117 0.481,-0.108 0.475,-0.099C0.454,-0.068 0.427,-0.043 0.394,-0.026C0.361,-0.008 0.324,0.001 0.285,0.001ZM0.152,-0.331L0.4,-0.331C0.416,-0.331 0.43,-0.325 0.441,-0.314C0.452,-0.303 0.458,-0.289 0.458,-0.273C0.458,-0.257 0.452,-0.243 0.441,-0.232C0.43,-0.221 0.416,-0.215 0.4,-0.215L0.152,-0.215L0.152,-0.331Z" style="fill:rgb(240,138,74);fill-rule:nonzero;"/></g><g transform="matrix(260.736,0,0,260.736,676.211,-379.265)"><path d="M0.181,-0C0.149,-0 0.122,-0.011 0.099,-0.034C0.076,-0.057 0.065,-0.084 0.065,-0.117L0.065,-0.467C0.065,-0.509 0.076,-0.548 0.097,-0.584C0.118,-0.619 0.146,-0.648 0.182,-0.669C0.217,-0.69 0.256,-0.7 0.298,-0.7C0.34,-0.7 0.379,-0.69 0.415,-0.669C0.45,-0.648 0.478,-0.619 0.5,-0.584C0.521,-0.548 0.531,-0.509 0.531,-0.467L0.531,-0.058C0.531,-0.042 0.525,-0.028 0.514,-0.017C0.503,-0.006 0.489,-0 0.473,-0C0.457,-0 0.443,-0.006 0.432,-0.017C0.421,-0.028 0.415,-0.042 0.415,-0.058L0.415,-0.201C0.415,-0.21 0.412,-0.217 0.406,-0.224C0.399,-0.23 0.391,-0.233 0.382,-0.233L0.33,-0.233C0.321,-0.233 0.314,-0.23 0.308,-0.224C0.301,-0.217 0.298,-0.21 0.298,-0.201L0.298,-0.117C0.298,-0.084 0.287,-0.057 0.264,-0.034C0.241,-0.011 0.214,-0 0.181,-0ZM0.382,-0.292C0.392,-0.292 0.399,-0.295 0.406,-0.302C0.412,-0.308 0.415,-0.315 0.415,-0.324L0.415,-0.468C0.415,-0.499 0.404,-0.526 0.381,-0.549C0.358,-0.571 0.331,-0.582 0.299,-0.582L0.299,-0.324C0.299,-0.315 0.302,-0.308 0.308,-0.302C0.315,-0.295 0.322,-0.292 0.331,-0.292L0.382,-0.292Z" style="fill:rgb(240,138,74);fill-rule:nonzero;"/></g><g transform="matrix(260.736,0,0,260.736,826.395,-379.265)"><path d="M0.177,-0C0.144,-0 0.117,-0.011 0.094,-0.034C0.071,-0.057 0.06,-0.084 0.06,-0.116L0.06,-0.583C0.06,-0.615 0.071,-0.643 0.094,-0.666C0.117,-0.689 0.144,-0.7 0.177,-0.7C0.209,-0.7 0.236,-0.689 0.259,-0.666C0.282,-0.643 0.293,-0.615 0.293,-0.583L0.293,-0.233L0.474,-0.595C0.49,-0.627 0.513,-0.653 0.544,-0.672C0.575,-0.691 0.608,-0.7 0.643,-0.7L0.345,-0.104C0.329,-0.072 0.306,-0.047 0.276,-0.028C0.245,-0.009 0.212,-0 0.177,-0Z" style="fill:rgb(240,138,74);fill-rule:nonzero;"/></g><g transform="matrix(260.736,0,0,260.736,981.012,-379.265)"><path d="M0.293,-0C0.261,-0 0.234,-0.011 0.211,-0.034C0.188,-0.057 0.176,-0.084 0.176,-0.117L0.176,-0.232C0.151,-0.257 0.13,-0.285 0.113,-0.316C0.096,-0.347 0.083,-0.379 0.074,-0.413C0.065,-0.446 0.06,-0.481 0.06,-0.516L0.06,-0.7C0.102,-0.7 0.141,-0.69 0.177,-0.669C0.212,-0.648 0.241,-0.619 0.262,-0.584C0.282,-0.548 0.293,-0.509 0.293,-0.467L0.293,-0.288L0.296,-0.288C0.325,-0.288 0.351,-0.298 0.372,-0.317C0.383,-0.327 0.392,-0.339 0.399,-0.353C0.406,-0.366 0.409,-0.381 0.409,-0.397L0.409,-0.642C0.409,-0.658 0.415,-0.672 0.426,-0.683C0.438,-0.694 0.451,-0.7 0.468,-0.7C0.484,-0.7 0.497,-0.694 0.509,-0.683C0.52,-0.672 0.526,-0.658 0.526,-0.642L0.526,-0.46C0.526,-0.418 0.516,-0.379 0.495,-0.344C0.474,-0.308 0.445,-0.28 0.41,-0.26L0.41,-0.117C0.41,-0.084 0.399,-0.057 0.376,-0.034C0.353,-0.011 0.325,-0 0.293,-0Z" style="fill:rgb(240,138,74);fill-rule:nonzero;"/></g></g><g transform="matrix(0.438144,0,0,0.378267,1782.75,832.274)"><g transform="matrix(260.736,0,0,260.736,508.949,-379.265)"><path d="M0.114,-0C0.099,-0.001 0.086,-0.008 0.076,-0.019C0.065,-0.03 0.06,-0.044 0.06,-0.059L0.06,-0.7C0.081,-0.7 0.101,-0.695 0.119,-0.684C0.137,-0.673 0.151,-0.658 0.162,-0.64C0.172,-0.622 0.177,-0.603 0.177,-0.582L0.177,-0.1C0.177,-0.092 0.18,-0.085 0.186,-0.08C0.191,-0.074 0.198,-0.071 0.207,-0.071L0.375,-0.071C0.384,-0.071 0.393,-0.068 0.4,-0.061C0.407,-0.054 0.41,-0.046 0.41,-0.036C0.41,-0.026 0.407,-0.018 0.4,-0.011C0.393,-0.004 0.384,-0 0.375,-0L0.114,-0Z" style="fill:rgb(240,138,74);fill-rule:nonzero;"/></g><g transform="matrix(260.736,0,0,260.736,615.851,-379.265)"><path d="M0.167,-0C0.146,-0 0.126,-0.005 0.108,-0.016C0.09,-0.026 0.076,-0.04 0.066,-0.058C0.055,-0.076 0.05,-0.096 0.05,-0.117L0.05,-0.7C0.071,-0.7 0.091,-0.695 0.109,-0.685C0.127,-0.674 0.141,-0.66 0.152,-0.643C0.162,-0.625 0.167,-0.605 0.167,-0.584L0.167,-0Z" style="fill:rgb(240,138,74);fill-rule:nonzero;"/></g><g transform="matrix(260.736,0,0,260.736,667.216,-379.265)"><path d="M0.252,0.003C0.215,0.003 0.182,-0.006 0.151,-0.024C0.12,-0.042 0.096,-0.067 0.078,-0.098C0.059,-0.129 0.05,-0.162 0.05,-0.198L0.05,-0.508C0.05,-0.542 0.058,-0.574 0.076,-0.604C0.093,-0.633 0.116,-0.657 0.145,-0.674C0.174,-0.691 0.206,-0.7 0.241,-0.7C0.283,-0.7 0.321,-0.688 0.354,-0.664C0.387,-0.64 0.409,-0.609 0.422,-0.57C0.423,-0.563 0.424,-0.558 0.424,-0.554C0.424,-0.542 0.42,-0.532 0.411,-0.523C0.402,-0.514 0.391,-0.509 0.379,-0.509C0.367,-0.509 0.357,-0.514 0.348,-0.523C0.339,-0.532 0.335,-0.542 0.335,-0.554C0.335,-0.576 0.326,-0.595 0.309,-0.61C0.292,-0.626 0.271,-0.634 0.246,-0.634C0.223,-0.634 0.203,-0.626 0.186,-0.609C0.169,-0.592 0.16,-0.573 0.16,-0.553L0.16,-0.164C0.16,-0.135 0.17,-0.111 0.19,-0.091C0.21,-0.07 0.235,-0.06 0.264,-0.06C0.292,-0.06 0.316,-0.07 0.335,-0.09C0.354,-0.11 0.364,-0.134 0.364,-0.162L0.364,-0.274L0.392,-0.274L0.392,-0.239L0.27,-0.239C0.27,-0.258 0.276,-0.273 0.288,-0.286C0.301,-0.299 0.315,-0.305 0.333,-0.305L0.446,-0.305L0.446,-0.194C0.446,-0.159 0.438,-0.126 0.421,-0.096C0.404,-0.066 0.381,-0.042 0.352,-0.024C0.323,-0.006 0.29,0.003 0.255,0.003L0.252,0.003Z" style="fill:rgb(240,138,74);fill-rule:nonzero;"/></g><g transform="matrix(260.736,0,0,260.736,786.372,-379.265)"><path d="M0.109,-0C0.093,-0 0.079,-0.006 0.068,-0.017C0.056,-0.028 0.05,-0.042 0.05,-0.059L0.05,-0.642C0.05,-0.658 0.056,-0.672 0.068,-0.683C0.079,-0.694 0.093,-0.7 0.109,-0.7C0.125,-0.7 0.139,-0.694 0.15,-0.683C0.161,-0.671 0.167,-0.657 0.167,-0.642L0.167,-0.299C0.167,-0.29 0.17,-0.283 0.177,-0.277C0.183,-0.27 0.19,-0.267 0.199,-0.267L0.251,-0.267C0.26,-0.267 0.268,-0.27 0.274,-0.277C0.28,-0.283 0.283,-0.29 0.283,-0.299L0.283,-0.65C0.283,-0.664 0.288,-0.676 0.298,-0.686C0.308,-0.695 0.32,-0.7 0.333,-0.7C0.347,-0.7 0.359,-0.695 0.369,-0.686C0.378,-0.676 0.383,-0.664 0.383,-0.65L0.383,-0.05C0.383,-0.036 0.378,-0.024 0.369,-0.015C0.359,-0.005 0.347,-0 0.333,-0C0.32,-0 0.308,-0.005 0.298,-0.015C0.288,-0.024 0.283,-0.036 0.283,-0.05L0.283,-0.201C0.283,-0.21 0.28,-0.218 0.274,-0.224C0.268,-0.23 0.26,-0.233 0.251,-0.233L0.199,-0.233C0.19,-0.233 0.183,-0.23 0.177,-0.224C0.17,-0.218 0.167,-0.21 0.167,-0.201L0.167,-0.059C0.167,-0.045 0.161,-0.032 0.15,-0.019C0.138,-0.006 0.124,-0 0.109,-0Z" style="fill:rgb(240,138,74);fill-rule:nonzero;"/></g><g transform="matrix(260.736,0,0,260.736,896.664,-379.265)"><path d="M0.242,-0C0.225,-0 0.211,-0.006 0.2,-0.017C0.189,-0.028 0.183,-0.042 0.183,-0.058L0.183,-0.641L0.3,-0.641L0.3,-0.058C0.3,-0.042 0.294,-0.028 0.283,-0.017C0.272,-0.006 0.258,-0 0.242,-0ZM0.102,-0.604C0.069,-0.604 0.042,-0.613 0.019,-0.632C-0.004,-0.65 -0.015,-0.672 -0.015,-0.697L0.498,-0.697C0.498,-0.672 0.487,-0.65 0.464,-0.632C0.441,-0.613 0.414,-0.604 0.382,-0.604L0.102,-0.604Z" style="fill:rgb(240,138,74);fill-rule:nonzero;"/></g></g><g transform="matrix(0.864661,0,0,0.746496,329.888,1172.25)"><g transform="matrix(264.242,0,0,264.242,-110.982,-379.265)"><path d="M0.129,-0C0.11,-0 0.093,-0.007 0.08,-0.02C0.067,-0.033 0.06,-0.049 0.06,-0.068L0.06,-0.632C0.06,-0.651 0.067,-0.667 0.08,-0.68C0.093,-0.693 0.11,-0.7 0.129,-0.7C0.148,-0.7 0.164,-0.693 0.177,-0.68C0.19,-0.666 0.196,-0.65 0.196,-0.632L0.196,-0.233L0.377,-0.595C0.393,-0.627 0.416,-0.653 0.447,-0.672C0.478,-0.691 0.511,-0.7 0.546,-0.7L0.248,-0.104C0.232,-0.072 0.213,-0.047 0.192,-0.028C0.17,-0.009 0.149,-0 0.129,-0Z" style="fill:rgb(240,138,74);fill-rule:nonzero;"/></g><g transform="matrix(264.242,0,0,264.242,26.6882,-379.265)"><path d="M0.129,-0C0.11,-0 0.094,-0.007 0.081,-0.02C0.068,-0.033 0.061,-0.05 0.061,-0.069L0.061,-0.494C0.061,-0.536 0.069,-0.573 0.084,-0.604C0.099,-0.635 0.12,-0.658 0.145,-0.675C0.17,-0.692 0.197,-0.7 0.226,-0.7C0.261,-0.7 0.293,-0.692 0.321,-0.675C0.348,-0.658 0.37,-0.635 0.387,-0.604C0.403,-0.573 0.411,-0.536 0.411,-0.494L0.411,-0.048C0.411,-0.035 0.406,-0.023 0.397,-0.014C0.387,-0.005 0.375,-0 0.362,-0C0.349,-0 0.337,-0.005 0.328,-0.014C0.319,-0.023 0.314,-0.035 0.314,-0.048L0.314,-0.201C0.314,-0.21 0.311,-0.217 0.305,-0.224C0.298,-0.23 0.29,-0.233 0.281,-0.233L0.229,-0.233C0.22,-0.233 0.213,-0.23 0.207,-0.224C0.2,-0.217 0.197,-0.21 0.197,-0.201L0.197,-0.069C0.197,-0.05 0.191,-0.033 0.178,-0.02C0.165,-0.007 0.148,-0 0.129,-0ZM0.281,-0.271C0.291,-0.271 0.298,-0.274 0.305,-0.281C0.311,-0.287 0.314,-0.294 0.314,-0.303L0.314,-0.5C0.314,-0.531 0.303,-0.558 0.28,-0.581C0.257,-0.603 0.23,-0.614 0.198,-0.614L0.198,-0.303C0.198,-0.294 0.201,-0.287 0.207,-0.281C0.214,-0.274 0.221,-0.271 0.23,-0.271L0.281,-0.271Z" style="fill:rgb(240,138,74);fill-rule:nonzero;"/></g><g transform="matrix(264.242,0,0,264.242,146.126,-379.265)"><path d="M0.116,-0C0.097,-0 0.081,-0.007 0.068,-0.021C0.055,-0.034 0.048,-0.05 0.048,-0.069L0.048,-0.632C0.048,-0.651 0.055,-0.667 0.068,-0.68C0.081,-0.693 0.098,-0.7 0.117,-0.7L0.18,-0.7C0.223,-0.7 0.262,-0.689 0.298,-0.668C0.334,-0.647 0.363,-0.619 0.384,-0.583C0.405,-0.548 0.416,-0.509 0.416,-0.467C0.416,-0.428 0.408,-0.393 0.391,-0.36C0.374,-0.327 0.352,-0.299 0.323,-0.277C0.294,-0.255 0.261,-0.241 0.225,-0.236C0.216,-0.235 0.203,-0.234 0.184,-0.234L0.184,-0.069C0.184,-0.051 0.177,-0.035 0.164,-0.021C0.15,-0.007 0.134,-0 0.116,-0ZM0.429,-0.001C0.398,-0.001 0.371,-0.008 0.348,-0.021C0.324,-0.034 0.305,-0.052 0.29,-0.077L0.179,-0.26L0.275,-0.26L0.429,-0.001ZM0.186,-0.281C0.211,-0.281 0.235,-0.287 0.256,-0.3C0.277,-0.312 0.293,-0.329 0.306,-0.35C0.318,-0.371 0.324,-0.393 0.324,-0.418L0.324,-0.477C0.324,-0.502 0.318,-0.525 0.306,-0.546C0.293,-0.567 0.277,-0.584 0.256,-0.597C0.235,-0.609 0.211,-0.615 0.186,-0.615L0.182,-0.615L0.182,-0.281L0.186,-0.281Z" style="fill:rgb(240,138,74);fill-rule:nonzero;"/></g><g transform="matrix(264.242,0,0,264.242,261.6,-379.265)"><path d="M0.186,0.001C0.161,0.001 0.138,-0.005 0.118,-0.018C0.097,-0.03 0.08,-0.047 0.068,-0.068C0.056,-0.089 0.05,-0.111 0.05,-0.136L0.05,-0.7C0.075,-0.7 0.098,-0.694 0.119,-0.682C0.139,-0.67 0.156,-0.654 0.168,-0.633C0.18,-0.612 0.186,-0.589 0.186,-0.564L0.186,0.001Z" style="fill:rgb(240,138,74);fill-rule:nonzero;"/></g><g transform="matrix(264.242,0,0,264.242,318.676,-379.265)"><path d="M0.129,-0C0.11,-0 0.094,-0.007 0.081,-0.02C0.068,-0.033 0.061,-0.05 0.061,-0.069L0.061,-0.494C0.061,-0.536 0.069,-0.573 0.084,-0.604C0.099,-0.635 0.12,-0.658 0.145,-0.675C0.17,-0.692 0.197,-0.7 0.226,-0.7C0.261,-0.7 0.293,-0.692 0.321,-0.675C0.348,-0.658 0.37,-0.635 0.387,-0.604C0.403,-0.573 0.411,-0.536 0.411,-0.494L0.411,-0.048C0.411,-0.035 0.406,-0.023 0.397,-0.014C0.387,-0.005 0.375,-0 0.362,-0C0.349,-0 0.337,-0.005 0.328,-0.014C0.319,-0.023 0.314,-0.035 0.314,-0.048L0.314,-0.201C0.314,-0.21 0.311,-0.217 0.305,-0.224C0.298,-0.23 0.29,-0.233 0.281,-0.233L0.229,-0.233C0.22,-0.233 0.213,-0.23 0.207,-0.224C0.2,-0.217 0.197,-0.21 0.197,-0.201L0.197,-0.069C0.197,-0.05 0.191,-0.033 0.178,-0.02C0.165,-0.007 0.148,-0 0.129,-0ZM0.281,-0.271C0.291,-0.271 0.298,-0.274 0.305,-0.281C0.311,-0.287 0.314,-0.294 0.314,-0.303L0.314,-0.5C0.314,-0.531 0.303,-0.558 0.28,-0.581C0.257,-0.603 0.23,-0.614 0.198,-0.614L0.198,-0.303C0.198,-0.294 0.201,-0.287 0.207,-0.281C0.214,-0.274 0.221,-0.271 0.23,-0.271L0.281,-0.271Z" style="fill:rgb(240,138,74);fill-rule:nonzero;"/></g><g transform="matrix(264.242,0,0,264.242,438.114,-379.265)"><path d="M0.128,-0C0.109,-0 0.093,-0.007 0.08,-0.021C0.067,-0.034 0.06,-0.05 0.06,-0.069L0.06,-0.632C0.06,-0.651 0.067,-0.667 0.08,-0.68C0.093,-0.693 0.109,-0.7 0.128,-0.7L0.194,-0.7C0.237,-0.7 0.276,-0.689 0.312,-0.668C0.348,-0.647 0.377,-0.619 0.398,-0.583C0.419,-0.548 0.429,-0.509 0.429,-0.467C0.429,-0.426 0.423,-0.394 0.41,-0.372C0.407,-0.366 0.405,-0.358 0.405,-0.349C0.405,-0.34 0.407,-0.333 0.41,-0.325C0.423,-0.296 0.429,-0.265 0.429,-0.232C0.429,-0.195 0.42,-0.16 0.403,-0.127C0.385,-0.094 0.361,-0.066 0.331,-0.044C0.301,-0.021 0.268,-0.007 0.232,-0L0.128,-0ZM0.198,-0.06C0.229,-0.06 0.256,-0.071 0.279,-0.094C0.301,-0.116 0.312,-0.143 0.312,-0.174L0.312,-0.237C0.312,-0.25 0.311,-0.258 0.309,-0.263C0.275,-0.241 0.237,-0.23 0.195,-0.23L0.195,-0.06L0.198,-0.06ZM0.2,-0.269C0.217,-0.269 0.234,-0.272 0.25,-0.278C0.266,-0.284 0.28,-0.293 0.292,-0.304C0.306,-0.317 0.317,-0.332 0.325,-0.349C0.333,-0.366 0.337,-0.385 0.337,-0.405L0.337,-0.477C0.337,-0.502 0.331,-0.525 0.319,-0.546C0.306,-0.567 0.29,-0.584 0.269,-0.597C0.248,-0.609 0.225,-0.615 0.2,-0.615L0.196,-0.615L0.195,-0.473L0.195,-0.269L0.2,-0.269Z" style="fill:rgb(240,138,74);fill-rule:nonzero;"/></g><g transform="matrix(264.242,0,0,264.242,556.759,-379.265)"><path d="M0.123,-0C0.105,-0.001 0.09,-0.009 0.078,-0.022C0.066,-0.035 0.06,-0.051 0.06,-0.069L0.06,-0.7C0.084,-0.7 0.107,-0.694 0.128,-0.681C0.149,-0.668 0.165,-0.652 0.178,-0.631C0.19,-0.61 0.196,-0.587 0.196,-0.562L0.196,-0.113C0.196,-0.104 0.199,-0.096 0.206,-0.089C0.213,-0.082 0.221,-0.079 0.231,-0.079L0.391,-0.079C0.401,-0.079 0.41,-0.075 0.418,-0.068C0.425,-0.06 0.429,-0.051 0.429,-0.04C0.429,-0.029 0.425,-0.019 0.417,-0.012C0.409,-0.004 0.4,-0 0.39,-0L0.123,-0Z" style="fill:rgb(240,138,74);fill-rule:nonzero;"/></g><g transform="matrix(264.242,0,0,264.242,670.383,-379.265)"><path d="M0.249,0.001C0.213,0.001 0.18,-0.008 0.15,-0.026C0.119,-0.044 0.095,-0.068 0.077,-0.099C0.059,-0.129 0.05,-0.162 0.05,-0.198L0.05,-0.501C0.05,-0.537 0.059,-0.57 0.077,-0.601C0.094,-0.631 0.118,-0.655 0.148,-0.673C0.178,-0.691 0.211,-0.7 0.246,-0.7C0.291,-0.7 0.33,-0.687 0.365,-0.661C0.4,-0.635 0.424,-0.602 0.437,-0.563C0.438,-0.558 0.439,-0.552 0.439,-0.543C0.439,-0.532 0.435,-0.523 0.427,-0.515C0.419,-0.506 0.409,-0.502 0.398,-0.502L0.385,-0.502C0.374,-0.502 0.364,-0.506 0.357,-0.515C0.349,-0.523 0.345,-0.532 0.345,-0.543L0.345,-0.545C0.345,-0.564 0.337,-0.581 0.321,-0.596C0.305,-0.611 0.286,-0.619 0.265,-0.619C0.25,-0.619 0.236,-0.615 0.223,-0.608C0.21,-0.601 0.199,-0.591 0.192,-0.579C0.185,-0.567 0.181,-0.555 0.181,-0.542L0.186,-0.143C0.186,-0.121 0.194,-0.102 0.211,-0.086C0.228,-0.071 0.247,-0.063 0.27,-0.063C0.285,-0.063 0.298,-0.067 0.311,-0.076C0.324,-0.084 0.334,-0.095 0.341,-0.108C0.344,-0.115 0.349,-0.121 0.357,-0.127C0.364,-0.132 0.372,-0.135 0.379,-0.135C0.39,-0.135 0.4,-0.132 0.407,-0.125C0.413,-0.118 0.417,-0.109 0.417,-0.099C0.417,-0.093 0.415,-0.086 0.41,-0.078C0.393,-0.052 0.372,-0.032 0.347,-0.019C0.321,-0.006 0.288,0.001 0.249,0.001ZM0.152,-0.307L0.355,-0.307C0.364,-0.307 0.372,-0.304 0.379,-0.297C0.386,-0.29 0.389,-0.282 0.389,-0.273C0.389,-0.264 0.386,-0.256 0.379,-0.249C0.372,-0.242 0.364,-0.239 0.355,-0.239L0.152,-0.239L0.152,-0.307Z" style="fill:rgb(240,138,74);fill-rule:nonzero;"/></g><g transform="matrix(264.242,0,0,264.242,841.083,-379.265)"><path d="M0.116,0.001C0.101,0.001 0.089,-0.003 0.078,-0.012C0.067,-0.021 0.059,-0.032 0.056,-0.045C0.055,-0.05 0.055,-0.06 0.054,-0.077C0.053,-0.094 0.052,-0.107 0.052,-0.116L0.052,-0.583C0.052,-0.593 0.053,-0.606 0.054,-0.623C0.055,-0.639 0.055,-0.649 0.056,-0.654C0.06,-0.667 0.068,-0.678 0.079,-0.687C0.09,-0.696 0.102,-0.7 0.116,-0.7L0.174,-0.7C0.237,-0.7 0.296,-0.684 0.35,-0.653C0.403,-0.622 0.446,-0.579 0.477,-0.526C0.508,-0.472 0.524,-0.413 0.524,-0.35C0.524,-0.287 0.508,-0.228 0.477,-0.174C0.446,-0.12 0.403,-0.077 0.35,-0.046C0.296,-0.015 0.237,0.001 0.174,0.001L0.116,0.001ZM0.169,-0.068C0.194,-0.068 0.22,-0.075 0.246,-0.088C0.271,-0.1 0.292,-0.118 0.309,-0.139C0.326,-0.16 0.334,-0.183 0.334,-0.208L0.334,-0.474C0.334,-0.499 0.326,-0.522 0.309,-0.544C0.292,-0.565 0.271,-0.583 0.246,-0.596C0.22,-0.608 0.194,-0.615 0.169,-0.615L0.169,-0.068Z" style="fill:rgb(240,138,74);fill-rule:nonzero;"/></g><g transform="matrix(264.242,0,0,264.242,984.303,-379.265)"><path d="M0.186,0.001C0.161,0.001 0.138,-0.005 0.118,-0.018C0.097,-0.03 0.08,-0.047 0.068,-0.068C0.056,-0.089 0.05,-0.111 0.05,-0.136L0.05,-0.7C0.075,-0.7 0.098,-0.694 0.119,-0.682C0.139,-0.67 0.156,-0.654 0.168,-0.633C0.18,-0.612 0.186,-0.589 0.186,-0.564L0.186,0.001Z" style="fill:rgb(240,138,74);fill-rule:nonzero;"/></g><g transform="matrix(264.242,0,0,264.242,1041.38,-379.265)"><path d="M0.233,0.003C0.192,0.003 0.155,-0.009 0.122,-0.034C0.089,-0.059 0.066,-0.09 0.053,-0.128C0.052,-0.131 0.051,-0.135 0.051,-0.141C0.051,-0.153 0.055,-0.163 0.064,-0.172C0.073,-0.18 0.083,-0.184 0.095,-0.184C0.107,-0.184 0.117,-0.18 0.126,-0.172C0.135,-0.163 0.139,-0.153 0.139,-0.141L0.139,-0.138C0.139,-0.117 0.147,-0.1 0.163,-0.088C0.179,-0.075 0.197,-0.069 0.218,-0.069C0.237,-0.069 0.253,-0.076 0.267,-0.091C0.281,-0.105 0.288,-0.124 0.288,-0.147C0.288,-0.167 0.284,-0.185 0.275,-0.202C0.267,-0.219 0.255,-0.233 0.24,-0.246L0.178,-0.298C0.161,-0.311 0.152,-0.318 0.151,-0.319C0.129,-0.338 0.111,-0.355 0.097,-0.372C0.082,-0.388 0.07,-0.408 0.059,-0.432C0.048,-0.455 0.043,-0.482 0.043,-0.511C0.043,-0.545 0.051,-0.576 0.068,-0.605C0.085,-0.634 0.107,-0.657 0.136,-0.674C0.165,-0.691 0.196,-0.7 0.231,-0.7C0.274,-0.7 0.311,-0.69 0.344,-0.669C0.376,-0.648 0.398,-0.618 0.409,-0.581C0.41,-0.579 0.411,-0.571 0.411,-0.556C0.411,-0.544 0.407,-0.534 0.399,-0.526C0.39,-0.517 0.38,-0.513 0.368,-0.513C0.356,-0.513 0.346,-0.517 0.337,-0.526C0.328,-0.534 0.324,-0.544 0.324,-0.556L0.324,-0.559C0.324,-0.58 0.316,-0.596 0.299,-0.608C0.282,-0.619 0.263,-0.624 0.243,-0.623C0.224,-0.622 0.208,-0.613 0.197,-0.598C0.186,-0.583 0.18,-0.567 0.18,-0.551C0.18,-0.524 0.185,-0.502 0.196,-0.485C0.207,-0.468 0.222,-0.451 0.242,-0.434L0.308,-0.379L0.321,-0.369C0.342,-0.352 0.359,-0.335 0.372,-0.32C0.385,-0.305 0.397,-0.286 0.406,-0.264C0.415,-0.241 0.419,-0.215 0.419,-0.186C0.419,-0.152 0.411,-0.121 0.395,-0.092C0.378,-0.063 0.356,-0.04 0.327,-0.023C0.298,-0.006 0.267,0.003 0.233,0.003Z" style="fill:rgb(240,138,74);fill-rule:nonzero;"/></g><g transform="matrix(264.242,0,0,264.242,1157.91,-379.265)"><path d="M0.126,-0C0.107,-0 0.091,-0.007 0.078,-0.021C0.065,-0.034 0.058,-0.05 0.058,-0.069L0.058,-0.632C0.058,-0.651 0.065,-0.667 0.078,-0.68C0.091,-0.693 0.108,-0.7 0.127,-0.7L0.194,-0.7C0.235,-0.7 0.273,-0.69 0.31,-0.669C0.346,-0.648 0.375,-0.619 0.397,-0.584C0.419,-0.548 0.43,-0.509 0.43,-0.467C0.43,-0.429 0.422,-0.394 0.405,-0.361C0.388,-0.327 0.365,-0.3 0.336,-0.278C0.307,-0.256 0.274,-0.242 0.238,-0.237C0.225,-0.235 0.215,-0.229 0.207,-0.219C0.199,-0.209 0.195,-0.198 0.195,-0.185L0.195,-0.069C0.195,-0.051 0.188,-0.035 0.175,-0.021C0.161,-0.007 0.145,-0 0.126,-0ZM0.2,-0.281C0.225,-0.281 0.248,-0.287 0.269,-0.3C0.29,-0.312 0.306,-0.328 0.319,-0.349C0.331,-0.37 0.337,-0.392 0.337,-0.417L0.337,-0.477C0.337,-0.502 0.331,-0.525 0.319,-0.546C0.306,-0.567 0.29,-0.584 0.269,-0.597C0.248,-0.609 0.225,-0.615 0.2,-0.615L0.196,-0.615L0.196,-0.281L0.2,-0.281Z" style="fill:rgb(240,138,74);fill-rule:nonzero;"/></g><g transform="matrix(264.242,0,0,264.242,1274.71,-379.265)"><path d="M0.123,-0C0.105,-0.001 0.09,-0.009 0.078,-0.022C0.066,-0.035 0.06,-0.051 0.06,-0.069L0.06,-0.7C0.084,-0.7 0.107,-0.694 0.128,-0.681C0.149,-0.668 0.165,-0.652 0.178,-0.631C0.19,-0.61 0.196,-0.587 0.196,-0.562L0.196,-0.113C0.196,-0.104 0.199,-0.096 0.206,-0.089C0.213,-0.082 0.221,-0.079 0.231,-0.079L0.391,-0.079C0.401,-0.079 0.41,-0.075 0.418,-0.068C0.425,-0.06 0.429,-0.051 0.429,-0.04C0.429,-0.029 0.425,-0.019 0.417,-0.012C0.409,-0.004 0.4,-0 0.39,-0L0.123,-0Z" style="fill:rgb(240,138,74);fill-rule:nonzero;"/></g><g transform="matrix(264.242,0,0,264.242,1388.33,-379.265)"><path d="M0.129,-0C0.11,-0 0.094,-0.007 0.081,-0.02C0.068,-0.033 0.061,-0.05 0.061,-0.069L0.061,-0.494C0.061,-0.536 0.069,-0.573 0.084,-0.604C0.099,-0.635 0.12,-0.658 0.145,-0.675C0.17,-0.692 0.197,-0.7 0.226,-0.7C0.261,-0.7 0.293,-0.692 0.321,-0.675C0.348,-0.658 0.37,-0.635 0.387,-0.604C0.403,-0.573 0.411,-0.536 0.411,-0.494L0.411,-0.048C0.411,-0.035 0.406,-0.023 0.397,-0.014C0.387,-0.005 0.375,-0 0.362,-0C0.349,-0 0.337,-0.005 0.328,-0.014C0.319,-0.023 0.314,-0.035 0.314,-0.048L0.314,-0.201C0.314,-0.21 0.311,-0.217 0.305,-0.224C0.298,-0.23 0.29,-0.233 0.281,-0.233L0.229,-0.233C0.22,-0.233 0.213,-0.23 0.207,-0.224C0.2,-0.217 0.197,-0.21 0.197,-0.201L0.197,-0.069C0.197,-0.05 0.191,-0.033 0.178,-0.02C0.165,-0.007 0.148,-0 0.129,-0ZM0.281,-0.271C0.291,-0.271 0.298,-0.274 0.305,-0.281C0.311,-0.287 0.314,-0.294 0.314,-0.303L0.314,-0.5C0.314,-0.531 0.303,-0.558 0.28,-0.581C0.257,-0.603 0.23,-0.614 0.198,-0.614L0.198,-0.303C0.198,-0.294 0.201,-0.287 0.207,-0.281C0.214,-0.274 0.221,-0.271 0.23,-0.271L0.281,-0.271Z" style="fill:rgb(240,138,74);fill-rule:nonzero;"/></g><g transform="matrix(264.242,0,0,264.242,1507.77,-379.265)"><path d="M0.258,-0C0.239,-0 0.223,-0.007 0.209,-0.02C0.196,-0.033 0.189,-0.05 0.189,-0.069L0.189,-0.253C0.152,-0.268 0.124,-0.289 0.106,-0.316C0.087,-0.342 0.075,-0.373 0.069,-0.409C0.063,-0.445 0.06,-0.493 0.06,-0.554L0.06,-0.7C0.093,-0.7 0.124,-0.691 0.153,-0.674C0.181,-0.657 0.203,-0.633 0.22,-0.604C0.237,-0.575 0.245,-0.543 0.245,-0.509L0.245,-0.309L0.261,-0.309C0.29,-0.309 0.316,-0.319 0.337,-0.338C0.347,-0.347 0.354,-0.358 0.359,-0.371C0.364,-0.384 0.367,-0.399 0.368,-0.418L0.368,-0.647C0.368,-0.662 0.373,-0.674 0.383,-0.685C0.393,-0.695 0.406,-0.7 0.421,-0.7C0.436,-0.7 0.448,-0.695 0.459,-0.685C0.469,-0.674 0.474,-0.662 0.474,-0.647L0.474,-0.46C0.474,-0.405 0.461,-0.358 0.435,-0.321C0.409,-0.284 0.373,-0.263 0.327,-0.26L0.327,-0.069C0.327,-0.05 0.32,-0.033 0.306,-0.02C0.293,-0.007 0.276,-0 0.258,-0Z" style="fill:rgb(240,138,74);fill-rule:nonzero;"/></g></g><g transform="matrix(1.6,0,0,1.25,-571.313,-153.705)"><g transform="matrix(1.07163,0,0,1.18423,-10.7202,-44.0773)"><circle cx="415.893" cy="695.264" r="14.806" style="fill:rgb(240,138,74);"/></g><g transform="matrix(1.07163,0,0,1.18423,-114.985,-44.0773)"><circle cx="415.893" cy="695.264" r="14.806" style="fill:rgb(240,138,74);"/></g><g transform="matrix(1.07163,0,0,1.18423,-219.249,-44.0773)"><circle cx="415.893" cy="695.264" r="14.806" style="fill:rgb(240,138,74);"/></g><g transform="matrix(1.07163,0,0,1.18423,-323.514,-44.0773)"><circle cx="415.893" cy="695.264" r="14.806" style="fill:rgb(240,138,74);"/></g></g><g transform="matrix(1.6,0,0,1.25,-571.313,-153.705)"><g transform="matrix(1.07163,0,0,1.18423,1379.83,-44.0773)"><circle cx="415.893" cy="695.264" r="14.806" style="fill:rgb(240,138,74);"/></g><g transform="matrix(1.07163,0,0,1.18423,1275.56,-44.0773)"><circle cx="415.893" cy="695.264" r="14.806" style="fill:rgb(240,138,74);"/></g><g transform="matrix(1.07163,0,0,1.18423,1171.3,-44.0773)"><circle cx="415.893" cy="695.264" r="14.806" style="fill:rgb(240,138,74);"/></g><g transform="matrix(1.07163,0,0,1.18423,1067.04,-44.0773)"><circle cx="415.893" cy="695.264" r="14.806" style="fill:rgb(240,138,74);"/></g></g></g></g></g></g></svg>