<?xml version="1.0" encoding="utf-8"?>
<!-- Generator: Adobe Illustrator 25.2.3, SVG Export Plug-In . SVG Version: 6.00 Build 0)  -->
<svg version="1.1" xmlns="http://www.w3.org/2000/svg" xmlns:xlink="http://www.w3.org/1999/xlink" x="0px" y="0px"
	 viewBox="0 0 612 478.1" style="enable-background:new 0 0 612 478.1;" xml:space="preserve">
<style type="text/css">
	.st0{fill:#25283D;}
	.st1{fill:#E9E3E6;}
	.st2{fill:#00C2D1;}
	.st3{font-family:'Corbel';}
	.st4{font-size:12px;}
	.st5{fill:none;stroke:#E9E3E6;stroke-width:0.75;stroke-miterlimit:10;}
</style>
<g id="Layer_1">
	<rect class="st0" width="612" height="478.1"/>
	<path class="st1" d="M103.8,71.8c-1.2,0-2.5-0.4-3.5-1c-1.1-0.6-2-1.5-2.6-2.6s-1-2.3-1-3.6v-6.9c0-1.3,0.3-2.5,1-3.6
		c0.6-1.1,1.5-2,2.6-2.6c2.5-1.5,5.6-1.3,7.8,0.5c1.2,0.9,2.1,2.3,2.5,3.8c0,0.1,0.1,0.2,0.1,0.4c0,0.4-0.1,0.7-0.4,1
		s-0.6,0.4-1,0.4h-0.5c-0.4,0-0.7-0.2-1-0.4c-0.3-0.3-0.4-0.6-0.4-1V56c0-0.5-0.2-0.9-0.5-1.2s-0.8-0.5-1.2-0.5
		c-0.5,0-0.9,0.2-1.3,0.5c-0.3,0.3-0.5,0.8-0.5,1.3v10.5c0,0.5,0.2,0.9,0.5,1.3c0.3,0.3,0.8,0.5,1.3,0.5c0.7,0,1.3-0.4,1.5-1
		c0.1-0.1,0.1-0.2,0.2-0.3c0.1-0.2,0.3-0.3,0.5-0.4s0.4-0.1,0.6-0.1c0.4,0,0.7,0.2,1,0.4c0.3,0.3,0.4,0.6,0.4,1
		c0,0.3-0.1,0.6-0.3,0.8c-0.6,0.9-1.5,1.7-2.5,2.3C106.1,71.5,104.9,71.8,103.8,71.8z"/>
	<path class="st1" d="M119.2,71.8c-1.2,0-2.5-0.4-3.5-1c-1.1-0.6-2-1.5-2.6-2.6s-1-2.3-1-3.6v-6.9c0-1.3,0.4-2.5,1-3.6
		s1.5-2,2.6-2.6c1.1-0.7,2.3-1,3.5-1c3.2,0,6,2.2,6.8,5.3c0,0.1,0.1,0.2,0.1,0.4c0,0.4-0.1,0.7-0.4,1s-0.6,0.4-1,0.4h-0.5
		c-0.4,0-0.7-0.2-1-0.4c-0.3-0.3-0.4-0.6-0.4-1V56c0-0.5-0.2-0.9-0.5-1.2c-0.7-0.7-1.8-0.7-2.5,0c-0.3,0.3-0.5,0.8-0.5,1.3v10.5
		c0,0.5,0.2,0.9,0.5,1.3c0.3,0.3,0.8,0.5,1.3,0.5c0.3,0,0.6-0.1,0.9-0.3c0.3-0.2,0.5-0.4,0.6-0.7l0.1-0.2c0.1-0.2,0.3-0.3,0.5-0.4
		s0.4-0.2,0.6-0.2c0.8,0,1.4,0.7,1.4,1.5c0,0.3-0.1,0.6-0.3,0.8c-0.6,0.9-1.5,1.7-2.5,2.2C121.5,71.5,120.4,71.8,119.2,71.8z
		 M115.2,61.8h7.5c0.5,0,0.9,0.2,1.2,0.5c0.7,0.7,0.7,1.8,0,2.5c-0.3,0.3-0.8,0.5-1.2,0.5h-7.5V61.8z"/>
	<path class="st1" d="M131.7,71.8c-0.9,0-1.8-0.4-2.5-1.1s-1-1.6-1-2.5v-14c0-1.9,1.5-3.5,3.5-3.5c0,0,0,0,0.1,0h3.4
		c1.3,0,2.5,0.4,3.6,1s2,1.5,2.6,2.6c0.7,1.1,1,2.3,1,3.5c0,1.1-0.2,2.2-0.8,3.2c-0.5,1-1.2,1.8-2.1,2.5c-0.9,0.7-1.9,1.1-2.9,1.3
		c-0.4,0.1-0.8,0.1-1.2,0.1l-0.1,3.5c0,1.9-1.5,3.5-3.5,3.5C131.8,71.9,131.7,71.9,131.7,71.8L131.7,71.8z M142.3,71.8
		c-2.2,0-4.2-1.1-5.4-3l-3.5-5.8h3.6L142.3,71.8z M135.3,63c0.6,0,1.2-0.2,1.7-0.5s1-0.7,1.3-1.2s0.5-1.1,0.5-1.7v-2
		c0-0.6-0.2-1.2-0.5-1.7s-0.7-0.9-1.3-1.2c-0.5-0.3-1.1-0.5-1.7-0.5h-0.1L135.3,63L135.3,63z"/>
	<path class="st1" d="M151.2,71.8c-1.2,0-2.5-0.4-3.5-1c-1.1-0.6-2-1.5-2.6-2.6c-0.7-1.1-1-2.3-1-3.6v-6.9c0-1.3,0.3-2.5,0.9-3.6
		c0.6-1.1,1.5-2,2.6-2.6c1.1-0.7,2.3-1,3.5-1c3.2,0,6,2.1,6.8,5.3c0,0.1,0.1,0.2,0.1,0.4c0,0.4-0.1,0.7-0.4,1
		c-0.3,0.3-0.6,0.4-1,0.4h-0.5c-0.8,0-1.4-0.6-1.4-1.4V56c0-0.5-0.2-0.9-0.5-1.2s-0.7-0.5-1.2-0.5s-1,0.2-1.3,0.5s-0.5,0.8-0.5,1.3
		v10.5c0,0.5,0.2,0.9,0.5,1.3c0.6,0.6,1.5,0.7,2.2,0.2c0.3-0.2,0.5-0.4,0.6-0.7l0.1-0.2c0.1-0.2,0.3-0.3,0.5-0.4s0.4-0.2,0.6-0.2
		c0.4,0,0.7,0.2,1,0.4c0.3,0.3,0.4,0.6,0.4,1c0,0.3-0.1,0.6-0.3,0.8c-0.6,0.9-1.5,1.7-2.4,2.2C153.4,71.5,152.3,71.8,151.2,71.8z
		 M147.2,61.8h7.5c1,0,1.8,0.8,1.8,1.8s-0.8,1.8-1.8,1.8h-7.5V61.8z"/>
	<path class="st1" d="M163.8,71.8c-0.9,0-1.8-0.3-2.5-1s-1-1.6-1-2.5V57.7c0-1.2,0.4-2.5,1-3.5c0.6-1.1,1.5-2,2.6-2.6
		c2.2-1.3,4.8-1.3,7,0c1.1,0.6,1.9,1.5,2.6,2.6c0.7,1.1,1,2.3,1,3.5V70c0,1-0.8,1.8-1.8,1.8c-0.5,0-0.9-0.2-1.2-0.5
		s-0.5-0.8-0.5-1.2v-4.3c0-0.3-0.1-0.5-0.3-0.7s-0.4-0.3-0.7-0.3h-1.6c-0.3,0-0.5,0.1-0.7,0.3c-0.2,0.2-0.3,0.4-0.3,0.7v2.5
		c0,1.9-1.6,3.5-3.5,3.5C163.9,71.8,163.9,71.8,163.8,71.8L163.8,71.8z M169.8,63c0.3,0,0.5-0.1,0.7-0.3s0.3-0.4,0.3-0.7v-0.9
		c0-1.9-1.5-3.4-3.4-3.5h-0.1V62c0,0.3,0.1,0.5,0.3,0.7s0.4,0.3,0.7,0.3H169.8z"/>
	<path class="st1" d="M180.2,71.8c-0.9-0.1-1.7-0.5-2.3-1.1s-1-1.5-0.9-2.4V50.7c1.2,0,2.5,0.3,3.5,1c1.1,0.6,1.9,1.5,2.6,2.6
		c0.7,1.1,1,2.3,1,3.6v6.9v1.8c0,0.5,0.2,0.9,0.5,1.3c0.3,0.3,0.8,0.5,1.3,0.5h3.5c0.5,0,0.9,0.2,1.2,0.5s0.5,0.8,0.5,1.2
		c0,0.5-0.2,0.9-0.5,1.3c-0.3,0.3-0.8,0.5-1.3,0.5L180.2,71.8z"/>
	<path class="st1" d="M207.7,71.8c-1.2,0-2.5-0.3-3.5-1c-1.1-0.6-1.9-1.5-2.6-2.6c-0.6-1.1-1-2.3-1-3.5v-14c1.2,0,2.5,0.4,3.5,1
		c1.1,0.6,2,1.5,2.6,2.6s1,2.3,0.9,3.5L207.7,71.8z"/>
	<path class="st1" d="M217.1,71.8c-3.1,0-5.8-2-6.7-4.9c0-0.2-0.1-0.3-0.1-0.5c0-0.4,0.2-0.8,0.5-1.2c0.3-0.3,0.7-0.5,1.1-0.5
		c0.9,0,1.6,0.7,1.6,1.6l0,0v0.1c0,1,0.8,1.7,1.7,1.8l0,0c0.5,0,0.9-0.2,1.3-0.5c0.3-0.3,0.5-0.8,0.5-1.3v-0.1c0-0.5-0.2-1-0.5-1.4
		s-0.6-0.8-1.1-1l-2.4-1.2c-0.4-0.2-0.8-0.5-1.2-0.8s-0.7-0.7-1-1.2c-0.3-0.4-0.5-0.9-0.6-1.4c-0.2-0.5-0.2-1-0.2-1.6
		c0-1.3,0.3-2.5,0.9-3.6c0.6-1.1,1.5-2,2.6-2.6c1.1-0.7,2.3-1,3.5-1c1.5,0,3,0.5,4.2,1.4s2.1,2.1,2.6,3.5c0,0.2,0.1,0.3,0.1,0.5
		c0,0.9-0.7,1.6-1.6,1.6c-0.4,0-0.9-0.2-1.2-0.5s-0.5-0.7-0.5-1.2l0,0c0-0.5-0.2-0.9-0.5-1.3c-0.3-0.3-0.8-0.5-1.3-0.5
		s-0.9,0.2-1.2,0.5s-0.5,0.8-0.5,1.3s0.1,1,0.4,1.5c0.3,0.4,0.7,0.8,1.1,1l2.4,1.2c0.1,0,0.1,0.1,0.2,0.1l0.2,0.1
		c0.6,0.3,1,0.7,1.4,1.2c0.8,1,1.3,2.3,1.3,3.6c0,1.3-0.3,2.5-1,3.6c-0.6,1.1-1.5,2-2.6,2.6C219.6,71.5,218.4,71.8,217.1,71.8z"/>
	<path class="st2" d="M242.1,71.8c-1.2,0-2.5-0.4-3.5-1c-1.1-0.6-1.9-1.5-2.6-2.6c-0.7-1.1-1-2.3-1-3.6v-6.9c0-1.3,0.3-2.5,1-3.6
		c0.6-1.1,1.5-2,2.6-2.6c1.1-0.7,2.3-1,3.5-1c3.1,0,5.8,2,6.7,4.9c0.1,0.2,0.1,0.3,0.1,0.5c0,0.4-0.2,0.8-0.5,1.2
		c-0.3,0.3-0.7,0.5-1.1,0.5c-0.4,0-0.8-0.2-1.1-0.5s-0.5-0.7-0.5-1.2l0,0c0-1-0.8-1.7-1.8-1.8c-0.5,0-0.9,0.2-1.3,0.5
		c-0.3,0.3-0.5,0.8-0.5,1.3v10.5c0,0.5,0.2,0.9,0.5,1.3c0.3,0.3,0.8,0.5,1.3,0.5c1,0,1.7-0.8,1.8-1.7l0,0v-1.8h1.8
		c-0.5,0.4-0.8,1.1-0.8,1.8c0,0.4,0.1,0.9,0.4,1.3c0.2,0.4,0.5,0.7,0.9,0.9c-0.6,1-1.5,1.8-2.5,2.3
		C244.4,71.5,243.3,71.8,242.1,71.8z M249,68.3c-0.4,0-0.8-0.2-1.1-0.5s-0.5-0.7-0.5-1.1c0-0.9,0.6-1.7,1.5-1.9c0.1,0,0.2,0,0.2-0.1
		c0.1-0.1,0.1-0.2,0.1-0.2c0-0.1,0-0.2-0.1-0.3c-0.1-0.1-0.2-0.1-0.3-0.1c-0.5,0.1-0.9,0.3-1.3,0.7h-3.6c0-1.9,1.5-3.5,3.5-3.5
		c0,0,0,0,0.1,0h1.8c0.5,0,0.9,0.2,1.3,0.5c0.3,0.3,0.5,0.8,0.5,1.2v3.5c0,0.5-0.2,1-0.6,1.3C250,68.2,249.5,68.3,249,68.3z
		 M248.3,68.1c-0.9-0.5-1.2-1.5-0.7-2.4c0.3-0.6,0.9-0.9,1.5-0.9C249.1,65.9,248.8,67.1,248.3,68.1z"/>
	<path class="st1" d="M259.5,71.8c-2.5,0-4.9-1.4-6.1-3.5c-0.7-1.1-1-2.3-1-3.5v-7c0-1.2,0.4-2.5,1-3.5c2-3.4,6.3-4.5,9.6-2.6
		c1.1,0.6,2,1.5,2.6,2.6s1,2.3,1,3.5v7c0,1.2-0.3,2.5-1,3.5c-0.6,1.1-1.5,2-2.6,2.6S260.7,71.8,259.5,71.8z M261.3,68.3
		c1,0,1.7-0.8,1.7-1.7l0,0V56c0-0.5-0.2-0.9-0.5-1.3c-0.7-0.7-1.8-0.7-2.5,0l0,0c-0.3,0.3-0.5,0.8-0.5,1.3v10.5
		c0,0.5,0.2,0.9,0.5,1.3C260.3,68.1,260.8,68.3,261.3,68.3z"/>
	<path class="st1" d="M275.5,71.8c-3.9,0-7.1-3.2-7.1-7.1l0,0v-7c0-3.9,3.2-7.1,7.1-7.1c1.2,0,2.4,0.3,3.5,0.9
		c1.1,0.6,2,1.5,2.6,2.6s1,2.3,1,3.5v7c0,1.2-0.3,2.5-1,3.5c-0.6,1.1-1.5,2-2.6,2.6C277.9,71.5,276.7,71.8,275.5,71.8z M277.2,68.3
		c1,0,1.8-0.8,1.8-1.8l0,0V56c0-1-0.8-1.8-1.8-1.8c-0.5,0-0.9,0.2-1.2,0.5c-0.3,0.3-0.5,0.8-0.5,1.3v10.5c0,0.5,0.2,0.9,0.5,1.3
		C276.3,68.1,276.8,68.3,277.2,68.3L277.2,68.3z"/>
	<path class="st1" d="M288.2,71.8c-0.8,0-1.5-0.3-2.1-0.7c-0.6-0.5-1.1-1.1-1.3-1.8c0-0.2-0.1-0.3-0.1-0.5s0-0.3,0-0.5V54.2
		c0-0.2,0-0.3,0-0.5s0.1-0.3,0.1-0.5c0.2-0.7,0.7-1.4,1.3-1.8c0.6-0.5,1.4-0.7,2.1-0.7h3.5c1.9,0,3.7,0.5,5.3,1.4
		c1.6,0.9,3,2.3,3.9,3.9c1.9,3.3,1.9,7.3,0,10.6c-0.9,1.6-2.3,2.9-3.9,3.8s-3.4,1.4-5.3,1.4C291.7,71.8,288.2,71.8,288.2,71.8z
		 M288.2,68.3c0.6,0,1.2-0.2,1.8-0.5c0.5-0.3,1-0.8,1.3-1.3s0.5-1.1,0.5-1.8v-7.1c0-0.6-0.2-1.2-0.5-1.8c-0.3-0.5-0.7-1-1.3-1.3
		c-0.5-0.3-1.1-0.5-1.8-0.5V68.3z"/>
	<path class="st1" d="M317.3,71.8c-1.9,0-3.5-1.6-3.5-3.5l0,0V57.8c0-1.3,0.3-2.5,1-3.6c0.6-1.1,1.5-2,2.6-2.6c1.1-0.7,2.3-1,3.6-1
		h3.4c1.9,0,3.5,1.6,3.5,3.5l0,0c0,0.9-0.4,1.8-1.1,2.5s-1.6,1-2.5,1h-1.7c-1,0-1.8,0.8-1.8,1.8l0,0c0,1,0.8,1.8,1.8,1.8h1.8
		c0.5,0,0.9,0.2,1.3,0.5c0.3,0.3,0.5,0.8,0.5,1.2c0,1-0.7,1.8-1.7,1.8h-0.1h-1.8c-1,0-1.8,0.8-1.8,1.7l0,0v1.8
		C320.9,70.2,319.3,71.7,317.3,71.8C317.4,71.8,317.3,71.8,317.3,71.8L317.3,71.8z"/>
	<path class="st1" d="M337.1,71.8c-1.3,0-2.5-0.3-3.6-1c-1.1-0.6-2-1.5-2.6-2.6s-1-2.3-1-3.5v-7c0-1.2,0.3-2.5,1-3.5
		c0.6-1.1,1.5-2,2.6-2.6c3.4-2,7.7-0.8,9.7,2.6c0.6,1.1,1,2.3,1,3.5v7c0,1.2-0.4,2.5-1,3.5c-0.6,1.1-1.5,2-2.6,2.6
		C339.5,71.5,338.3,71.8,337.1,71.8z M338.8,68.3c1,0,1.8-0.7,1.8-1.7v-0.1V56c0-1-0.8-1.8-1.7-1.8l0,0c-0.5,0-0.9,0.2-1.2,0.5
		c-0.3,0.3-0.5,0.8-0.5,1.3v10.5c0,0.5,0.2,0.9,0.5,1.3C337.9,68.1,338.4,68.3,338.8,68.3z"/>
	<path class="st1" d="M349.8,71.8c-0.9,0-1.8-0.4-2.5-1.1s-1-1.6-1-2.5v-14c0-1.9,1.5-3.5,3.5-3.5c0,0,0,0,0.1,0h3.4
		c1.3,0,2.5,0.4,3.6,1s2,1.5,2.6,2.6c0.7,1.1,1,2.3,1,3.5c0,1.1-0.2,2.2-0.8,3.2c-0.5,1-1.2,1.8-2.1,2.5s-1.9,1.1-3,1.3
		c-0.4,0.1-0.8,0.1-1.2,0.1l-0.1,3.5C353.3,70.3,351.8,71.9,349.8,71.8C349.8,71.9,349.8,71.9,349.8,71.8L349.8,71.8z M360.4,71.8
		c-2.2,0-4.2-1.1-5.4-3l-3.5-5.8h3.5L360.4,71.8z M353.4,63c0.6,0,1.2-0.2,1.7-0.5s0.9-0.7,1.3-1.2c0.3-0.5,0.5-1.1,0.5-1.7v-2
		c0-0.6-0.2-1.2-0.5-1.7s-0.7-0.9-1.3-1.3c-0.5-0.3-1.1-0.5-1.7-0.5h-0.1L353.4,63L353.4,63z"/>
	<path class="st1" d="M374.7,71.8c-0.9,0-1.8-0.4-2.5-1.1s-1-1.6-1-2.5v-14c0-0.9,0.3-1.8,1-2.5c0.6-0.7,1.5-1,2.5-1h3.5
		c1.3,0,2.5,0.4,3.6,1s2,1.5,2.6,2.6s1,2.3,1,3.5c0,1-0.2,2-0.6,2.9c-0.1,0.2-0.2,0.5-0.2,0.7s0,0.5,0.2,0.7
		c0.4,0.9,0.6,1.8,0.6,2.8c0,1.1-0.3,2.2-0.8,3.2c-1,2-2.8,3.3-5,3.7H374.7z M378.4,63c0.4,0,0.8-0.1,1.2-0.2
		c0.4-0.1,0.8-0.4,1.1-0.7c0.3-0.3,0.6-0.7,0.8-1.1c0.2-0.4,0.3-0.9,0.3-1.4v-2c0-0.6-0.2-1.2-0.5-1.7s-0.7-0.9-1.2-1.3
		c-0.5-0.3-1.1-0.5-1.7-0.5h-0.1v3.5V63H378.4z M378.4,70.1c1.9,0,3.4-1.5,3.5-3.4v-2c0-0.3,0-0.5-0.1-0.8c-0.7,0.4-1.4,0.7-2.1,0.8
		c-0.4,0.1-0.7,0.2-0.9,0.5c-0.2,0.3-0.4,0.6-0.4,1V70.1L378.4,70.1z"/>
	<path class="st1" d="M390.9,71.8c-0.9,0-1.8-0.4-2.5-1.1s-1-1.6-1-2.5v-14c0-1.9,1.5-3.5,3.5-3.6h0.1h3.4c1.3,0,2.5,0.4,3.6,1
		s2,1.5,2.6,2.6s1,2.3,1,3.5c0,1.1-0.2,2.2-0.8,3.2c-0.5,1-1.2,1.8-2.1,2.5s-1.9,1.1-2.9,1.3c-0.4,0.1-0.8,0.1-1.2,0.1l-0.1,3.5
		c0,1.9-1.6,3.5-3.5,3.5C391,71.9,391,71.9,390.9,71.8L390.9,71.8z M401.5,71.8c-1.1,0-2.1-0.3-3.1-0.8c-0.9-0.5-1.7-1.3-2.3-2.2
		l-3.5-5.8h3.5L401.5,71.8z M394.5,63c0.6,0,1.2-0.2,1.7-0.5s0.9-0.7,1.3-1.2c0.3-0.5,0.5-1.1,0.5-1.7v-2c0-0.6-0.2-1.2-0.5-1.7
		s-0.7-0.9-1.3-1.3c-0.5-0.3-1.1-0.5-1.7-0.5h-0.1L394.5,63L394.5,63z"/>
	<path class="st1" d="M410.4,71.8c-1.2,0-2.5-0.4-3.5-1c-1.1-0.6-2-1.5-2.6-2.6s-1-2.3-1-3.6v-6.9c0-1.3,0.3-2.5,1-3.6
		c0.6-1.1,1.5-2,2.6-2.6c1.1-0.7,2.3-1,3.5-1c1.6,0,3.1,0.5,4.3,1.5c1.2,0.9,2.1,2.3,2.5,3.8c0,0.1,0,0.2,0.1,0.4
		c0,0.4-0.2,0.7-0.4,1c-0.3,0.3-0.6,0.4-1,0.4h-0.5c-0.4,0-0.7-0.1-1-0.4c-0.3-0.3-0.4-0.6-0.4-1V56c0-0.5-0.2-0.9-0.5-1.2
		s-0.8-0.5-1.2-0.5c-0.5,0-0.9,0.2-1.3,0.5c-0.3,0.3-0.5,0.8-0.5,1.3v10.5c0,0.5,0.2,0.9,0.5,1.3c0.3,0.3,0.8,0.5,1.3,0.5
		c0.3,0,0.6-0.1,0.9-0.3c0.3-0.2,0.5-0.4,0.6-0.7l0.1-0.2c0.1-0.2,0.3-0.3,0.5-0.4c0.6-0.3,1.3-0.1,1.7,0.3c0.3,0.3,0.4,0.6,0.4,1
		c0,0.3-0.1,0.6-0.3,0.8c-0.6,0.9-1.5,1.7-2.5,2.2C412.7,71.5,411.6,71.8,410.4,71.8z M406.4,61.8h7.5c0.5,0,0.9,0.2,1.2,0.5
		c0.7,0.7,0.7,1.8,0,2.5c-0.3,0.3-0.8,0.5-1.2,0.5h-7.5V61.8z"/>
	<path class="st1" d="M423,71.8c-1.9,0-3.5-1.6-3.5-3.5l0,0V57.7c0-1.2,0.3-2.4,1-3.5c0.6-1.1,1.5-2,2.5-2.6c2.2-1.3,4.8-1.3,7,0
		c1.1,0.6,2,1.5,2.6,2.6s1,2.3,1,3.5V70c0,0.5-0.2,0.9-0.5,1.2c-0.7,0.7-1.8,0.7-2.5,0l0,0c-0.3-0.3-0.5-0.8-0.5-1.2v-4.3
		c0-0.3-0.1-0.5-0.3-0.7c-0.2-0.2-0.4-0.3-0.7-0.3h-1.6c-0.3,0-0.5,0.1-0.7,0.3c-0.2,0.2-0.3,0.4-0.3,0.7v2.5
		C426.5,70.2,425,71.8,423,71.8L423,71.8z M429.1,63c0.3,0,0.5-0.1,0.7-0.3s0.3-0.4,0.3-0.7v-0.9c0-1.9-1.5-3.4-3.4-3.5h-0.1V62
		c0,0.6,0.4,1,1,1H429.1z"/>
	<path class="st1" d="M439,71.8c-1.9,0-3.5-1.6-3.5-3.5l0,0V50.7c1.2,0,2.5,0.4,3.5,1c1.1,0.6,2,1.5,2.6,2.6s1,2.3,1,3.5v10.6
		C442.5,70.3,441,71.8,439,71.8C439.1,71.8,439.1,71.8,439,71.8L439,71.8z M449.6,71.8c-1.1,0-2.1-0.3-3-0.8s-1.7-1.3-2.3-2.2
		l-2.8-4.7h3.6L449.6,71.8z M442.6,63.1L442.6,63.1c0.9,0,1.8-0.3,2.4-0.9c0.7-0.6,1.1-1.5,1.1-2.4v-7.4c0-1,0.8-1.8,1.8-1.8
		s1.8,0.8,1.8,1.8l0,0v5.5c0,1.1-0.2,2.2-0.7,3.1c-1,2-2.8,3.4-5,3.7l0,0c-0.4,0.1-0.9,0.1-1.3,0.1L442.6,63.1z"/>
	<path class="st2" d="M455,71.8c-1.9,0-3.5-1.6-3.5-3.5l0,0V57.8c0-1.3,0.3-2.5,1-3.6c0.6-1.1,1.5-2,2.6-2.6c1.1-0.7,2.3-1,3.6-1
		h3.4c1.9,0,3.5,1.6,3.5,3.5l0,0c0,0.9-0.4,1.8-1.1,2.5s-1.6,1-2.5,1h-1.7c-0.5,0-0.9,0.2-1.3,0.5c-0.3,0.3-0.5,0.8-0.5,1.3
		s0.2,0.9,0.5,1.2s0.8,0.5,1.3,0.5h1.8c0.5,0,0.9,0.2,1.3,0.5c0.3,0.3,0.5,0.8,0.5,1.2c0,0.5-0.2,0.9-0.5,1.3
		c-0.3,0.3-0.8,0.5-1.3,0.5h-1.8c-0.5,0-0.9,0.2-1.3,0.5c-0.3,0.3-0.5,0.8-0.5,1.2v1.8C458.5,70.2,456.9,71.8,455,71.8L455,71.8
		L455,71.8z"/>
	<path class="st1" d="M471.6,71.8c-1.9,0-3.5-1.6-3.5-3.5l0,0V57.7c0-1.2,0.4-2.5,1-3.5c0.6-1.1,1.5-2,2.6-2.6c2.2-1.3,4.8-1.3,7,0
		c1.1,0.6,1.9,1.5,2.6,2.6s1,2.3,1,3.5V70c0,0.5-0.2,0.9-0.5,1.2c-0.7,0.7-1.8,0.7-2.5,0l0,0c-0.3-0.3-0.5-0.8-0.5-1.2v-4.3
		c0-0.3-0.1-0.5-0.3-0.7c-0.2-0.2-0.4-0.3-0.7-0.3h-1.6c-0.3,0-0.5,0.1-0.7,0.3c-0.2,0.2-0.3,0.4-0.3,0.7v2.5c0,1.9-1.6,3.5-3.5,3.5
		C471.7,71.8,471.7,71.8,471.6,71.8L471.6,71.8z M477.7,63c0.3,0,0.5-0.1,0.7-0.3s0.3-0.4,0.3-0.7v-0.9c0-1.9-1.5-3.4-3.4-3.5h-0.1
		V62c0,0.3,0.1,0.5,0.3,0.7c0.2,0.2,0.4,0.3,0.7,0.3H477.7z"/>
	<path class="st1" d="M491.8,71.8c-3.1,0-5.8-2-6.8-4.9c0-0.2-0.1-0.3-0.1-0.5c0-0.9,0.7-1.6,1.6-1.6c0.4,0,0.8,0.2,1.1,0.5
		c0.3,0.3,0.5,0.7,0.5,1.2v0.1c0,1,0.8,1.8,1.8,1.8l0,0c0.5,0,0.9-0.2,1.3-0.5c0.3-0.3,0.5-0.8,0.5-1.3v-0.1c-0.1-0.5-0.2-1-0.5-1.4
		s-0.6-0.8-1.1-1l-2.4-1.2c-0.4-0.2-0.8-0.5-1.2-0.8c-0.4-0.3-0.7-0.7-1-1.2c-0.3-0.4-0.5-0.9-0.6-1.4c-0.2-0.5-0.2-1-0.2-1.6
		c0-1.3,0.3-2.5,1-3.6c0.6-1.1,1.5-2,2.6-2.6c1.1-0.7,2.3-1,3.5-1c1.5,0,3,0.5,4.2,1.4s2.1,2.1,2.5,3.5c0,0.2,0.1,0.3,0.1,0.5
		c0,0.4-0.2,0.8-0.5,1.2c-0.3,0.3-0.7,0.5-1.1,0.5s-0.8-0.2-1.1-0.5c-0.3-0.3-0.5-0.7-0.5-1.2V56c0-0.5-0.2-0.9-0.5-1.3
		c-0.3-0.3-0.8-0.5-1.3-0.5s-0.9,0.2-1.2,0.5c-0.3,0.3-0.5,0.8-0.5,1.3s0.1,1,0.4,1.5c0.3,0.4,0.7,0.8,1.1,1l2.4,1.2l0.2,0.1
		l0.2,0.1c0.6,0.3,1,0.7,1.5,1.2c0.8,1,1.3,2.3,1.3,3.6c0,1.3-0.3,2.5-1,3.6c-0.6,1.1-1.5,2-2.6,2.6C494.3,71.5,493,71.8,491.8,71.8
		z"/>
	<path class="st1" d="M502.3,54.7c-1.9,0-3.5-1.5-3.5-3.5c0,0,0,0,0-0.1h17.6c0,0.9-0.3,1.8-1,2.5s-1.6,1-2.5,1L502.3,54.7z
		 M507.6,71.8c-0.9,0-1.8-0.3-2.5-1s-1-1.6-1-2.5V52.5h7v15.8C511.1,70.2,509.5,71.8,507.6,71.8L507.6,71.8z"/>
	<path class="st1" d="M128.9,108.1c-0.6,0-1.2-0.2-1.8-0.5c-0.5-0.3-1-0.7-1.3-1.3c-0.3-0.5-0.5-1.2-0.5-1.8V86.9
		c0.6,0,1.2,0.2,1.8,0.5c0.5,0.3,1,0.7,1.3,1.3c0.3,0.5,0.5,1.1,0.5,1.8V108.1z"/>
	<path class="st1" d="M133.5,90.9c-1.9,0-3.5-1.6-3.5-3.5h15.5c0,0.9-0.3,1.8-1,2.5c-0.6,0.7-1.5,1-2.5,1H133.5z M137.7,108.1
		c-0.5,0-0.9-0.2-1.3-0.5c-0.3-0.3-0.5-0.8-0.5-1.2V88.7h3.5v17.6C139.5,107.3,138.7,108,137.7,108.1L137.7,108.1z"/>
	<path class="st1" d="M151.8,108.1c-1.2,0-2.3-0.4-3.2-1.1s-1.6-1.6-1.9-2.7c-0.1-0.1-0.1-0.2-0.1-0.4c0-0.3,0.1-0.7,0.4-0.9
		c0.2-0.2,0.5-0.4,0.9-0.4c0.3,0,0.7,0.1,0.9,0.4c0.2,0.2,0.4,0.5,0.4,0.9v0.1c0,0.4,0.1,0.7,0.4,1c0.2,0.3,0.6,0.4,0.9,0.4
		c0.4,0,0.7-0.1,1-0.4s0.4-0.6,0.4-1v-0.2c0-0.6,0-1.3-0.1-1.9c-0.1-0.5-0.2-0.9-0.5-1.3l-1.3-1.5c-0.2-0.3-0.6-0.7-1-1.2
		s-1-1.2-1.4-1.6c-0.4-0.5-0.7-1.1-0.9-1.7c-0.3-0.7-0.4-1.5-0.4-2.3c0-1,0.2-1.9,0.7-2.7c0.5-0.8,1.2-1.5,2-2
		c1.9-1.1,4.2-1,5.9,0.3c0.9,0.7,1.6,1.6,1.9,2.7c0.1,0.1,0.1,0.2,0.1,0.4c0,0.3-0.1,0.6-0.4,0.9c-0.2,0.2-0.5,0.4-0.9,0.4
		c-0.3,0-0.7-0.1-0.9-0.4c-0.2-0.2-0.4-0.5-0.4-0.9l0,0c0-0.7-0.6-1.4-1.3-1.4l0,0c-0.4,0-0.7,0.1-0.9,0.4c-0.3,0.3-0.4,0.6-0.4,0.9
		c0,0.7,0.1,1.5,0.3,2.2c0.2,0.6,0.6,1.1,1,1.6l1.1,1.2l0.1,0.2l0.1,0.2c0.6,0.7,1.1,1.2,1.4,1.7c0.4,0.6,0.7,1.2,0.9,1.9
		c0.3,0.9,0.4,1.8,0.4,2.7c0,1-0.2,1.9-0.7,2.7c-0.5,0.8-1.2,1.5-2,2C153.6,107.8,152.7,108.1,151.8,108.1z"/>
	<path class="st1" d="M171,108.1c-1.2,0-2.3-0.4-3.2-1.1s-1.6-1.6-1.9-2.7c-0.1-0.1-0.1-0.2-0.1-0.4c0-0.7,0.6-1.2,1.2-1.2
		c0.3,0,0.7,0.1,0.9,0.4c0.2,0.2,0.4,0.5,0.4,0.9v0.1c0,0.4,0.1,0.7,0.4,1c0.3,0.3,0.6,0.4,1,0.4s0.7-0.1,1-0.4s0.4-0.6,0.4-1v-0.2
		c0-0.6,0-1.3-0.1-1.9c-0.1-0.5-0.2-0.9-0.5-1.3l-1.1-1.5c-0.2-0.3-0.5-0.7-1-1.2s-1-1.2-1.4-1.6c-0.4-0.5-0.7-1.1-0.9-1.7
		c-0.3-0.7-0.4-1.5-0.4-2.3c0-1,0.2-1.9,0.7-2.7c0.5-0.8,1.2-1.5,2-2c2.6-1.5,5.9-0.6,7.4,1.9c0.2,0.3,0.4,0.7,0.5,1.1
		c0.1,0.1,0.1,0.2,0.1,0.4c0,0.7-0.6,1.2-1.2,1.2c-0.3,0-0.7-0.1-0.9-0.4c-0.2-0.2-0.4-0.5-0.4-0.9l0,0c0-0.7-0.6-1.3-1.3-1.4
		c0,0,0,0-0.1,0c-0.4,0-0.7,0.1-0.9,0.4c-0.3,0.2-0.4,0.6-0.4,0.9c0,0.7,0.1,1.5,0.3,2.2c0.2,0.6,0.6,1.1,1,1.6l1.1,1.2l0.1,0.2
		l0.1,0.2c0.5,0.5,0.9,1.1,1.3,1.7c0.4,0.6,0.7,1.2,0.9,1.9c0.3,0.9,0.4,1.8,0.4,2.7c0,1-0.2,1.9-0.7,2.7c-0.5,0.8-1.1,1.5-1.9,2
		C172.9,107.8,172,108.1,171,108.1z"/>
	<path class="st1" d="M184.1,108.1c-0.9,0-1.9-0.2-2.6-0.7c-0.8-0.5-1.5-1.1-1.9-1.9c-0.5-0.8-0.7-1.7-0.7-2.6V88.7
		c0-0.5,0.2-0.9,0.5-1.3c0.6-0.7,1.7-0.7,2.4-0.1c0,0,0,0,0.1,0.1c0.3,0.3,0.5,0.8,0.5,1.3v13.4c0,0.4,0.2,0.9,0.5,1.2
		c0.3,0.3,0.8,0.6,1.2,0.6c0.5,0,0.9-0.2,1.3-0.5c0.3-0.3,0.5-0.8,0.5-1.3l0.1-13.3c0-0.5,0.2-0.9,0.5-1.3s0.8-0.5,1.3-0.5
		s0.9,0.2,1.2,0.6c0.3,0.3,0.5,0.8,0.5,1.2l-0.1,14.1c0,0.9-0.2,1.8-0.7,2.6c-0.5,0.8-1.1,1.5-1.9,1.9
		C185.9,107.8,185,108.1,184.1,108.1z"/>
	<path class="st1" d="M197.4,108.1c-0.9,0-1.9-0.3-2.7-0.7c-0.8-0.5-1.5-1.1-2-1.9s-0.8-1.7-0.8-2.7V92.3c0-0.9,0.2-1.9,0.7-2.7
		c0.5-0.8,1.2-1.5,2-1.9c0.8-0.5,1.8-0.7,2.7-0.7c1.3,0,2.6,0.3,3.7,1.1c1,0.7,1.7,1.7,2.1,2.8c0,0.1,0.1,0.2,0.1,0.3
		c0,0.3-0.1,0.6-0.3,0.8c-0.2,0.2-0.5,0.3-0.8,0.3h-0.3c-0.6,0-1.1-0.5-1.1-1.1v-0.3c0-0.7-0.3-1.4-0.8-1.8
		c-0.5-0.5-1.1-0.8-1.8-0.8s-1.4,0.2-1.9,0.8c-0.5,0.5-0.8,1.2-0.8,1.9l0.1,13.2c0,1.5,1.2,2.7,2.7,2.7l0,0c0.5,0,1-0.1,1.4-0.4
		s0.7-0.6,0.9-1.1c0-0.1,0.1-0.2,0.1-0.3c0-0.2,0.1-0.4,0.3-0.6c0.1-0.2,0.4-0.2,0.6-0.2c0.3,0,0.6,0.1,0.8,0.3
		c0.2,0.2,0.3,0.4,0.3,0.7c0,0.2-0.1,0.4-0.2,0.6c-0.5,0.7-1.2,1.3-2,1.7C199.5,107.9,198.4,108.1,197.4,108.1z"/>
	<path class="st1" d="M207.5,108.1c-0.5,0-0.9-0.2-1.3-0.5c-0.3-0.3-0.5-0.8-0.5-1.3V88.7c0-0.5,0.2-0.9,0.5-1.2
		c0.3-0.3,0.8-0.5,1.3-0.5c1,0,1.7,0.8,1.8,1.8v17.6c0,0.5-0.2,0.9-0.5,1.3C208.4,107.9,207.9,108.1,207.5,108.1z M212.7,102.5
		c0-0.4-0.1-0.7-0.4-1c-0.3-0.3-0.6-0.5-1-0.6c-0.8-0.1-1.5-0.4-2.2-0.8v-3.4c0,0.5,0.1,0.9,0.3,1.4c0.2,0.4,0.5,0.8,0.8,1.2
		c0.6,0.6,1.4,0.9,2.3,0.9h0.1L212.7,102.5z M214.5,108.1c-0.5,0-0.9-0.2-1.3-0.5c-0.3-0.3-0.5-0.8-0.5-1.2V88.7
		c0-0.5,0.2-0.9,0.5-1.2c0.3-0.3,0.8-0.5,1.3-0.5s0.9,0.2,1.2,0.5s0.5,0.8,0.5,1.2v17.6c0,0.5-0.2,0.9-0.5,1.2
		C215.4,107.9,215,108.1,214.5,108.1z"/>
	<path class="st1" d="M226.4,108.1c-0.5,0-0.9-0.2-1.2-0.5s-0.5-0.8-0.5-1.3V93c0-1.1,0.2-2.2,0.7-3.3c0.4-0.9,1.1-1.6,1.9-2.1
		c1.7-0.9,3.7-0.9,5.4,0c0.8,0.5,1.5,1.2,1.9,2.1c0.5,1,0.7,2.1,0.7,3.3v13.3c0,0.5-0.2,0.9-0.5,1.2c-0.7,0.7-1.8,0.7-2.5,0
		c-0.3-0.3-0.5-0.8-0.5-1.2V102c0-0.3-0.1-0.5-0.3-0.7s-0.4-0.3-0.7-0.3h-1.6c-0.6,0-1,0.4-1,1v4.3
		C228.2,107.3,227.5,108.1,226.4,108.1C226.5,108.1,226.4,108.1,226.4,108.1L226.4,108.1z M230.8,100.3c0.3,0,0.5-0.1,0.7-0.3
		c0.2-0.2,0.3-0.4,0.3-0.7v-6.6c0-1.9-1.5-3.4-3.4-3.4h-0.1v10c0,0.6,0.4,1,1,1H230.8z"/>
	<path class="st1" d="M254.2,109.7c-0.4,0-0.9-0.1-1.2-0.4s-0.5-0.7-0.5-1.2l0,0c0-0.2-0.1-0.4-0.2-0.5c-0.2-0.1-0.3-0.2-0.6-0.2
		c-0.1,0-0.3,0-0.4,0.1c-0.7,0.4-1.6,0.6-2.4,0.6c-0.9,0-1.8-0.2-2.6-0.7c-1.6-0.9-2.6-2.7-2.6-4.6V92.2c0-1.9,1-3.6,2.6-4.6
		c0.8-0.5,1.7-0.7,2.6-0.7c2.9,0,5.2,2.3,5.2,5.2c0,0.1,0,0.2,0,0.3v10.2c0.1,0.9-0.1,1.8-0.6,2.7c-0.1,0.1-0.1,0.3-0.1,0.4
		c0,0.2,0.1,0.4,0.2,0.5c0.1,0.1,0.3,0.2,0.5,0.3l0,0c0.4,0,0.9,0.2,1.2,0.5c0.6,0.6,0.6,1.6,0,2.3l0,0
		C255,109.5,254.6,109.7,254.2,109.7z M248.9,105.4c1.4,0,2.6-1.1,2.6-2.6l0,0V92.1c0-1.4-1.2-2.6-2.6-2.6c-0.7,0-1.4,0.3-1.9,0.8
		s-0.8,1.1-0.8,1.8v10.8c0,0.7,0.3,1.4,0.8,1.8C247.6,105.2,248.3,105.5,248.9,105.4z"/>
	<path class="st1" d="M261.7,108.1c-0.9,0-1.9-0.2-2.6-0.7c-0.8-0.5-1.5-1.1-1.9-1.9c-0.5-0.8-0.7-1.7-0.7-2.6V88.7
		c0-0.5,0.2-0.9,0.5-1.3c0.3-0.3,0.8-0.5,1.2-0.5c0.5,0,0.9,0.2,1.2,0.5c0.3,0.3,0.5,0.8,0.5,1.3v13.4c0,0.5,0.2,0.9,0.5,1.2
		c0.3,0.3,0.8,0.6,1.2,0.6c0.5,0,0.9-0.2,1.3-0.5c0.3-0.3,0.5-0.8,0.5-1.3l0.1-13.3c0-0.5,0.2-1,0.5-1.3c0.3-0.4,0.8-0.5,1.3-0.5
		s0.9,0.2,1.2,0.6c0.3,0.3,0.5,0.8,0.5,1.2l-0.1,14.1c0,0.9-0.2,1.8-0.7,2.6c-0.5,0.8-1.1,1.5-1.9,1.9
		C263.5,107.8,262.6,108.1,261.7,108.1z"/>
	<path class="st1" d="M273.1,108.1c-0.6,0-1.2-0.2-1.8-0.5c-0.5-0.3-1-0.7-1.3-1.3c-0.3-0.5-0.5-1.2-0.5-1.8V86.9
		c0.6,0,1.2,0.2,1.8,0.5c1.1,0.6,1.7,1.8,1.8,3V108.1z"/>
	<path class="st1" d="M280.9,108.1c-0.9,0-1.9-0.2-2.7-0.7c-0.8-0.5-1.5-1.1-2-1.9s-0.8-1.7-0.8-2.7V92.3c0-0.9,0.3-1.9,0.7-2.7
		c0.5-0.8,1.2-1.5,2-1.9c0.8-0.5,1.8-0.7,2.7-0.7c1.3,0,2.6,0.3,3.7,1.1c1,0.7,1.7,1.7,2.1,2.8c0,0.1,0.1,0.2,0.1,0.3
		c0,0.3-0.1,0.6-0.3,0.8c-0.2,0.2-0.5,0.3-0.8,0.3h-0.3c-0.6,0-1.1-0.5-1.1-1.1v-0.3c0-0.7-0.3-1.4-0.8-1.8
		c-0.5-0.5-1.2-0.8-1.9-0.8c-0.7,0-1.4,0.2-1.9,0.8c-0.5,0.5-0.8,1.2-0.8,1.9l0.1,13.2c0,1.5,1.2,2.7,2.6,2.7c0,0,0,0,0.1,0
		c0.5,0,0.9-0.1,1.4-0.4c0.4-0.3,0.7-0.6,0.9-1.1c0-0.1,0.1-0.2,0.1-0.3c0-0.2,0.1-0.4,0.3-0.6c0.1-0.2,0.4-0.2,0.6-0.2
		c0.3,0,0.6,0.1,0.8,0.3c0.2,0.2,0.3,0.4,0.3,0.7c0,0.2-0.1,0.4-0.2,0.6c-0.5,0.7-1.2,1.3-2,1.7C283,107.9,282,108.1,280.9,108.1z"
		/>
	<path class="st1" d="M290.9,108.1c-0.5,0-0.9-0.2-1.2-0.5c-0.3-0.3-0.5-0.8-0.5-1.3V86.9c1.3,0,2.4,0.7,3.1,1.7
		c0.3,0.5,0.5,1.1,0.5,1.8v15.9c0,0.5-0.2,0.9-0.5,1.2C291.9,107.9,291.4,108.1,290.9,108.1L290.9,108.1z M292.7,99.4L292.7,99.4
		c0.9,0,1.8-0.3,2.4-0.9c0.7-0.6,1.1-1.5,1.1-2.4v-7.4c0-1,0.8-1.8,1.8-1.8s1.8,0.8,1.8,1.8l0,0v5.5c0,1.1-0.3,2.2-0.7,3.3
		c-0.4,1-1.1,1.9-2,2.6c-0.8,0.7-1.9,1-2.9,1l0,0c-0.4,0-0.9,0-1.3,0.1L292.7,99.4z M299.7,108.1c-1.1,0-2.1-0.6-2.7-1.5l-3.8-6h1.8
		L299.7,108.1z"/>
	<path class="st1" d="M310,108.1c-0.5,0-0.9-0.2-1.2-0.5c-0.3-0.3-0.5-0.8-0.5-1.3V93c0-1.1,0.2-2.2,0.7-3.3
		c0.4-0.9,1.1-1.6,1.9-2.1c1.7-0.9,3.7-0.9,5.4,0c0.8,0.5,1.5,1.2,1.9,2.1c0.5,1,0.7,2.1,0.7,3.3v13.3c0,1-0.8,1.8-1.8,1.8
		s-1.8-0.8-1.8-1.8V102c0-0.3-0.1-0.5-0.3-0.7c-0.2-0.2-0.4-0.3-0.7-0.3h-1.6c-0.3,0-0.5,0.1-0.7,0.3c-0.2,0.2-0.3,0.4-0.3,0.7v4.3
		C311.8,107.3,311,108.1,310,108.1L310,108.1L310,108.1z M314.3,100.3c0.3,0,0.5-0.1,0.7-0.3c0.2-0.2,0.3-0.4,0.3-0.7v-6.6
		c0-1.9-1.5-3.4-3.4-3.4h-0.1v10c0,0.3,0.1,0.5,0.3,0.7c0.2,0.2,0.4,0.3,0.7,0.3H314.3z"/>
	<path class="st1" d="M323,108.1c-0.5,0-0.9-0.2-1.2-0.5c-0.3-0.3-0.5-0.8-0.5-1.3V88.7c0-0.5,0.2-0.9,0.5-1.3
		c0.3-0.3,0.8-0.5,1.3-0.5c0.3,0,0.5,0.1,0.8,0.2c0.2,0.1,0.4,0.3,0.6,0.5c0.5-0.3,1-0.5,1.6-0.6c0.7-0.1,1.5-0.1,2.3-0.1
		c1.2,0,2.5,0.4,3.5,1c1.1,0.6,1.9,1.5,2.6,2.6c0.6,1.1,1,2.3,1,3.5v12.3c0,1-0.8,1.7-1.7,1.8l0,0c-0.5,0-0.9-0.2-1.2-0.5
		c-0.3-0.3-0.5-0.8-0.5-1.2v-7c0-1.2-0.4-2.5-1-3.5c-0.6-1.1-1.5-2-2.6-2.6c-1.1-0.7-2.3-1-3.5-1v14.1c0,0.5-0.2,0.9-0.5,1.2
		C323.9,107.8,323.5,108,323,108.1z"/>
	<path class="st1" d="M339.3,108.1c-0.3,0-0.7-0.1-1-0.3c-0.3-0.2-0.5-0.5-0.6-0.8c0-0.1,0-0.5-0.1-1.1s0-1,0-1.3V90.4
		c0-0.3,0-0.8,0-1.3s0-0.9,0.1-1.1c0.1-0.3,0.3-0.6,0.6-0.8c0.3-0.2,0.6-0.3,1-0.3h1.4c1.9,0,3.7,0.5,5.3,1.4
		c1.6,0.9,2.9,2.3,3.9,3.8c1.9,3.3,1.9,7.3,0,10.6c-0.9,1.6-2.3,2.9-3.9,3.8s-3.4,1.4-5.3,1.4L339.3,108.1z M341.2,106.3
		c0.8,0,1.5-0.2,2.2-0.6s1.2-0.9,1.6-1.6s0.6-1.4,0.6-2.2v-8.8c0-0.8-0.2-1.5-0.6-2.2s-0.9-1.2-1.6-1.6s-1.4-0.6-2.2-0.6V106.3z"/>
	<path class="st1" d="M365.5,108.1c-3.2,0-5.8-2.6-5.8-5.8l0,0v-9.6c0-1,0.3-2,0.8-2.9s1.2-1.6,2.1-2.1s1.9-0.8,2.9-0.8
		c2.6,0,4.9,1.8,5.5,4.3c0,0.1,0.1,0.2,0.1,0.3c0,0.3-0.1,0.6-0.4,0.8c-0.2,0.2-0.5,0.4-0.8,0.3h-0.4c-0.3,0-0.6-0.1-0.8-0.3
		c-0.2-0.2-0.3-0.5-0.3-0.8v-0.7c0-0.7-0.3-1.3-0.8-1.8s-1.1-0.8-1.8-0.8c-0.7,0-1.4,0.3-1.9,0.8s-0.8,1.2-0.8,1.9l0.2,13.3
		c0,0.7,0.3,1.4,0.8,1.9s1.2,0.8,1.9,0.8c0.5,0,0.9-0.1,1.3-0.4s0.7-0.6,0.9-1.1l0.1-0.2c0.1-0.2,0.2-0.5,0.4-0.7
		c0.2-0.2,0.4-0.3,0.7-0.3c0.3,0,0.6,0,0.8,0.2c0.2,0.1,0.3,0.4,0.3,0.6s-0.1,0.5-0.2,0.7C369.1,107.1,367.3,108,365.5,108.1
		L365.5,108.1z M362.8,98.9h5.9c0.5,0,0.9,0.4,0.9,0.9c0,0.2-0.1,0.5-0.3,0.6c-0.2,0.2-0.4,0.3-0.6,0.3h-5.9V98.9z"/>
	<path class="st1" d="M375.2,108.1c-0.5,0-0.9-0.2-1.2-0.5c-0.3-0.3-0.5-0.8-0.5-1.3V93c0-1.1,0.2-2.2,0.7-3.3
		c0.4-0.9,1.1-1.6,1.9-2.1c1.7-0.9,3.7-0.9,5.4,0c0.8,0.5,1.5,1.2,1.9,2.1c0.5,1,0.7,2.2,0.7,3.3v13.3c0,1-0.8,1.8-1.8,1.8
		s-1.8-0.8-1.8-1.8V102c0-0.3-0.1-0.5-0.3-0.7c-0.2-0.2-0.4-0.3-0.7-0.3h-1.6c-0.3,0-0.5,0.1-0.7,0.3c-0.2,0.2-0.3,0.4-0.3,0.7v4.3
		C377,107.3,376.2,108.1,375.2,108.1L375.2,108.1L375.2,108.1z M379.5,100.3c0.3,0,0.5-0.1,0.7-0.3c0.2-0.2,0.3-0.4,0.3-0.7v-6.6
		c0-1.9-1.6-3.4-3.5-3.4l0,0h-0.1v10c0,0.3,0.1,0.5,0.3,0.7c0.2,0.2,0.4,0.3,0.7,0.3H379.5z"/>
	<path class="st1" d="M391.8,108.1c-1.2,0-2.3-0.4-3.2-1.1c-0.9-0.7-1.6-1.6-1.9-2.7c-0.1-0.1-0.1-0.2-0.1-0.4
		c0-0.3,0.1-0.7,0.4-0.9c0.2-0.2,0.5-0.4,0.9-0.4c0.3,0,0.7,0.1,0.9,0.4c0.2,0.2,0.4,0.5,0.4,0.9v0.1c0,0.4,0.1,0.7,0.4,1
		c0.2,0.3,0.6,0.4,1,0.4s0.7-0.1,1-0.4s0.4-0.6,0.4-1v-0.2c0-0.6,0-1.3-0.1-1.9c-0.1-0.5-0.2-0.9-0.5-1.3l-1.1-1.5
		c-0.2-0.3-0.5-0.7-1-1.2s-1-1.2-1.4-1.6c-0.4-0.5-0.7-1.1-0.9-1.7c-0.3-0.7-0.4-1.5-0.4-2.3c0-1,0.2-1.9,0.7-2.7
		c0.5-0.8,1.2-1.5,2-2s1.8-0.7,2.7-0.7c1.1,0,2.2,0.4,3.1,1.1s1.6,1.6,1.9,2.7c0.1,0.1,0.1,0.2,0.1,0.4c0,0.7-0.6,1.2-1.2,1.2
		c-0.3,0-0.7-0.1-0.9-0.4c-0.2-0.2-0.4-0.5-0.4-0.9l0,0c0-0.4-0.1-0.7-0.4-1s-0.6-0.4-1-0.4s-0.7,0.1-0.9,0.4
		c-0.3,0.3-0.4,0.6-0.4,0.9c0,0.7,0.1,1.5,0.3,2.2c0.2,0.6,0.6,1.1,1,1.6l1.1,1.2l0.1,0.2l0.1,0.2c0.5,0.6,1,1.1,1.4,1.8
		c0.4,0.6,0.7,1.2,0.9,1.9c0.3,0.9,0.4,1.8,0.4,2.7c0,1-0.2,1.9-0.7,2.7c-0.5,0.8-1.1,1.5-1.9,2
		C393.7,107.8,392.8,108.1,391.8,108.1z"/>
	<path class="st1" d="M405.4,108.1c-0.5,0-0.9-0.2-1.2-0.5c-0.3-0.3-0.5-0.8-0.5-1.3l-0.1-6c-1.4,0-2.7-1-3.1-2.4
		c-0.7-2.2-1-4.5-0.9-6.8v-4.2c1,0,1.9,0.3,2.6,0.9c0.8,0.6,1.5,1.4,1.9,2.3c0.5,0.9,0.7,1.9,0.7,2.9v6.4h0.6c0.8,0,1.7-0.3,2.3-0.9
		c0.3-0.3,0.5-0.6,0.6-1c0.1-0.5,0.2-0.9,0.2-1.4v-7.4c0-1,0.8-1.7,1.8-1.8c0.5,0,0.9,0.2,1.2,0.5c0.3,0.3,0.5,0.8,0.5,1.2v5.5
		c0,1-0.2,1.9-0.6,2.8s-1,1.7-1.7,2.3c-0.7,0.6-1.7,1-2.7,0.9v6.1C407.2,107.3,406.4,108.1,405.4,108.1L405.4,108.1z"/>
	<path class="st1" d="M429.5,108.1c-1,0-1.7-0.8-1.8-1.8V95.6c0-0.9-0.3-1.8-1-2.4c-0.6-0.7-1.5-1-2.4-1l-0.1,0.2l-0.1,13.9
		c0,1-0.8,1.8-1.8,1.8c-0.5,0-0.9-0.2-1.2-0.5c-0.3-0.3-0.5-0.8-0.5-1.3V92.2c0-0.9,0.2-1.9,0.7-2.7c0.9-1.6,2.7-2.6,4.6-2.6
		c0.9,0,1.9,0.2,2.7,0.7c0.8,0.5,1.5,1.1,1.9,1.9c0.5,0.8,0.7,1.7,0.7,2.7l0.1,14.1c-0.1,0.5-0.4,0.9-0.7,1.3
		C430.3,107.9,429.9,108.1,429.5,108.1z M436.4,108.1c-0.5,0-0.9-0.2-1.3-0.5c-0.3-0.3-0.5-0.8-0.5-1.2V95.6c0-0.9-0.3-1.8-1-2.4
		c-0.6-0.6-1.5-1-2.4-1h-3.5c0-0.9,0.2-1.9,0.7-2.7c0.9-1.6,2.6-2.6,4.5-2.6c2.9,0,5.3,2.3,5.3,5.3l0,0v14.1
		C438.1,107.3,437.3,108.1,436.4,108.1C436.4,108.1,436.3,108.1,436.4,108.1L436.4,108.1z"/>
	<path class="st1" d="M446.3,108.1c-2.1,0-4-1.1-5-2.9c-0.5-0.9-0.8-1.9-0.8-2.9v-9.6c0-1,0.3-2,0.8-2.9s1.2-1.6,2.1-2.1
		s1.9-0.8,2.9-0.8c2.6,0,4.9,1.8,5.5,4.3c0,0.1,0.1,0.2,0.1,0.3c0,0.3-0.1,0.6-0.4,0.8c-0.2,0.2-0.5,0.4-0.8,0.3h-0.4
		c-0.6,0-1.1-0.5-1.1-1.1l0,0v-0.7c0-0.7-0.3-1.3-0.8-1.8s-1.1-0.8-1.8-0.8c-0.7,0-1.4,0.3-1.9,0.8s-0.8,1.2-0.8,1.9l0.2,13.3
		c0,0.7,0.3,1.4,0.8,1.9s1.2,0.8,1.9,0.8c0.5,0,0.9-0.1,1.3-0.4c0.4-0.2,0.7-0.6,0.9-1.1l0.1-0.2c0.1-0.2,0.2-0.5,0.4-0.7
		c0.2-0.2,0.4-0.3,0.7-0.3c0.3,0,0.6,0,0.8,0.2c0.2,0.1,0.3,0.3,0.3,0.6c0,0.2-0.1,0.5-0.2,0.7C449.9,107.1,448.2,108,446.3,108.1
		L446.3,108.1z M443.6,98.9h5.9c0.2,0,0.5,0.1,0.6,0.3c0.3,0.3,0.3,0.9,0,1.2l0,0c-0.2,0.2-0.4,0.3-0.6,0.3h-5.9V98.9z"/>
	<path class="st1" d="M456,108.1c-0.5,0-0.9-0.2-1.2-0.5c-0.3-0.3-0.5-0.8-0.5-1.3V93c0-1.1,0.2-2.2,0.7-3.3
		c0.4-0.9,1.1-1.6,1.9-2.1c1.7-0.9,3.7-0.9,5.4,0c0.8,0.5,1.5,1.2,1.9,2.1c0.5,1,0.7,2.1,0.7,3.3v13.3c0,1-0.8,1.8-1.8,1.8
		s-1.8-0.8-1.8-1.8V102c0-0.3-0.1-0.5-0.3-0.7c-0.2-0.2-0.4-0.3-0.7-0.3h-1.6c-0.3,0-0.5,0.1-0.7,0.3c-0.2,0.2-0.3,0.4-0.3,0.7v4.3
		C457.8,107.3,457,108.1,456,108.1L456,108.1L456,108.1z M460.3,100.3c0.3,0,0.5-0.1,0.7-0.3c0.2-0.2,0.3-0.4,0.3-0.7v-6.6
		c0-1.9-1.5-3.4-3.4-3.4h-0.1v10c0,0.3,0.1,0.5,0.3,0.7c0.2,0.2,0.4,0.3,0.7,0.3H460.3z"/>
	<path class="st1" d="M468.9,108.1c-0.9-0.1-1.6-0.9-1.6-1.8V86.9c0.6,0,1.2,0.2,1.8,0.5c0.5,0.3,1,0.8,1.3,1.3s0.5,1.1,0.5,1.8
		v14.9c0,0.2,0.1,0.5,0.3,0.6c0.2,0.2,0.4,0.3,0.6,0.3h5.3c0.2,0,0.5,0.1,0.6,0.3c0.2,0.2,0.3,0.4,0.3,0.6s-0.1,0.5-0.3,0.7
		c-0.2,0.2-0.4,0.3-0.6,0.3L468.9,108.1z"/>
	<path class="st1" d="M60.5,231.4c-1.5,0-3-0.5-4.2-1.4s-2.1-2.1-2.6-3.6c0-0.2-0.1-0.3-0.1-0.5c0-0.4,0.2-0.9,0.5-1.1
		c0.3-0.3,0.7-0.5,1.1-0.5c0.9-0.1,1.6,0.6,1.7,1.5v0.1v0.1c0,0.5,0.2,0.9,0.5,1.2s0.8,0.5,1.2,0.5c0.5,0,0.9-0.2,1.3-0.5
		c0.3-0.3,0.5-0.8,0.5-1.3s-0.1-1-0.4-1.5c-0.3-0.4-0.7-0.8-1.1-1l-2.4-1.2c-0.3-0.2-0.6-0.4-0.9-0.6c-0.4-0.3-0.8-0.7-1.2-1.2
		c-0.3-0.5-0.6-1-0.7-1.5c-0.2-0.5-0.3-1.1-0.3-1.7c0-1.3,0.3-2.5,1-3.6c0.6-1.1,1.5-2,2.6-2.6c2.4-1.4,5.4-1.2,7.7,0.4
		c1.2,0.9,2.1,2.1,2.6,3.5c0,0.2,0.1,0.3,0.1,0.5c0,0.9-0.7,1.6-1.6,1.6s-1.6-0.7-1.6-1.6v-0.1c0-0.5-0.2-0.9-0.5-1.3
		c-0.3-0.3-0.8-0.5-1.3-0.5s-0.9,0.2-1.2,0.5s-0.5,0.8-0.5,1.3s0.1,1,0.4,1.5c0.2,0.4,0.6,0.8,1,1l2.4,1.2c1.9,0.9,3.1,2.9,3.1,5
		c0,1.3-0.3,2.5-1,3.6c-0.6,1.1-1.5,2-2.6,2.6C62.9,231.1,61.7,231.4,60.5,231.4z"/>
	<path class="st1" d="M77.5,231.4c-1.3,0-2.5-0.4-3.6-1s-2-1.5-2.6-2.6s-1-2.3-1-3.5v-7c0-1.2,0.4-2.5,1-3.5c0.6-1.1,1.5-2,2.6-2.6
		c3.4-2,7.7-0.8,9.7,2.6l0,0c0.6,1.1,1,2.3,1,3.5v7c0,1.2-0.4,2.5-1,3.5C82.3,230,80,231.4,77.5,231.4L77.5,231.4z M79.2,227.9
		c1,0,1.7-0.8,1.8-1.7c0,0,0,0,0-0.1v-10.5c0-1-0.7-1.8-1.7-1.8h-0.1c-0.5,0-0.9,0.2-1.2,0.5c-0.3,0.3-0.5,0.8-0.5,1.3v10.5
		c0,0.5,0.2,0.9,0.5,1.3C78.3,227.7,78.8,227.9,79.2,227.9z"/>
	<path class="st1" d="M108.7,231.4c-1,0-1.7-0.8-1.8-1.7l0,0v-8.9c0-0.9-0.4-1.8-1-2.4c-0.6-0.7-1.5-1-2.4-1h-0.1V228
		c0,1.9-1.5,3.5-3.5,3.5c0,0,0,0-0.1,0c-0.9,0-1.8-0.4-2.5-1.1c-0.7-0.7-1-1.6-1-2.5v-10.5c0-1.2,0.3-2.5,1-3.5
		c0.6-1.1,1.5-1.9,2.6-2.6c1.1-0.6,2.3-1,3.5-0.9c1.2,0,2.5,0.3,3.5,0.9c1.1,0.6,2,1.5,2.6,2.6s1,2.3,1,3.5v12.4
		c0,0.5-0.2,0.9-0.5,1.2C109.7,231.3,109.2,231.5,108.7,231.4z M115.7,231.4c-0.5,0-0.9-0.2-1.3-0.5c-0.3-0.3-0.5-0.8-0.5-1.2v-8.9
		c0-0.9-0.3-1.8-1-2.4c-0.6-0.7-1.5-1-2.4-1h-7.2c0-1.2,0.4-2.5,1-3.5c0.6-1.1,1.5-1.9,2.6-2.6c2.2-1.3,4.8-1.3,7,0
		c1.1,0.6,1.9,1.5,2.6,2.6c0.6,1.1,1,2.3,0.9,3.5v12.4C117.5,230.7,116.7,231.4,115.7,231.4L115.7,231.4L115.7,231.4z"/>
	<path class="st1" d="M123.4,231.4c-1.9,0-3.5-1.6-3.5-3.5v-10.6c0-1.2,0.4-2.5,1-3.5c0.6-1.1,1.5-1.9,2.6-2.6c2.2-1.3,4.8-1.3,7,0
		c1.1,0.6,1.9,1.5,2.6,2.6c0.6,1.1,1,2.3,0.9,3.5v12.4c0,1-0.8,1.8-1.8,1.8s-1.8-0.8-1.8-1.8v-4.3c0-0.3-0.1-0.5-0.3-0.7
		s-0.4-0.3-0.7-0.3h-1.6c-0.3,0-0.5,0.1-0.7,0.3s-0.3,0.4-0.3,0.7v2.5C126.9,229.8,125.4,231.4,123.4,231.4L123.4,231.4L123.4,231.4
		z M129.4,222.6c0.3,0,0.5-0.1,0.7-0.3s0.3-0.4,0.3-0.7v-0.9c0-1.9-1.5-3.4-3.4-3.4h-0.1v4.3c0,0.3,0.1,0.5,0.3,0.7
		c0.2,0.2,0.4,0.3,0.7,0.3L129.4,222.6L129.4,222.6z"/>
	<path class="st1" d="M140.7,231.4c-0.9,0-1.8-0.4-2.5-1.1c-0.7-0.7-1-1.6-1-2.5v-14c0-0.9,0.3-1.9,1-2.5c0.7-0.7,1.6-1,2.5-1
		c0.5,0,1.1,0.1,1.6,0.4c0.5,0.2,0.9,0.6,1.2,1c0.6-0.5,1.3-0.8,2-1.1c0.7-0.2,1.5-0.4,2.3-0.4c1.2,0,2.5,0.3,3.5,0.9
		c1.1,0.6,1.9,1.5,2.6,2.6c0.7,1.1,1,2.3,1,3.5v12.4c0,1-0.8,1.8-1.8,1.8s-1.8-0.8-1.8-1.8l0,0v-5.3c0-1.2-0.4-2.5-1-3.5
		c-0.6-1.1-1.5-2-2.6-2.6s-2.3-1-3.5-0.9v10.6c0,0.9-0.3,1.8-1,2.5C142.6,231.1,141.7,231.5,140.7,231.4z"/>
	<path class="st1" d="M165.1,231.4c-0.9,0-1.8-0.3-2.5-1s-1-1.6-1-2.5v-3.5c-1.1-1.1-2-2.5-2.6-4s-0.9-3-0.9-4.6v-5.5
		c1.2,0,2.5,0.3,3.5,0.9c1.1,0.6,1.9,1.5,2.6,2.6c0.6,1.1,1,2.3,1,3.5v5.4h0.1c1.3,0,2.5-0.8,3.1-2c0.2-0.4,0.3-0.9,0.3-1.4V212
		c0-0.5,0.2-0.9,0.5-1.2c0.7-0.7,1.8-0.7,2.5,0c0.3,0.3,0.5,0.8,0.5,1.3v5.5c0,0.8-0.1,1.6-0.4,2.4c-0.3,0.8-0.7,1.5-1.2,2.1
		s-1.1,1.1-1.8,1.5v4.3c0,1.9-1.6,3.5-3.5,3.5L165.1,231.4z"/>
	<path class="st2" d="M191.5,231.4c-1.2,0-2.5-0.4-3.5-1c-2.2-1.3-3.5-3.6-3.6-6.1v-7c0-1.3,0.3-2.5,0.9-3.6c0.6-1.1,1.5-2,2.6-2.6
		c2.4-1.4,5.5-1.3,7.7,0.4c1.2,0.9,2.1,2.1,2.5,3.6c0.1,0.2,0.1,0.3,0.1,0.5c0,0.4-0.2,0.9-0.5,1.2s-0.7,0.5-1.2,0.5
		c-0.4,0-0.8-0.2-1.1-0.5s-0.5-0.7-0.5-1.2v-0.1c0-0.5-0.2-0.9-0.5-1.3c-0.3-0.3-0.8-0.5-1.3-0.5s-0.9,0.2-1.2,0.5s-0.5,0.8-0.5,1.3
		V226c0,0.5,0.2,0.9,0.5,1.3c0.3,0.3,0.8,0.5,1.3,0.5s0.9-0.2,1.2-0.5s0.5-0.8,0.5-1.2v-2.7h0.9v0.9h-3.1c0-0.6,0.2-1.2,0.6-1.6
		c0.4-0.4,1-0.6,1.6-0.6h3.3v2.4c0,1.2-0.3,2.4-0.9,3.4c-0.6,1-1.4,1.9-2.4,2.5S192.7,231.4,191.5,231.4L191.5,231.4z"/>
	<path class="st1" d="M204.4,231.4c-0.9,0-1.8-0.4-2.5-1.1c-0.7-0.7-1-1.6-1-2.5v-14c0-1.9,1.5-3.5,3.5-3.5c0,0,0,0,0.1,0h3.4
		c1.3,0,2.5,0.3,3.6,0.9c1.1,0.6,2,1.5,2.6,2.6c0.7,1.1,1,2.3,1,3.5c0,1.1-0.2,2.2-0.8,3.2c-0.5,1-1.2,1.8-2.1,2.4
		c-0.9,0.7-1.9,1.1-2.9,1.3c-0.4,0.1-0.8,0.1-1.2,0.1v3.5C208,229.8,206.4,231.4,204.4,231.4C204.5,231.4,204.5,231.4,204.4,231.4
		L204.4,231.4z M215,231.4c-1.1,0-2.1-0.3-3.1-0.8c-0.9-0.5-1.7-1.3-2.3-2.2l-3.5-5.8h3.5L215,231.4z M208,222.6
		c0.6,0,1.2-0.2,1.7-0.5s0.9-0.7,1.3-1.2c0.3-0.5,0.5-1.1,0.5-1.7v-2c0-0.6-0.2-1.2-0.5-1.7s-0.7-0.9-1.3-1.3
		c-0.5-0.3-1.1-0.5-1.7-0.5l0,0V222.6L208,222.6z"/>
	<path class="st1" d="M224.7,231.4c-1.2,0-2.5-0.4-3.5-1c-1.1-0.6-2-1.5-2.6-2.6s-1-2.3-1-3.6v-6.9c0-1.3,0.3-2.5,0.9-3.6
		c0.6-1.1,1.5-2,2.6-2.6c1.1-0.7,2.3-1,3.5-1c1.6,0,3.1,0.5,4.3,1.5c1.2,0.9,2.1,2.3,2.5,3.8c0,0.1,0.1,0.2,0.1,0.4
		c0,0.4-0.2,0.7-0.4,1c-0.3,0.3-0.6,0.4-1,0.4h-0.5c-0.4,0-0.7-0.1-1-0.4c-0.3-0.3-0.4-0.6-0.4-1v-0.3c0-0.5-0.2-0.9-0.5-1.2
		s-0.8-0.5-1.2-0.5c-0.5,0-0.9,0.2-1.3,0.5c-0.3,0.3-0.5,0.8-0.5,1.3V226c0,0.5,0.2,0.9,0.5,1.3c0.6,0.6,1.5,0.7,2.2,0.2
		c0.3-0.2,0.5-0.4,0.6-0.7l0.1-0.2c0.1-0.2,0.3-0.3,0.5-0.4c0.2-0.1,0.4-0.2,0.6-0.1c0.4,0,0.7,0.2,1,0.4c0.3,0.3,0.4,0.6,0.4,1
		c0,0.3-0.1,0.6-0.3,0.8c-0.6,0.9-1.5,1.7-2.5,2.2C226.9,231.1,225.8,231.4,224.7,231.4z M220.7,221.4h7.5c1,0,1.8,0.8,1.8,1.8
		s-0.8,1.8-1.8,1.8h-7.5V221.4z"/>
	<path class="st1" d="M238,231.4c-1.9,0-3.5-1.6-3.5-3.5l0,0v-10.6c0-1.2,0.3-2.5,0.9-3.5c0.6-1.1,1.5-1.9,2.6-2.6
		c2.2-1.3,4.8-1.3,7,0c1.1,0.6,1.9,1.5,2.6,2.6c0.6,1.1,1,2.3,0.9,3.5v12.4c-0.1,1-0.9,1.7-1.9,1.6c-0.9-0.1-1.6-0.8-1.6-1.6v-4.3
		c0-0.3-0.1-0.5-0.3-0.7s-0.4-0.3-0.7-0.3h-1.6c-0.3,0-0.5,0.1-0.7,0.3s-0.3,0.4-0.3,0.7v2.5C241.5,229.8,239.9,231.4,238,231.4
		L238,231.4L238,231.4z M244.1,222.6c0.3,0,0.5-0.1,0.7-0.3s0.3-0.4,0.3-0.7v-0.9c0-1.9-1.5-3.4-3.4-3.4h-0.1v4.3
		c0,0.3,0.1,0.5,0.3,0.7s0.4,0.3,0.7,0.3L244.1,222.6L244.1,222.6z"/>
	<path class="st1" d="M253.6,214.3c-1.9,0-3.5-1.5-3.5-3.5c0,0,0,0,0-0.1h17.6c0,0.9-0.3,1.8-1,2.5c-0.6,0.7-1.5,1-2.5,1
		L253.6,214.3z M258.9,231.4c-0.9,0-1.8-0.3-2.5-1c-0.7-0.6-1-1.5-1-2.5V212h7v15.9C262.4,229.9,260.8,231.4,258.9,231.4
		L258.9,231.4z"/>
	<path class="st1" d="M280.6,214.3c-1.9,0-3.5-1.6-3.5-3.5l0,0h17.6c0,0.9-0.3,1.8-1,2.5s-1.6,1-2.5,1H280.6z M285.9,231.4
		c-1.9,0-3.5-1.6-3.5-3.5l0,0v-15.8h7V228C289.3,229.9,287.8,231.4,285.9,231.4L285.9,231.4z"/>
	<path class="st1" d="M303.1,231.4c-0.9,0-1.8-0.3-2.5-1c-0.7-0.6-1.1-1.6-1-2.5v-3.5c-2.2-2.3-3.5-5.4-3.5-8.6v-5.6
		c1.2,0,2.5,0.3,3.5,0.9c1.1,0.6,1.9,1.5,2.6,2.6c0.6,1.1,1,2.3,1,3.5v5.4h0.1c0.8,0,1.7-0.3,2.3-0.9c0.3-0.3,0.6-0.7,0.8-1.1
		c0.2-0.4,0.3-0.9,0.3-1.4V212c0-1,0.8-1.8,1.8-1.8s1.8,0.8,1.8,1.8v5.5c0,0.8-0.1,1.6-0.4,2.4c-0.3,0.8-0.7,1.5-1.2,2.1
		s-1.1,1.1-1.8,1.5v4.3c0,0.9-0.3,1.8-1,2.5C304.9,231.1,304,231.5,303.1,231.4z"/>
	<path class="st1" d="M316.5,231.4c-0.9,0-1.8-0.4-2.5-1.1c-0.7-0.7-1-1.6-1-2.5v-14c0-1.9,1.5-3.5,3.5-3.5c0,0,0,0,0.1,0h3.5
		c1.3,0,2.5,0.3,3.6,0.9c1.1,0.6,2,1.5,2.6,2.6c0.7,1.1,1,2.3,1,3.5c0,1.1-0.3,2.2-0.8,3.2s-1.2,1.8-2.1,2.5s-1.9,1.1-3,1.3
		c-0.4,0-0.7,0.2-0.9,0.5c-0.2,0.3-0.4,0.6-0.4,1v2.1c0,1.9-1.6,3.5-3.5,3.5C316.6,231.4,316.6,231.4,316.5,231.4L316.5,231.4z
		 M320.1,222.6c0.6,0,1.2-0.2,1.7-0.5s0.9-0.7,1.2-1.2c0.3-0.5,0.5-1.1,0.5-1.7v-2c0-0.6-0.2-1.2-0.5-1.7s-0.7-0.9-1.3-1.3
		c-0.5-0.3-1.1-0.5-1.7-0.5h0v8.8L320.1,222.6z"/>
	<path class="st1" d="M336.7,231.4c-1.2,0-2.5-0.4-3.5-1c-1.1-0.6-2-1.5-2.6-2.6s-1-2.3-1-3.6v-6.9c0-1.3,0.3-2.5,1-3.6
		c0.6-1.1,1.5-2,2.6-2.6s2.3-1,3.5-1c1.6,0,3.1,0.5,4.3,1.5c1.2,0.9,2.1,2.3,2.5,3.8c0,0.1,0.1,0.2,0.1,0.4c0,0.4-0.2,0.7-0.4,1
		c-0.3,0.3-0.6,0.4-1,0.4h-0.5c-0.4,0-0.7-0.1-1-0.4c-0.3-0.3-0.4-0.6-0.4-1v-0.3c0-0.5-0.2-0.9-0.5-1.2s-0.7-0.5-1.2-0.5
		s-1,0.2-1.3,0.5s-0.5,0.8-0.5,1.3V226c0,0.5,0.2,0.9,0.5,1.3c0.3,0.3,0.8,0.5,1.3,0.5c0.3,0,0.6-0.1,0.9-0.3s0.5-0.4,0.6-0.7
		l0.1-0.2c0.1-0.2,0.3-0.3,0.5-0.4c0.2-0.1,0.4-0.2,0.6-0.1c0.4,0,0.7,0.2,1,0.4c0.3,0.3,0.4,0.6,0.4,1c0,0.3-0.1,0.6-0.3,0.8
		c-0.6,1-1.4,1.7-2.4,2.3C339,231.1,337.9,231.4,336.7,231.4z M332.7,221.4h7.5c1,0,1.8,0.8,1.8,1.8s-0.8,1.8-1.8,1.8h-7.5V221.4z"
		/>
	<path class="st1" d="M353.5,231.4c-3.1,0-5.8-2-6.7-4.9c0-0.2-0.1-0.3-0.1-0.5c0-0.9,0.8-1.6,1.7-1.6c0.4,0,0.8,0.2,1.1,0.5
		c0.3,0.3,0.5,0.7,0.5,1.2v0.1c0,1,0.8,1.7,1.7,1.8l0,0c0.5,0,0.9-0.2,1.3-0.5c0.3-0.3,0.5-0.8,0.5-1.3s-0.1-1-0.4-1.5
		c-0.3-0.4-0.7-0.8-1.1-1l-2.4-1.2c-0.3-0.2-0.6-0.4-0.9-0.6c-0.4-0.3-0.8-0.7-1.1-1.2c-0.3-0.5-0.6-1-0.7-1.5
		c-0.2-0.5-0.3-1.1-0.3-1.7c0-1.3,0.3-2.5,1-3.6c0.6-1.1,1.5-2,2.6-2.6c2.4-1.4,5.4-1.2,7.7,0.4c1.2,0.9,2.1,2.1,2.5,3.5
		c0,0.2,0.1,0.3,0.1,0.5c0,0.4-0.2,0.8-0.5,1.1c-0.7,0.6-1.7,0.6-2.3-0.1c-0.3-0.3-0.5-0.7-0.5-1.1v-0.1c0-0.9-0.7-1.7-1.7-1.8h-0.1
		c-0.5,0-0.9,0.2-1.2,0.5c-0.3,0.3-0.5,0.8-0.5,1.3s0.1,1,0.4,1.5c0.3,0.4,0.7,0.8,1.1,1.1l2.4,1.2c1.9,0.9,3.1,2.9,3.1,5
		c0,1.3-0.3,2.5-1,3.6c-0.6,1.1-1.5,2-2.6,2.6C355.9,231.1,354.7,231.4,353.5,231.4z"/>
	<path class="st1" d="M377.1,231.4c-1.9,0-3.5-1.6-3.5-3.5v-10.6c0-1.2,0.3-2.5,1-3.5c0.6-1.1,1.5-1.9,2.6-2.6c2.2-1.3,4.8-1.3,7,0
		c1.1,0.6,1.9,1.5,2.6,2.6c0.6,1.1,1,2.3,1,3.5v12.4c0,1-0.8,1.8-1.8,1.8s-1.8-0.8-1.8-1.8v-4.3c0-0.3-0.1-0.5-0.3-0.7
		c-0.2-0.2-0.4-0.3-0.7-0.3h-1.6c-0.6,0-1,0.4-1,1v2.5C380.6,229.9,379,231.5,377.1,231.4C377.1,231.5,377.1,231.5,377.1,231.4
		L377.1,231.4z M383.2,222.6c0.3,0,0.5-0.1,0.7-0.3s0.3-0.4,0.3-0.7v-0.9c0-1.9-1.5-3.4-3.4-3.4h-0.1v4.3c0,0.6,0.4,1,1,1
		L383.2,222.6z"/>
	<path class="st1" d="M394.5,231.4c-0.9,0-1.8-0.4-2.5-1.1c-0.7-0.7-1-1.6-1-2.5v-14c0-0.9,0.3-1.9,1-2.5c0.7-0.7,1.6-1,2.5-1
		c0.5,0,1.1,0.1,1.6,0.4c0.5,0.2,0.9,0.6,1.2,1c0.6-0.5,1.3-0.8,2-1.1c0.7-0.2,1.5-0.4,2.3-0.4c1.2,0,2.5,0.3,3.5,0.9
		c1.1,0.6,1.9,1.5,2.6,2.6s1,2.3,1,3.5v12.4c-0.1,1-0.9,1.7-1.9,1.6c-0.9-0.1-1.6-0.8-1.6-1.6v-5.3c0-1.2-0.3-2.5-1-3.5
		c-0.6-1.1-1.5-2-2.6-2.6s-2.3-1-3.5-0.9v10.6c0,0.9-0.3,1.8-1,2.5C396.4,231.1,395.5,231.5,394.5,231.4z"/>
	<path class="st1" d="M415.3,231.4c-0.8,0-1.5-0.2-2.1-0.7s-1.1-1.1-1.3-1.9c0-0.2-0.1-0.3-0.1-0.5s0-0.3,0-0.5v-14.1
		c0-0.3,0-0.7,0.1-1c0.2-0.7,0.7-1.4,1.3-1.8c0.6-0.5,1.4-0.7,2.1-0.7h3.5c1.9,0,3.7,0.5,5.3,1.4c1.6,0.9,2.9,2.3,3.9,3.9
		c1.9,3.3,1.9,7.3,0,10.6c-0.9,1.6-2.3,2.9-3.9,3.9c-1.6,0.9-3.4,1.4-5.3,1.4L415.3,231.4z M415.3,227.9c0.6,0,1.2-0.2,1.8-0.5
		c0.5-0.3,1-0.8,1.3-1.3s0.5-1.1,0.5-1.8v-7.1c0-0.6-0.2-1.2-0.5-1.8c-0.3-0.5-0.8-1-1.3-1.3s-1.1-0.5-1.8-0.5V227.9z"/>
	<path class="st2" d="M449.4,231.4c-1.2,0-2.5-0.4-3.5-1c-1.1-0.6-2-1.5-2.6-2.6s-1-2.3-1-3.5v-7.1c0-1.2,0.3-2.5,1-3.5
		c0.6-1.1,1.5-1.9,2.6-2.6c1.1-0.6,2.3-1,3.5-0.9h3.6c0.9,0,1.8,0.3,2.5,1s1,1.6,1,2.5c0,1.9-1.6,3.5-3.5,3.5h-5.1v-1.4h1.5V231.4z
		 M445.4,221.4h7.6c1,0,1.8,0.8,1.8,1.8S454,225,453,225h-7.5L445.4,221.4z"/>
	<path class="st1" d="M462.3,231.4c-0.9-0.1-1.7-0.5-2.3-1.1c-0.6-0.6-1-1.5-1-2.4v-17.6c1.2,0,2.5,0.3,3.5,1c1.1,0.6,2,1.5,2.6,2.6
		c0.7,1.1,1,2.3,1,3.6v6.9v1.8c0,0.5,0.2,0.9,0.5,1.3c0.3,0.3,0.8,0.5,1.3,0.5h3.5c0.5,0,0.9,0.2,1.2,0.5c0.3,0.3,0.5,0.8,0.5,1.2
		c0,1-0.7,1.8-1.7,1.8h-0.1L462.3,231.4z"/>
	<path class="st1" d="M478.4,231.4c-1.9,0-3.5-1.6-3.5-3.5v-10.6c0-1.2,0.3-2.5,1-3.5c0.6-1.1,1.5-1.9,2.6-2.6c2.2-1.3,4.8-1.3,7,0
		c1.1,0.6,1.9,1.5,2.6,2.6c0.6,1.1,1,2.3,1,3.5v12.4c0,1-0.8,1.8-1.8,1.8s-1.8-0.8-1.8-1.8v-4.3c0-0.3-0.1-0.5-0.3-0.7
		c-0.2-0.2-0.4-0.3-0.7-0.3h-1.6c-0.3,0-0.5,0.1-0.7,0.3s-0.3,0.4-0.3,0.7v2.5C481.9,229.8,480.4,231.4,478.4,231.4L478.4,231.4
		L478.4,231.4z M484.5,222.6c0.3,0,0.5-0.1,0.7-0.3s0.3-0.4,0.3-0.7v-0.9c0-1.9-1.5-3.4-3.4-3.4H482v4.3c0,0.3,0.1,0.5,0.3,0.7
		c0.2,0.2,0.4,0.3,0.7,0.3L484.5,222.6L484.5,222.6z"/>
	<path class="st1" d="M495.9,231.4c-0.9,0-1.8-0.3-2.5-1s-1-1.5-1-2.5v-14.1c0-0.9,0.3-1.8,1-2.5s1.6-1,2.5-1s1.8,0.3,2.5,1
		s1,1.6,1,2.5v10.5l5.5-10.9c0.5-1,1.2-1.8,2.1-2.3c0.9-0.6,1.9-0.9,3-0.9l-9,18c-0.5,1-1.2,1.7-2.1,2.3
		C497.9,231.1,496.9,231.4,495.9,231.4z"/>
	<path class="st2" d="M517.2,231.4c-2.5,0-4.9-1.3-6.2-3.5c-0.6-1.1-1-2.3-1-3.5v-7c0-1.2,0.3-2.5,1-3.5c1.3-2.2,3.6-3.5,6.1-3.5
		c1.2,0,2.5,0.3,3.5,0.9c1.1,0.6,2,1.5,2.6,2.6s1,2.3,1,3.5v7c0,1.2-0.4,2.5-1,3.5c-0.6,1.1-1.5,2-2.6,2.6
		C519.6,231.1,518.4,231.4,517.2,231.4z M518.9,227.9c0.5,0,0.9-0.2,1.3-0.5c0.3-0.3,0.5-0.8,0.5-1.3v-10.5c0-0.5-0.2-0.9-0.5-1.3
		c-0.3-0.3-0.8-0.5-1.3-0.5s-0.9,0.2-1.2,0.5s-0.5,0.8-0.5,1.3v10.5c0,0.5,0.2,0.9,0.5,1.3C518,227.7,518.5,227.9,518.9,227.9z"/>
	<path class="st1" d="M530.6,231.4c-0.9,0-1.8-0.4-2.5-1.1c-0.7-0.7-1-1.6-1-2.5v-14c0-1.9,1.5-3.5,3.4-3.5h0.1h3.4
		c1.3,0,2.5,0.3,3.6,0.9c1.1,0.6,2,1.5,2.6,2.6c0.7,1.1,1,2.3,1,3.5c0,1.1-0.2,2.2-0.8,3.2c-0.5,1-1.2,1.8-2.1,2.5
		c-0.9,0.7-1.9,1.1-3,1.3c-0.4,0.1-0.8,0.1-1.2,0.1l-0.1,3.5C534,229.8,532.5,231.4,530.6,231.4
		C530.7,231.5,530.7,231.5,530.6,231.4L530.6,231.4z M541.2,231.4c-1.1,0-2.1-0.3-3.1-0.8c-0.9-0.5-1.7-1.3-2.3-2.2l-3.5-5.8h3.5
		L541.2,231.4z M534.2,222.6c0.6,0,1.2-0.2,1.7-0.5s0.9-0.7,1.3-1.2c0.3-0.5,0.5-1.1,0.5-1.7v-2c0-0.6-0.2-1.2-0.5-1.7
		s-0.7-0.9-1.3-1.3c-0.5-0.3-1.1-0.5-1.7-0.5h-0.1L534.2,222.6L534.2,222.6z"/>
	<path class="st1" d="M550.8,231.4c-3.1,0-5.8-2-6.7-4.9c-0.1-0.2-0.1-0.3-0.1-0.5c0-0.9,0.8-1.6,1.7-1.6c0.4,0,0.8,0.2,1.1,0.5
		s0.5,0.7,0.5,1.2v0.1c0,1,0.7,1.8,1.7,1.8l0,0c0.5,0,0.9-0.2,1.3-0.5c0.3-0.3,0.5-0.8,0.5-1.3s-0.1-1-0.4-1.5
		c-0.3-0.4-0.7-0.8-1.1-1l-2.4-1.2c-0.3-0.2-0.6-0.4-0.9-0.6c-0.4-0.3-0.8-0.7-1.2-1.2c-0.3-0.5-0.6-1-0.7-1.5
		c-0.2-0.5-0.3-1.1-0.3-1.7c0-1.3,0.3-2.5,1-3.6c0.6-1.1,1.5-2,2.6-2.6c2.4-1.4,5.4-1.2,7.7,0.4c1.2,0.9,2.1,2.1,2.5,3.5
		c0,0.2,0.1,0.3,0.1,0.5c0,0.4-0.2,0.8-0.5,1.1c-0.7,0.6-1.7,0.6-2.3,0c-0.3-0.3-0.5-0.7-0.5-1.1v-0.1c0-1-0.8-1.7-1.7-1.8h-0.1
		c-0.5,0-0.9,0.2-1.2,0.5s-0.5,0.8-0.5,1.3s0.1,1,0.4,1.5c0.3,0.4,0.7,0.8,1.1,1.1l2.4,1.2c1.9,0.9,3.1,2.9,3.1,5
		c0,1.3-0.3,2.5-1,3.6c-0.6,1.1-1.5,2-2.6,2.6C553.2,231.1,552,231.4,550.8,231.4z"/>
	<path class="st1" d="M95.6,267.7c-0.5,0-0.9-0.2-1.3-0.5c-0.3-0.3-0.5-0.8-0.5-1.3v-17.6c0-0.5,0.2-0.9,0.5-1.2s0.8-0.5,1.3-0.5
		s0.9,0.2,1.2,0.5c0.3,0.3,0.5,0.8,0.5,1.2v17.6c0,0.5-0.2,0.9-0.5,1.3C96.5,267.5,96.1,267.7,95.6,267.7z M100.9,262.1
		c0-0.4-0.1-0.7-0.4-1s-0.6-0.5-1-0.6c-0.8-0.1-1.5-0.4-2.2-0.8v-3.4c0,0.5,0.1,1,0.3,1.4c0.2,0.4,0.5,0.8,0.8,1.1
		c0.6,0.6,1.5,0.9,2.3,0.9h0.1L100.9,262.1z M102.6,267.7c-0.5,0-0.9-0.2-1.3-0.5c-0.3-0.3-0.5-0.8-0.5-1.2v-17.6
		c0-0.5,0.2-0.9,0.5-1.2s0.8-0.5,1.3-0.5c1,0,1.7,0.8,1.8,1.7l0,0V266c0,0.5-0.2,0.9-0.5,1.2C103.6,267.5,103.1,267.7,102.6,267.7z"
		/>
	<path class="st1" d="M112.5,267.7c-0.9,0-1.8-0.2-2.7-0.7c-0.8-0.5-1.4-1.2-1.9-2s-0.7-1.7-0.7-2.7v-10.5c0-0.9,0.2-1.8,0.7-2.6
		c1.5-2.5,4.7-3.4,7.2-1.9c0.8,0.5,1.5,1.1,1.9,1.9c0.5,0.8,0.7,1.7,0.7,2.6v10.6c0,0.9-0.2,1.9-0.7,2.7c-0.5,0.8-1.1,1.5-2,2
		C114.4,267.5,113.5,267.7,112.5,267.7z M112.5,264.9c0.7,0,1.3-0.2,1.8-0.7c0.5-0.4,0.7-1.1,0.7-1.7v-10.8c0-0.6-0.2-1.3-0.7-1.7
		c-0.5-0.5-1.1-0.7-1.8-0.7c-0.6,0-1.2,0.2-1.7,0.7s-0.7,1.1-0.7,1.7v10.8c0,0.6,0.2,1.3,0.7,1.7S111.9,264.9,112.5,264.9
		L112.5,264.9z"/>
	<path class="st1" d="M129.6,246.5c0.4,0,0.8,0.2,1.1,0.5c0.3,0.4,0.5,0.8,0.7,1.3l-0.1,14.1c0,0.9-0.2,1.8-0.7,2.6
		c-0.5,0.8-1.1,1.5-1.9,1.9c-1.7,0.9-3.7,0.9-5.3,0c-0.8-0.5-1.5-1.2-1.9-2c-0.5-0.8-0.7-1.7-0.7-2.7v-14c0-0.5,0.2-0.9,0.5-1.3
		c0.3-0.3,0.8-0.5,1.2-0.5c1,0,1.8,0.8,1.8,1.8l0.1,13.9l0.1,0.2c0.9,0,1.8-0.3,2.4-1c0.7-0.6,1-1.5,1-2.4v-10.7
		C127.8,247.3,128.6,246.5,129.6,246.5L129.6,246.5z M136.5,246.5c1,0,1.7,0.8,1.8,1.8v14.1c0,0.9-0.2,1.9-0.7,2.7
		c-0.5,0.8-1.1,1.5-1.9,1.9c-0.8,0.5-1.7,0.7-2.7,0.7c-0.9,0-1.8-0.2-2.6-0.7s-1.4-1.1-1.9-1.9s-0.7-1.7-0.7-2.7h3.5
		c0.9,0,1.8-0.4,2.4-1c0.7-0.6,1-1.5,1-2.4v-10.7C134.7,247.3,135.5,246.5,136.5,246.5L136.5,246.5L136.5,246.5z"/>
	<path class="st1" d="M149.8,267.7c-0.4,0-0.7-0.1-1-0.3c-0.3-0.2-0.5-0.5-0.6-0.8c0-0.1,0-0.5-0.1-1.1s-0.1-1-0.1-1.3v-14.1
		c0-0.3,0-0.8,0.1-1.3s0.1-0.9,0.1-1c0.1-0.3,0.3-0.6,0.6-0.8s0.6-0.3,1-0.3h1.4c1.9,0,3.7,0.5,5.3,1.4s2.9,2.3,3.9,3.9
		c1.9,3.3,1.9,7.3,0,10.6c-0.9,1.6-2.3,2.9-3.9,3.9c-1.6,0.9-3.4,1.4-5.3,1.4L149.8,267.7z M151.7,265.9c0.8,0,1.5-0.2,2.2-0.6
		s1.2-0.9,1.6-1.6c0.4-0.7,0.6-1.4,0.6-2.2v-8.8c0-0.8-0.2-1.5-0.6-2.2c-0.4-0.7-1-1.2-1.6-1.6c-0.7-0.4-1.4-0.6-2.2-0.6V265.9z"/>
	<path class="st1" d="M169.9,267.7c-0.9,0-1.9-0.2-2.7-0.7s-1.4-1.1-1.9-1.9s-0.7-1.7-0.7-2.7v-10.6c0-0.9,0.2-1.8,0.7-2.6
		c0.9-1.6,2.7-2.6,4.6-2.6c0.9,0,1.9,0.2,2.7,0.7s1.5,1.1,1.9,1.9c0.5,0.8,0.7,1.7,0.7,2.6v10.6c0,0.9-0.2,1.9-0.7,2.7
		c-0.5,0.8-1.1,1.4-1.9,1.9C171.8,267.4,170.8,267.7,169.9,267.7z M169.9,264.9c0.7,0,1.3-0.2,1.8-0.7c0.5-0.4,0.7-1.1,0.7-1.7
		v-10.8c0-0.6-0.2-1.3-0.7-1.7c-0.5-0.5-1.1-0.7-1.8-0.7c-0.6,0-1.2,0.2-1.7,0.7s-0.7,1.1-0.7,1.7v10.8c0,0.6,0.2,1.3,0.7,1.7
		S169.3,264.9,169.9,264.9L169.9,264.9z"/>
	<path class="st1" d="M190.6,267.7c-1,0-1.8-0.8-1.8-1.8l0,0l-0.1-6c-1.4,0-2.7-1-3.1-2.4c-0.7-2.2-1-4.5-0.9-6.9v-4.2
		c0.9,0,1.9,0.3,2.6,0.9c0.8,0.6,1.5,1.4,1.9,2.3c0.5,0.9,0.7,1.9,0.7,2.9v6.5h0.6c0.9,0,1.7-0.3,2.3-0.9c0.3-0.3,0.5-0.6,0.6-1
		c0.1-0.5,0.2-0.9,0.3-1.4v-7.4c0-1,0.8-1.7,1.7-1.8l0,0c1,0,1.7,0.8,1.8,1.8v5.5c0,0.9-0.2,1.9-0.6,2.8c-0.4,0.9-1,1.7-1.7,2.3
		c-0.7,0.6-1.7,0.9-2.6,0.9v6.1c0,0.5-0.2,0.9-0.5,1.3C191.5,267.5,191.1,267.7,190.6,267.7z"/>
	<path class="st1" d="M205.5,267.7c-0.9,0-1.9-0.2-2.7-0.7s-1.4-1.2-1.9-2s-0.7-1.7-0.7-2.7v-10.5c0-0.9,0.2-1.8,0.7-2.6
		s1.1-1.5,1.9-1.9c1.6-0.9,3.7-0.9,5.3,0c0.8,0.5,1.5,1.1,1.9,1.9c0.5,0.8,0.7,1.7,0.7,2.6v10.6c0,0.9-0.2,1.9-0.7,2.7
		c-0.5,0.8-1.1,1.5-2,2C207.4,267.5,206.5,267.7,205.5,267.7z M205.5,264.9c1.3,0,2.4-1,2.4-2.3v-0.1v-10.8c0-0.6-0.2-1.3-0.7-1.7
		c-0.5-0.5-1.1-0.7-1.8-0.7c-0.6,0-1.2,0.2-1.7,0.7s-0.7,1.1-0.7,1.7v10.8c0,0.6,0.2,1.3,0.7,1.7
		C204.3,264.6,204.9,264.9,205.5,264.9L205.5,264.9z"/>
	<path class="st1" d="M219,267.7c-0.9,0-1.8-0.2-2.6-0.7s-1.5-1.1-2-1.9s-0.7-1.7-0.7-2.6v-14.1c0-0.5,0.2-0.9,0.5-1.3
		c0.6-0.7,1.7-0.7,2.4-0.1c0,0,0,0,0.1,0.1c0.3,0.3,0.5,0.8,0.5,1.3v13.4c0,0.4,0.2,0.9,0.5,1.2c0.3,0.3,0.8,0.5,1.2,0.6
		c0.5,0,0.9-0.2,1.3-0.5c0.3-0.3,0.5-0.8,0.5-1.3l0.1-13.3c0-0.5,0.2-1,0.5-1.3c0.3-0.4,0.8-0.5,1.3-0.5s0.9,0.2,1.2,0.5
		s0.5,0.8,0.5,1.2l-0.1,14.1c0,0.9-0.2,1.8-0.7,2.6c-0.5,0.8-1.1,1.5-1.9,2C220.8,267.4,219.9,267.7,219,267.7z"/>
	<path class="st1" d="M239.9,267.7c-1,0-2-0.3-2.9-0.8s-1.6-1.2-2.1-2.1s-0.8-1.9-0.8-2.9v-9.6c0-1,0.3-2,0.8-2.9s1.2-1.6,2.1-2.1
		c0.9-0.5,1.9-0.8,2.9-0.8c1.2,0,2.4,0.4,3.4,1.1c1,0.7,1.7,1.7,2.1,2.8c0,0.2,0.1,0.4,0.1,0.6c0,0.3-0.1,0.6-0.4,0.8
		c-0.2,0.2-0.5,0.4-0.8,0.4h-0.4c-0.3,0-0.6-0.1-0.8-0.4c-0.2-0.2-0.3-0.5-0.3-0.8v-0.7c0-0.7-0.3-1.3-0.8-1.8s-1.1-0.8-1.8-0.8
		s-1.4,0.3-1.9,0.8s-0.8,1.2-0.8,1.9l0.2,13.3c0,0.7,0.3,1.4,0.8,1.9s1.2,0.8,1.9,0.8c1,0,1.8-0.6,2.3-1.5l0.1-0.2
		c0.1-0.2,0.2-0.5,0.4-0.7s0.4-0.3,0.7-0.3s0.6,0.1,0.8,0.3c0.2,0.2,0.3,0.4,0.3,0.7c0,0.2-0.1,0.4-0.2,0.6c-0.5,0.7-1.2,1.3-2,1.7
		C241.7,267.5,240.8,267.7,239.9,267.7z M237.1,258.6h5.9c0.2,0,0.5,0.1,0.6,0.3c0.3,0.3,0.3,0.9,0,1.2c-0.2,0.2-0.4,0.3-0.6,0.3
		h-5.9V258.6z"/>
	<path class="st1" d="M250.3,267.7c-0.5,0-0.9-0.2-1.3-0.5c-0.3-0.3-0.5-0.8-0.5-1.2v-17.6c0-0.5,0.2-0.9,0.5-1.2s0.8-0.5,1.3-0.5
		c1,0,1.7,0.8,1.8,1.8v12.4l5.5-10.9c1-1.9,2.9-3.2,5.1-3.2l-9,18c-0.4,0.9-1,1.6-1.6,2.3C251.6,267.3,251,267.6,250.3,267.7z"/>
	<path class="st1" d="M269.5,267.7c-1,0-2-0.3-2.9-0.8s-1.6-1.2-2.1-2.1s-0.8-1.9-0.8-2.9v-9.6c0-1,0.3-2,0.8-2.9s1.2-1.6,2.1-2.1
		s1.9-0.8,2.9-0.8c1.2,0,2.4,0.4,3.4,1.1c1,0.7,1.7,1.7,2.1,2.8c0,0.2,0.1,0.4,0.1,0.6c0,0.3-0.1,0.6-0.4,0.8
		c-0.2,0.2-0.5,0.4-0.8,0.4h-0.4c-0.3,0-0.6-0.1-0.8-0.4c-0.2-0.2-0.3-0.5-0.3-0.8v-0.7c0-0.7-0.3-1.3-0.8-1.8s-1.1-0.8-1.8-0.8
		c-0.7,0-1.4,0.3-1.9,0.8s-0.8,1.2-0.8,1.9l0.2,13.3c0,0.7,0.3,1.4,0.8,1.9s1.2,0.8,1.9,0.8c0.5,0,0.9-0.1,1.3-0.4
		c0.4-0.2,0.7-0.6,0.9-1l0.1-0.2c0.1-0.2,0.2-0.5,0.4-0.7c0.2-0.2,0.4-0.3,0.7-0.3c0.3,0,0.6,0.1,0.8,0.3c0.2,0.2,0.3,0.4,0.3,0.7
		c0,0.2-0.1,0.4-0.2,0.6c-0.5,0.7-1.2,1.3-2,1.7C271.3,267.5,270.4,267.7,269.5,267.7z M266.8,258.6h5.9c0.2,0,0.5,0.1,0.6,0.3
		c0.3,0.3,0.3,0.9,0,1.2c-0.2,0.2-0.4,0.3-0.6,0.3h-5.9V258.6z"/>
	<path class="st2" d="M279.9,267.7c-0.5,0-0.9-0.2-1.2-0.5c-0.3-0.3-0.5-0.8-0.5-1.3v-17.6c0-0.5,0.2-0.9,0.5-1.3
		c0.3-0.3,0.8-0.5,1.3-0.5c0.3,0,0.5,0.1,0.8,0.2c0.2,0.1,0.4,0.3,0.6,0.5c0.5-0.3,1-0.5,1.6-0.6c0.7-0.1,1.5-0.1,2.3-0.1
		c1.2,0,2.5,0.3,3.5,0.9c1.1,0.6,2,1.5,2.6,2.6s1,2.3,1,3.5v12.4c0,0.5-0.2,0.9-0.5,1.2c-0.7,0.7-1.8,0.7-2.5,0
		c-0.3-0.3-0.5-0.8-0.5-1.2v-8.6c0-1.2-0.3-2.5-1-3.5c-0.6-1.1-1.5-2-2.6-2.6s-2.3-1-3.5-0.9V266c0,0.5-0.2,0.9-0.5,1.2
		C280.8,267.5,280.4,267.7,279.9,267.7z"/>
	<path class="st1" d="M307.6,267.7c-0.9,0-1.9-0.2-2.7-0.7c-0.8-0.5-1.5-1.1-2-2c-0.5-0.8-0.8-1.7-0.8-2.7v-10.4
		c0-0.9,0.3-1.9,0.7-2.7c0.5-0.8,1.2-1.5,2-1.9c0.8-0.5,1.8-0.7,2.7-0.7c1.3,0,2.6,0.3,3.7,1.1c1,0.7,1.7,1.7,2.1,2.8
		c0,0.2,0.1,0.4,0.1,0.6c0,0.3-0.1,0.6-0.3,0.8c-0.2,0.2-0.5,0.4-0.8,0.4H312c-0.3,0-0.6-0.1-0.8-0.4c-0.2-0.2-0.3-0.5-0.3-0.8v-0.6
		c0-0.7-0.3-1.4-0.8-1.8c-0.5-0.5-1.1-0.8-1.8-0.8c-0.7,0-1.4,0.2-1.9,0.8c-0.5,0.5-0.8,1.2-0.8,1.9l0.1,13.2c0,0.7,0.3,1.4,0.8,1.9
		s1.2,0.8,1.9,0.8c0.5,0,1-0.1,1.4-0.4s0.7-0.6,0.9-1c0-0.1,0.1-0.2,0.1-0.3c0-0.2,0.1-0.4,0.3-0.6c0.2-0.2,0.4-0.2,0.6-0.2
		c0.3,0,0.6,0.1,0.8,0.3c0.2,0.2,0.3,0.4,0.3,0.7c0,0.2-0.1,0.4-0.2,0.6c-0.5,0.7-1.2,1.3-2,1.7
		C309.7,267.5,308.6,267.7,307.6,267.7z"/>
	<path class="st1" d="M317.8,267.7c-0.5,0-0.9-0.2-1.3-0.5c-0.3-0.3-0.5-0.8-0.5-1.3v-17.6c0-0.5,0.2-0.9,0.5-1.2s0.8-0.5,1.3-0.5
		c1,0,1.7,0.8,1.8,1.7l0,0v17.6c0,0.5-0.2,0.9-0.5,1.3C318.7,267.5,318.3,267.7,317.8,267.7z M323.1,262.1c0-0.4-0.1-0.7-0.4-1
		c-0.2-0.3-0.6-0.5-1-0.6c-0.8-0.1-1.5-0.4-2.2-0.8v-3.4c0,0.5,0.1,1,0.3,1.4c0.2,0.4,0.5,0.8,0.8,1.1c0.6,0.6,1.4,0.9,2.3,0.9h0.1
		v2.4H323.1z M324.8,267.7c-0.5,0-0.9-0.2-1.3-0.5c-0.3-0.3-0.5-0.8-0.5-1.2v-17.6c0-0.5,0.2-0.9,0.5-1.2s0.8-0.5,1.3-0.5
		c1,0,1.7,0.8,1.8,1.8v17.6c0,0.5-0.2,0.9-0.5,1.2C325.7,267.5,325.3,267.7,324.8,267.7z"/>
	<path class="st1" d="M334.7,267.7c-0.9,0-1.9-0.2-2.7-0.7c-0.8-0.5-1.4-1.1-1.9-1.9s-0.7-1.7-0.7-2.7v-10.6c0-0.9,0.2-1.8,0.7-2.6
		s1.1-1.5,1.9-1.9c1.6-0.9,3.7-0.9,5.3,0c0.8,0.5,1.5,1.1,1.9,1.9c0.5,0.8,0.7,1.7,0.7,2.6v10.6c0,0.9-0.2,1.9-0.7,2.7
		c-0.5,0.8-1.1,1.5-1.9,2C336.6,267.5,335.7,267.7,334.7,267.7z M334.7,264.9c1.3,0,2.4-1,2.4-2.3v-0.1v-10.8c0-1.3-1-2.4-2.3-2.4
		h-0.1c-0.7,0-1.3,0.2-1.7,0.7c-0.5,0.5-0.7,1.1-0.7,1.7v10.8c0,0.6,0.2,1.3,0.7,1.7C333.4,264.7,334.1,264.9,334.7,264.9
		L334.7,264.9z"/>
	<path class="st1" d="M347.9,267.7c-0.9,0-1.8-0.2-2.6-0.7c-0.8-0.5-1.5-1.2-1.9-2c-0.5-0.8-0.7-1.7-0.7-2.7v-10.5
		c-0.1-2.9,2.1-5.4,5.1-5.5s5.4,2.1,5.5,5.1c0,0.2,0,0.3,0,0.5v10.6c0,0.9-0.2,1.9-0.7,2.7c-0.5,0.8-1.1,1.5-1.9,1.9
		C349.7,267.4,348.8,267.7,347.9,267.7z M347.9,264.9c0.7,0,1.3-0.2,1.8-0.7s0.7-1.1,0.7-1.7v-10.8c0-0.6-0.2-1.3-0.7-1.7
		c-0.5-0.5-1.1-0.7-1.8-0.7c-1.3,0-2.4,1-2.4,2.3c0,0,0,0,0,0.1v10.8c0,0.6,0.2,1.3,0.7,1.7C346.6,264.6,347.2,264.9,347.9,264.9
		L347.9,264.9z"/>
	<path class="st1" d="M360.9,267.7c-1.2,0-2.3-0.4-3.2-1c-0.9-0.7-1.6-1.6-1.9-2.7c-0.1-0.1-0.1-0.2-0.1-0.4c0-0.3,0.1-0.6,0.4-0.9
		c0.2-0.2,0.5-0.4,0.9-0.4c0.3,0,0.7,0.1,0.9,0.4c0.2,0.2,0.4,0.5,0.4,0.9v0.1c0,0.4,0.2,0.7,0.5,1s0.7,0.4,1.1,0.4s0.9-0.2,1.2-0.5
		c0.4-0.3,0.6-0.7,0.6-1.2c0-0.6-0.1-1.1-0.3-1.6c-0.3-0.5-0.6-1-1-1.5l-1.2-1.5c0,0-0.3-0.3-0.8-0.9c-0.5-0.5-1-1.1-1.4-1.6
		c-0.4-0.6-0.7-1.2-1-1.8c-0.3-0.8-0.4-1.6-0.4-2.4c0-1,0.2-1.9,0.7-2.7s1.2-1.5,2-2s1.8-0.7,2.7-0.7c1.1,0,2.3,0.3,3.3,0.9
		c0.9,0.6,1.6,1.4,1.9,2.5c0.1,0.3,0.1,0.5,0.1,0.8c0,0.7-0.6,1.2-1.2,1.2l0,0c-0.3,0-0.7-0.1-0.9-0.4c-0.2-0.2-0.4-0.5-0.4-0.9
		v-0.1c0-0.4-0.2-0.8-0.5-1c-0.3-0.3-0.7-0.4-1.1-0.4c-0.5,0-1,0.2-1.3,0.5s-0.5,0.7-0.5,1.1c0,0.8,0.2,1.5,0.5,2.2
		c0.4,0.6,0.9,1.1,1.4,1.6l1.1,0.9c0.9,0.8,1.6,1.7,2.2,2.7c0.6,1.2,0.9,2.6,0.8,4c0,1-0.2,1.9-0.7,2.7c-0.5,0.8-1.1,1.5-2,2
		C362.8,267.4,361.8,267.7,360.9,267.7z"/>
	<path class="st1" d="M374.6,267.7c-1,0-2-0.3-2.9-0.8s-1.6-1.2-2.1-2.1s-0.8-1.9-0.8-2.9v-9.6c0-1,0.3-2,0.8-2.9s1.2-1.6,2.1-2.1
		s1.9-0.8,2.9-0.8c1.2,0,2.4,0.4,3.4,1.1c1,0.7,1.7,1.7,2.1,2.8c0,0.2,0.1,0.4,0.1,0.6c0,0.3-0.1,0.6-0.3,0.8
		c-0.2,0.2-0.5,0.4-0.8,0.4h-0.4c-0.3,0-0.6-0.1-0.8-0.4c-0.2-0.2-0.3-0.5-0.3-0.8v-0.7c0-0.7-0.3-1.3-0.8-1.8s-1.1-0.8-1.8-0.8
		c-0.7,0-1.4,0.3-1.9,0.8s-0.8,1.2-0.8,1.9l0.2,13.3c0,0.7,0.3,1.4,0.8,1.9s1.2,0.8,1.9,0.8c0.5,0,0.9-0.1,1.3-0.4
		c0.4-0.2,0.7-0.6,0.9-1l0.1-0.2c0.1-0.2,0.2-0.5,0.4-0.7c0.2-0.2,0.4-0.3,0.7-0.3c0.3,0,0.6,0.1,0.8,0.3c0.2,0.2,0.3,0.4,0.3,0.7
		c0,0.2-0.1,0.4-0.2,0.6c-0.5,0.7-1.2,1.3-2,1.7C376.4,267.5,375.5,267.7,374.6,267.7z M371.9,258.6h5.9c0.2,0,0.5,0.1,0.6,0.3
		c0.3,0.3,0.3,0.9,0,1.2c-0.2,0.2-0.4,0.3-0.6,0.3h-5.9V258.6z"/>
	<path class="st1" d="M395.2,267.6c-0.9,0-1.8-0.3-2.6-0.8c-0.8-0.5-1.4-1.1-1.9-1.9s-0.7-1.7-0.7-2.6V258c0-0.5,0.4-0.9,0.8-0.9
		l0,0c0.2,0,0.5,0.1,0.6,0.2c0.2,0.2,0.3,0.4,0.3,0.6v4.8c0,0.7,0.2,1.4,0.7,1.9s1.2,0.8,1.9,0.8c1.4,0.1,2.6-1.1,2.7-2.5
		c0-0.1,0-0.1,0-0.2v-16.2c0.6,0,1.2,0.2,1.8,0.5c0.5,0.3,1,0.8,1.3,1.3s0.5,1.2,0.5,1.8v12.1c0,1.9-1,3.7-2.7,4.6
		C397.1,267.4,396.2,267.6,395.2,267.6z"/>
	<path class="st1" d="M409.1,267.7c-0.9,0-1.8-0.2-2.6-0.7c-0.8-0.5-1.5-1.1-1.9-1.9c-0.5-0.8-0.7-1.7-0.7-2.6v-14.1
		c0-0.5,0.2-0.9,0.5-1.3c0.6-0.7,1.7-0.7,2.4-0.1c0,0,0,0,0.1,0.1c0.3,0.3,0.5,0.8,0.5,1.3v13.4c0,0.4,0.2,0.9,0.5,1.2
		c0.3,0.3,0.8,0.5,1.2,0.6c0.5,0,0.9-0.2,1.3-0.5c0.3-0.3,0.5-0.8,0.5-1.3l0.1-13.3c0-0.5,0.2-1,0.5-1.3c0.3-0.4,0.8-0.5,1.3-0.5
		s0.9,0.2,1.2,0.5c0.3,0.3,0.5,0.8,0.5,1.2l-0.1,14.1c0,0.9-0.2,1.8-0.7,2.6c-0.5,0.8-1.1,1.5-1.9,2
		C410.9,267.4,410,267.7,409.1,267.7z"/>
	<path class="st1" d="M422.5,267.7c-2.4,0-4.4-1.5-5.1-3.8c-0.1-0.1-0.1-0.2-0.1-0.4c0-0.7,0.5-1.2,1.2-1.2l0,0
		c0.3,0,0.7,0.1,0.9,0.4c0.2,0.2,0.4,0.5,0.4,0.9v0.1c0,0.4,0.2,0.7,0.5,1s0.7,0.4,1.1,0.4s0.9-0.2,1.2-0.5c0.4-0.3,0.6-0.7,0.6-1.2
		c0-0.6-0.1-1.1-0.3-1.6c-0.3-0.5-0.6-1-1-1.5l-1.2-1.5l-0.8-0.9c-0.5-0.5-1-1.1-1.4-1.6c-0.4-0.6-0.7-1.2-1-1.8
		c-0.3-0.8-0.4-1.6-0.4-2.4c0-1,0.2-1.9,0.7-2.7s1.2-1.5,2-2s1.8-0.7,2.7-0.7c1.1,0,2.3,0.3,3.3,0.9c0.9,0.6,1.6,1.4,1.9,2.5
		c0.1,0.3,0.1,0.5,0.1,0.8s-0.1,0.6-0.4,0.9c-0.2,0.2-0.6,0.4-0.9,0.4s-0.7-0.1-0.9-0.4c-0.2-0.2-0.4-0.5-0.4-0.9v-0.1
		c0-0.4-0.2-0.8-0.5-1c-0.3-0.3-0.7-0.4-1.1-0.4c-0.5,0-0.9,0.2-1.3,0.5c-0.3,0.3-0.5,0.7-0.5,1.1c0,0.8,0.2,1.5,0.5,2.2
		c0.4,0.6,0.9,1.1,1.4,1.6l1.1,0.9c0.9,0.8,1.6,1.7,2.2,2.7c0.6,1.2,0.9,2.6,0.8,4c0,1-0.2,1.9-0.7,2.7c-0.5,0.8-1.1,1.5-1.9,2
		C424.4,267.4,423.5,267.7,422.5,267.7z"/>
	<path class="st1" d="M432.2,250.5c-1.9,0-3.5-1.5-3.5-3.5c0,0,0,0,0-0.1h15.5c0,0.9-0.3,1.8-1,2.5s-1.6,1-2.5,1L432.2,250.5z
		 M436.4,267.7c-0.5,0-0.9-0.2-1.3-0.5c-0.3-0.3-0.5-0.8-0.5-1.2v-17.6h3.5V266C438.2,266.9,437.4,267.7,436.4,267.7z"/>
	<path class="st1" d="M457.6,267.7c-0.9,0-1.9-0.2-2.7-0.7c-0.8-0.5-1.5-1.2-1.9-2c-0.5-0.8-0.7-1.7-0.7-2.7v-10.5
		c0-0.9,0.2-1.8,0.7-2.6s1.1-1.5,1.9-1.9c1.6-0.9,3.7-0.9,5.3,0c0.8,0.5,1.5,1.1,1.9,1.9c0.5,0.8,0.7,1.7,0.7,2.6v10.6
		c0,0.9-0.2,1.9-0.7,2.7c-0.5,0.8-1.1,1.5-1.9,1.9S458.5,267.7,457.6,267.7z M457.6,264.9c1.3,0,2.4-1,2.4-2.3v-0.1v-10.8
		c0-0.6-0.2-1.3-0.7-1.7c-0.5-0.5-1.1-0.7-1.8-0.7c-0.6,0-1.2,0.2-1.7,0.7s-0.7,1.1-0.7,1.7v10.8c0,0.6,0.2,1.3,0.7,1.7
		C456.3,264.6,456.9,264.9,457.6,264.9L457.6,264.9z"/>
	<path class="st1" d="M467.5,267.7c-0.5,0-0.9-0.2-1.2-0.5c-0.3-0.3-0.5-0.8-0.5-1.3v-17.6c0-1,0.8-1.8,1.8-1.8
		c0.3,0,0.5,0.1,0.8,0.2c0.2,0.1,0.4,0.3,0.6,0.5c0.5-0.3,1-0.5,1.6-0.6c0.7-0.1,1.5-0.1,2.3-0.1c1.2,0,2.5,0.3,3.5,0.9
		c1.1,0.6,1.9,1.5,2.6,2.6c0.6,1.1,1,2.3,1,3.5v12.4c0,1-0.8,1.7-1.7,1.8l0,0c-0.5,0-0.9-0.2-1.2-0.5c-0.3-0.3-0.5-0.8-0.5-1.2v-8.6
		c0-1.2-0.3-2.5-1-3.5c-0.6-1.1-1.5-2-2.6-2.6s-2.3-1-3.5-0.9v15.7c0,0.5-0.2,0.9-0.5,1.2C468.4,267.5,467.9,267.7,467.5,267.7z"/>
	<path class="st1" d="M488.4,267.7c-2.1,0-4-1.1-5-2.9c-0.5-0.9-0.8-1.9-0.8-2.9v-9.6c0-1,0.3-2,0.8-2.9s1.2-1.6,2.1-2.1
		s1.9-0.8,2.9-0.8c1.2,0,2.4,0.4,3.4,1.1c1,0.7,1.7,1.7,2.1,2.8c0,0.2,0.1,0.4,0.1,0.6c0,0.3-0.1,0.6-0.3,0.8
		c-0.2,0.2-0.5,0.4-0.8,0.4h-0.4c-0.3,0-0.6-0.1-0.8-0.4c-0.2-0.2-0.3-0.5-0.3-0.8v-0.7c0-0.7-0.3-1.3-0.8-1.8s-1.1-0.8-1.8-0.8
		c-0.7,0-1.4,0.3-1.9,0.8s-0.8,1.2-0.8,1.9l0.2,13.3c0,0.7,0.3,1.4,0.8,1.9s1.2,0.8,1.9,0.8c1,0,1.8-0.6,2.3-1.5l0.1-0.2
		c0.1-0.2,0.2-0.5,0.4-0.7c0.2-0.2,0.4-0.3,0.7-0.3c0.3,0,0.6,0.1,0.8,0.3c0.2,0.2,0.3,0.4,0.3,0.7c0,0.2-0.1,0.4-0.2,0.6
		c-0.5,0.7-1.2,1.3-2,1.7C490.3,267.5,489.4,267.7,488.4,267.7z M485.7,258.6h5.9c0.5,0,0.9,0.4,0.9,0.9c0,0.2-0.1,0.4-0.2,0.6
		c-0.2,0.2-0.4,0.3-0.6,0.3h-5.9L485.7,258.6L485.7,258.6z"/>
	<path class="st1" d="M500.4,263c-0.4,0-0.8-0.1-1.1-0.4c-0.3-0.3-0.4-0.7-0.4-1.1v-1.9c0-0.5,0.2-0.9,0.5-1.2
		c0.3-0.3,0.8-0.5,1.2-0.5c0.5,0,0.9-0.2,1.3-0.5s0.6-0.8,0.6-1.2v-5c0-0.5-0.2-1-0.5-1.4s-0.8-0.5-1.3-0.5c-0.4,0-0.7,0.1-1,0.3
		s-0.5,0.4-0.6,0.7c-0.1,0.2-0.3,0.4-0.5,0.6c-0.2,0.2-0.4,0.2-0.6,0.3c-0.3,0-0.7-0.1-0.9-0.4c-0.2-0.2-0.4-0.5-0.4-0.9
		c0-0.3,0.1-0.5,0.2-0.7c0.5-0.8,1.3-1.4,2.1-1.9c0.9-0.5,1.9-0.7,2.9-0.7c2.2,0,4.2,1.1,5.3,3.1c0.6,0.9,0.8,2,0.8,3.1
		c0,1.5-0.2,2.9-0.8,4.3c-0.4,1.1-1.2,2-2.2,2.7c-0.9,0.6-2,0.9-3.1,0.9h-0.1v1C501.8,262.3,501.2,263,500.4,263
		C500.3,263,500.3,263,500.4,263L500.4,263z M500.5,267.6c-1,0-1.8-0.8-1.8-1.8c0-0.5,0.2-0.9,0.5-1.3c0.7-0.7,1.8-0.7,2.4,0l0,0
		c0.3,0.3,0.5,0.8,0.5,1.3s-0.2,0.9-0.5,1.2C501.4,267.5,500.9,267.7,500.5,267.6L500.5,267.6z"/>
	<path class="st1" d="M47.6,373.2c-1.9,0-3.5-1.5-3.6-3.5c0,0,0,0,0-0.1h17.6c0,0.9-0.3,1.8-1,2.5s-1.6,1-2.5,1L47.6,373.2z
		 M52.9,390.3c-1.9,0-3.5-1.6-3.5-3.5l0,0V371h7v15.9C56.3,388.8,54.7,390.3,52.9,390.3L52.9,390.3z"/>
	<path class="st1" d="M66.5,390.3c-1.9,0-3.5-1.6-3.5-3.5v-14.1c0-0.9,0.3-1.8,1-2.5c0.7-0.7,1.6-1,2.5-1c1.9,0,3.5,1.6,3.5,3.5l0,0
		v7.8c0,0.6,0.4,1,1,1h1.6c0.3,0,0.5-0.1,0.7-0.3c0.2-0.2,0.3-0.4,0.3-0.7V371c0-0.5,0.2-0.9,0.5-1.2c0.3-0.3,0.8-0.5,1.3-0.5
		c1,0,1.7,0.8,1.8,1.8v17.6c0,1-0.8,1.7-1.7,1.8l0,0c-0.5,0-0.9-0.2-1.3-0.5c-0.3-0.3-0.5-0.8-0.5-1.2v-4.3c0-0.3-0.1-0.5-0.3-0.7
		c-0.2-0.2-0.4-0.3-0.7-0.3H71c-0.3,0-0.5,0.1-0.7,0.3c-0.2,0.2-0.3,0.4-0.3,0.7v2.5C70,388.8,68.5,390.4,66.5,390.3
		C66.5,390.4,66.5,390.4,66.5,390.3L66.5,390.3z"/>
	<path class="st1" d="M83.9,390.3c-0.9,0-1.8-0.3-2.5-1s-1-1.6-1-2.5v-10.6c0-1.2,0.3-2.5,1-3.5c0.6-1.1,1.5-1.9,2.6-2.6
		c2.2-1.3,4.8-1.3,7,0c1.1,0.6,1.9,1.5,2.6,2.6s1,2.3,1,3.5v12.4c0,0.5-0.2,0.9-0.6,1.2c-0.7,0.7-1.8,0.7-2.5,0
		c-0.3-0.3-0.5-0.8-0.5-1.2v-4.3c0-0.3-0.1-0.5-0.3-0.7c-0.2-0.2-0.4-0.3-0.7-0.3h-1.6c-0.3,0-0.5,0.1-0.7,0.3
		c-0.2,0.2-0.3,0.4-0.3,0.7v2.5C87.5,388.7,85.9,390.3,83.9,390.3L83.9,390.3z M90,381.5c0.3,0,0.5-0.1,0.7-0.3
		c0.2-0.2,0.3-0.4,0.3-0.7v-4.4c0-1.9-1.5-3.4-3.4-3.4h-0.1v7.8c0,0.6,0.4,1,1,1H90z"/>
	<path class="st1" d="M98.7,373.2c-1.9,0-3.5-1.6-3.5-3.5l0,0h17.6c0,0.9-0.3,1.8-1,2.5s-1.6,1-2.5,1H98.7z M104,390.3
		c-1.9,0-3.5-1.6-3.5-3.5l0,0V371h7v15.9C107.4,388.8,105.9,390.3,104,390.3L104,390.3z"/>
	<path class="st1" d="M115.6,369.2h5.6v0.2c-0.2,1.1-0.7,2.2-1.4,3.1c-0.7,0.9-1.5,1.6-2.6,2.1c-1,0.5-2,0.6-3.1,0.3L115.6,369.2z"
		/>
	<path class="st1" d="M129.3,390.3c-3.1,0-5.8-2-6.7-4.9c0-0.2-0.1-0.3-0.1-0.5c0-0.4,0.2-0.8,0.5-1.1c0.3-0.3,0.7-0.5,1.2-0.5
		c0.9,0,1.6,0.7,1.6,1.6l0,0v0.1c0,0.5,0.2,0.9,0.5,1.2c0.3,0.3,0.8,0.5,1.2,0.5c0.5,0,0.9-0.2,1.3-0.5c0.3-0.3,0.5-0.8,0.5-1.3
		s-0.1-1-0.4-1.5c-0.3-0.4-0.7-0.8-1.1-1l-2.4-1.2c-0.3-0.2-0.6-0.4-0.9-0.6c-0.4-0.3-0.8-0.8-1.2-1.2c-0.7-0.9-1-2.1-1-3.2
		c0-1.3,0.3-2.5,0.9-3.6s1.5-2,2.6-2.6c1.1-0.7,2.3-1,3.5-1c1.5,0,3,0.5,4.2,1.4s2.1,2.1,2.6,3.5c0,0.2,0.1,0.3,0.1,0.5
		c0,0.4-0.2,0.8-0.5,1.1c-0.3,0.3-0.7,0.5-1.1,0.5c-0.9,0-1.6-0.7-1.6-1.6v-0.1c0-1-0.8-1.7-1.7-1.8h-0.1c-0.5,0-0.9,0.2-1.2,0.5
		s-0.5,0.8-0.5,1.3s0.1,1,0.4,1.5c0.3,0.4,0.7,0.8,1.1,1l2.4,1.2c0.9,0.4,1.7,1.1,2.3,2s0.8,1.9,0.8,2.9c0,1.3-0.3,2.5-1,3.6
		c-0.6,1.1-1.5,2-2.6,2.6C131.7,389.9,130.5,390.3,129.3,390.3z"/>
	<path class="st1" d="M161.6,369.2c0.5,0,0.9,0.2,1.3,0.5c0.3,0.3,0.5,0.8,0.5,1.2v12.4c0,1.2-0.3,2.5-0.9,3.5
		c-0.6,1.1-1.5,1.9-2.6,2.6c-1.1,0.6-2.3,1-3.5,1s-2.4-0.3-3.5-1c-1.1-0.6-2-1.5-2.6-2.6c-0.7-1.1-1-2.3-1-3.5v-10.5
		c0-0.9,0.3-1.8,1-2.5c0.6-0.7,1.5-1.1,2.5-1.1c1.9,0,3.5,1.5,3.5,3.5c0,0,0,0,0,0.1v10.6h0.1c0.9,0,1.8-0.3,2.4-1
		c0.7-0.6,1-1.5,1-2.4v-8.9c0-0.5,0.2-0.9,0.5-1.2C160.7,369.3,161.1,369.1,161.6,369.2z M168.7,369.2c0.5,0,0.9,0.2,1.2,0.5
		s0.5,0.8,0.5,1.2v12.4c0,1.2-0.3,2.5-0.9,3.5c-0.6,1.1-1.5,1.9-2.6,2.6c-2.2,1.3-4.9,1.3-7.1,0c-1.1-0.6-2-1.5-2.6-2.6
		s-1-2.3-1-3.5h7.2c0.9,0,1.8-0.3,2.4-1c0.7-0.6,1-1.5,1-2.4V371c0-0.5,0.2-0.9,0.5-1.2C167.7,369.3,168.2,369.1,168.7,369.2z"/>
	<path class="st1" d="M177.2,390.3c-1.9,0-3.5-1.6-3.5-3.5v-14.1c0-0.9,0.3-1.8,1-2.5c1.4-1.4,3.6-1.4,5,0c0.7,0.7,1,1.6,1,2.5v7.8
		c0,0.3,0.1,0.5,0.3,0.7s0.4,0.3,0.7,0.3h1.6c0.3,0,0.5-0.1,0.7-0.3c0.2-0.2,0.3-0.4,0.3-0.7v-9.6c0-0.5,0.2-0.9,0.5-1.2
		c0.3-0.3,0.8-0.5,1.3-0.5s0.9,0.2,1.2,0.5s0.5,0.8,0.5,1.2v17.6c0,0.5-0.2,0.9-0.5,1.2c-0.3,0.3-0.8,0.5-1.2,0.5
		c-0.5,0-0.9-0.2-1.3-0.5c-0.3-0.3-0.5-0.8-0.5-1.2v-4.3c0-0.3-0.1-0.5-0.3-0.7s-0.4-0.3-0.7-0.3h-1.6c-0.6,0-1,0.4-1,1v2.5
		C180.6,388.8,179,390.3,177.2,390.3c-0.1,0-0.1,0-0.1,0H177.2z"/>
	<path class="st1" d="M197.9,390.3c-1.9,0-3.5-1.6-3.5-3.5v-3.5c-1.1-1.1-2-2.5-2.6-4s-0.9-3-0.9-4.6v-5.6c1.2,0,2.4,0.3,3.5,1
		c1.1,0.6,2,1.5,2.6,2.6s1,2.3,1,3.5v5.4l0,0c0.8,0,1.7-0.3,2.3-0.9c0.7-0.6,1.1-1.5,1.1-2.4v-7.4c0-1,0.8-1.8,1.7-1.8
		c0.5,0,0.9,0.2,1.3,0.5c0.3,0.3,0.5,0.8,0.5,1.2v5.5c0,0.8-0.1,1.6-0.4,2.4c-0.3,0.8-0.7,1.5-1.2,2.1s-1.1,1.1-1.9,1.5v4.3
		c0,0.9-0.3,1.8-1,2.5C199.8,390,198.9,390.3,197.9,390.3z"/>
	<path class="st2" d="M224.7,390.3c-1.2,0-2.5-0.3-3.5-1c-1.1-0.6-1.9-1.5-2.6-2.6c-0.6-1.1-1-2.3-0.9-3.5v-7.1
		c0-1.2,0.3-2.5,0.9-3.5c0.6-1.1,1.5-1.9,2.6-2.6c1.1-0.6,2.3-1,3.5-1h1.8c1.2,0,2.5,0.3,3.5,1c1.1,0.6,1.9,1.5,2.6,2.6
		c0.6,1.1,1,2.3,0.9,3.5v7.1c0,1.2-0.3,2.5-0.9,3.5c-0.6,1.1-1.5,1.9-2.6,2.6c-1.1,0.6-2.3,1-3.5,1H224.7z M226.5,386.8
		c1.9,0,3.5-1.6,3.5-3.5v-3.5c0-1.2-0.3-2.5-0.9-3.5c-0.6-1.1-1.5-1.9-2.6-2.6s-2.3-1-3.5-1v10.6c0,0.9,0.3,1.8,1,2.5
		C224.6,386.4,225.5,386.8,226.5,386.8L226.5,386.8z"/>
	<path class="st1" d="M240,390.3c-0.9,0-1.8-0.3-2.5-1s-1-1.6-1-2.5v-10.6c0-1.2,0.3-2.5,0.9-3.5c0.6-1.1,1.5-2,2.6-2.6
		c2.2-1.3,4.8-1.3,7,0c1.1,0.6,1.9,1.5,2.6,2.6c0.6,1.1,1,2.3,1,3.5v12.4c0,1-0.8,1.7-1.7,1.8l0,0c-0.5,0-0.9-0.2-1.2-0.5
		s-0.5-0.8-0.5-1.2v-4.3c0-0.3-0.1-0.5-0.3-0.7s-0.4-0.3-0.7-0.3h-1.6c-0.6,0-1,0.4-1,1v2.5C243.6,388.7,242,390.3,240,390.3
		C240.1,390.3,240,390.3,240,390.3L240,390.3z M246.1,381.5c0.6,0,1-0.4,1-1v-4.4c0-1.9-1.5-3.4-3.4-3.4h-0.1v7.8
		c0,0.3,0.1,0.5,0.3,0.7s0.4,0.3,0.7,0.3H246.1z"/>
	<path class="st1" d="M254.8,373.2c-1.9,0-3.5-1.6-3.5-3.5l0,0h17.6c0,0.9-0.3,1.8-1,2.5s-1.6,1-2.5,1H254.8z M260.1,390.3
		c-1.9,0-3.5-1.5-3.5-3.5l0,0V371h7v15.9C263.6,388.8,262,390.4,260.1,390.3L260.1,390.3z"/>
	<path class="st2" d="M282.4,390.3c-1.2,0-2.2-1-2.2-2.2v-7.6c0-1.5-0.8-2.9-2.1-3.7c-0.6-0.4-1.4-0.6-2.1-0.6h-0.1v10.6
		c0,1.9-1.5,3.5-3.5,3.5c0,0,0,0-0.1,0c-0.9,0-1.8-0.4-2.5-1.1s-1-1.6-1-2.5v-10.5c0-1.2,0.3-2.5,1-3.5c0.6-1.1,1.5-1.9,2.6-2.6
		c1.1-0.6,2.3-1,3.5-1c1.5,0,3,0.3,4.4,1c1.3,0.6,2.4,1.5,3.2,2.6c0.8,1,1.2,2.2,1.2,3.5v11.9C284.6,389.3,283.6,390.3,282.4,390.3
		L282.4,390.3L282.4,390.3z M289.5,390.3c-0.5,0-0.9-0.2-1.3-0.5c-0.3-0.3-0.5-0.8-0.5-1.2v-8.9c0-0.9-0.3-1.8-1-2.4
		c-0.6-0.7-1.5-1-2.4-1h-7.2c0-1.2,0.3-2.5,1-3.5c0.6-1.1,1.5-1.9,2.6-2.6c1.1-0.6,2.3-1,3.5-1s2.4,0.3,3.5,1c1.1,0.6,2,1.5,2.6,2.6
		s1,2.3,1,3.5v12.4C291.3,389.5,290.6,390.3,289.5,390.3C289.6,390.3,289.6,390.3,289.5,390.3L289.5,390.3z"/>
	<path class="st1" d="M301.2,390.3c-1.2,0-2.5-0.3-3.5-1c-1.1-0.6-2-1.5-2.6-2.6c-0.7-1.1-1-2.3-1-3.6v-6.9c0-1.3,0.3-2.5,1-3.6
		c0.6-1.1,1.5-2,2.6-2.6c1.1-0.7,2.3-1,3.5-1c3.2,0,6,2.2,6.8,5.3c0,0.1,0.1,0.2,0.1,0.4c0,0.4-0.2,0.7-0.4,1
		c-0.3,0.3-0.6,0.4-1,0.4h-0.5c-0.4,0-0.7-0.1-1-0.4s-0.4-0.6-0.4-1v-0.3c0-1-0.8-1.8-1.8-1.7c-0.4,0-0.9,0.2-1.2,0.5
		c-0.3,0.3-0.5,0.8-0.5,1.3V385c0,0.5,0.2,1,0.5,1.3s0.8,0.5,1.3,0.5c0.3,0,0.6-0.1,0.9-0.3c0.3-0.2,0.5-0.4,0.6-0.7l0.1-0.2
		c0.1-0.2,0.3-0.3,0.5-0.4s0.4-0.2,0.6-0.2c0.4,0,0.7,0.2,1,0.4c0.3,0.3,0.4,0.6,0.4,1c0,0.3-0.1,0.6-0.3,0.8
		c-0.6,0.9-1.5,1.7-2.5,2.2C303.4,390,302.3,390.3,301.2,390.3z M297.2,380.3h7.5c0.5,0,0.9,0.2,1.2,0.5c0.7,0.7,0.7,1.8,0,2.5
		c-0.3,0.3-0.8,0.5-1.2,0.5h-7.5V380.3z"/>
	<path class="st1" d="M313.9,390.3c-0.9,0-1.8-0.3-2.5-1s-1-1.6-1-2.5v-10.6c0-1.2,0.3-2.5,1-3.5c0.6-1.1,1.5-1.9,2.6-2.6
		c2.2-1.3,4.8-1.3,7,0c1.1,0.6,1.9,1.5,2.6,2.6s1,2.3,1,3.5v12.4c0,0.5-0.2,0.9-0.5,1.2c-0.7,0.7-1.8,0.7-2.5,0
		c-0.3-0.3-0.5-0.8-0.5-1.2v-4.3c0-0.3-0.1-0.5-0.3-0.7c-0.2-0.2-0.4-0.3-0.7-0.3h-1.6c-0.3,0-0.5,0.1-0.7,0.3
		c-0.2,0.2-0.3,0.4-0.3,0.7v2.5C317.5,388.7,316,390.3,313.9,390.3C314,390.3,314,390.3,313.9,390.3L313.9,390.3z M320,381.5
		c0.3,0,0.5-0.1,0.7-0.3c0.2-0.2,0.3-0.4,0.3-0.7v-4.4c0-1.9-1.5-3.4-3.4-3.4h-0.1v7.8c0,0.3,0.1,0.5,0.3,0.7
		c0.2,0.2,0.4,0.3,0.7,0.3H320z"/>
	<path class="st1" d="M331.1,390.3c-0.9-0.1-1.7-0.5-2.3-1.1c-0.6-0.6-1-1.5-1-2.4v-17.6c1.2,0,2.5,0.3,3.5,1c1.1,0.6,2,1.5,2.6,2.6
		s1,2.3,1,3.6v6.9v1.8c0,0.5,0.2,0.9,0.5,1.3c0.3,0.3,0.8,0.5,1.3,0.5h3.5c0.5,0,0.9,0.2,1.2,0.5c0.3,0.3,0.5,0.8,0.5,1.2
		c0,1-0.8,1.8-1.7,1.8l0,0L331.1,390.3z"/>
	<path class="st1" d="M356.9,390.3c-0.9,0-1.8-0.4-2.5-1.1s-1-1.6-1-2.5v-14c0-1.9,1.6-3.5,3.5-3.5l0,0h3.5c1.3,0,2.5,0.3,3.6,1
		c1.1,0.6,2,1.5,2.6,2.6c1.2,2.1,1.3,4.6,0.2,6.7c-0.5,1-1.2,1.8-2.1,2.5s-1.9,1.1-3,1.3c-0.4,0.1-0.8,0.1-1.2,0.1l-0.1,3.5
		C360.5,388.8,358.9,390.3,356.9,390.3C357,390.4,356.9,390.4,356.9,390.3L356.9,390.3z M368.1,390.2c-1.1,0-2.2-0.3-3.1-0.8
		s-1.7-1.3-2.3-2.2l-3.2-5.7h3.5L368.1,390.2z M360.5,381.5c0.6,0,1.2-0.2,1.7-0.5s0.9-0.7,1.3-1.2c0.3-0.5,0.5-1.1,0.5-1.7v-2
		c0-0.6-0.2-1.2-0.5-1.7s-0.7-1-1.3-1.3c-0.5-0.3-1.1-0.5-1.7-0.5h-0.1L360.5,381.5L360.5,381.5z"/>
	<path class="st1" d="M377.1,390.3c-1.2,0-2.5-0.3-3.5-1c-1.1-0.6-2-1.5-2.6-2.6s-1-2.3-1-3.6v-6.9c0-1.3,0.3-2.5,1-3.6
		c0.6-1.1,1.5-2,2.6-2.6c1.1-0.7,2.3-1,3.5-1c3.2,0,6,2.1,6.8,5.3c0,0.1,0.1,0.2,0.1,0.4c0,0.4-0.2,0.7-0.4,1
		c-0.3,0.3-0.6,0.4-1,0.4H382c-0.4,0-0.7-0.1-1-0.4s-0.4-0.6-0.4-1v-0.3c0-1-0.8-1.8-1.8-1.7c-0.4,0-0.9,0.2-1.2,0.5
		c-0.3,0.3-0.5,0.8-0.5,1.3V385c0,0.5,0.2,1,0.5,1.3s0.8,0.5,1.3,0.5c0.3,0,0.6-0.1,0.9-0.3c0.3-0.2,0.5-0.4,0.6-0.7l0.1-0.2
		c0.1-0.2,0.3-0.3,0.5-0.4s0.4-0.2,0.6-0.2c0.4,0,0.7,0.2,1,0.4c0.3,0.3,0.4,0.6,0.4,1c0,0.3-0.1,0.6-0.3,0.8
		c-0.6,0.9-1.5,1.7-2.5,2.2C379.4,390,378.3,390.3,377.1,390.3z M373.1,380.3h7.5c0.5,0,0.9,0.2,1.2,0.5c0.7,0.7,0.7,1.8,0,2.5
		c-0.3,0.3-0.8,0.5-1.2,0.5h-7.5V380.3z"/>
	<path class="st1" d="M393.9,390.3c-1.2,0-2.5-0.3-3.5-1c-1.1-0.6-1.9-1.5-2.6-2.6c-0.6-1.1-1-2.3-1-3.5v-14.1c1.2,0,2.4,0.3,3.5,1
		c1.1,0.6,2,1.5,2.6,2.6s1,2.3,1,3.5V390.3z"/>
	<path class="st1" d="M400.5,390.3c-0.9,0-1.8-0.4-2.5-1.1s-1-1.6-1-2.5v-14c0-0.9,0.3-1.9,1-2.5c0.6-0.7,1.6-1,2.5-1
		c0.5,0,1.1,0.1,1.6,0.4c0.5,0.2,0.9,0.6,1.2,1c0.5-0.4,1-0.7,1.5-0.9c0.5-0.2,1-0.4,1.5-0.5h0.4h0.4c1.7-0.1,3.3,0.7,4.3,2
		c1,1.5,1.5,3.3,1.5,5.1v12.4c0,0.5-0.2,0.9-0.5,1.2c-0.3,0.3-0.8,0.5-1.2,0.5c-0.5,0-0.9-0.2-1.3-0.5c-0.3-0.3-0.5-0.8-0.5-1.2
		v-7.1c0-0.9-0.2-1.8-0.7-2.6c-0.5-0.8-1.1-1.5-1.9-1.9c-0.8-0.5-1.7-0.7-2.6-0.7V387C404,388.8,402.4,390.4,400.5,390.3
		C400.5,390.4,400.5,390.4,400.5,390.3L400.5,390.3z"/>
	<path class="st1" d="M423.1,390.3c-3.1,0-5.8-2-6.7-4.9c0-0.2-0.1-0.3-0.1-0.5c0-0.4,0.2-0.8,0.5-1.1c0.3-0.3,0.7-0.5,1.1-0.5
		c0.9,0,1.6,0.7,1.6,1.6l0,0v0.1c0,0.5,0.2,0.9,0.5,1.2c0.3,0.3,0.8,0.5,1.2,0.5c0.5,0,0.9-0.2,1.3-0.5c0.3-0.3,0.5-0.8,0.5-1.3
		s-0.1-1-0.4-1.5c-0.3-0.4-0.7-0.8-1.1-1l-2.4-1.2c-0.3-0.2-0.6-0.4-0.9-0.6c-0.5-0.3-0.8-0.8-1.2-1.2c-0.7-0.9-1-2.1-1-3.2
		c0-1.3,0.3-2.5,1-3.6c0.6-1.1,1.5-2,2.6-2.6c1.1-0.7,2.3-1,3.5-1c1.5,0,3,0.5,4.2,1.4s2.1,2.1,2.5,3.5c0,0.2,0.1,0.3,0.1,0.5
		c0,0.4-0.2,0.8-0.5,1.1c-0.7,0.6-1.7,0.6-2.3,0c-0.3-0.3-0.5-0.7-0.5-1.1v-0.1c0-1-0.8-1.7-1.7-1.8h-0.1c-0.5,0-0.9,0.2-1.2,0.5
		c-0.3,0.3-0.5,0.8-0.5,1.3s0.1,1,0.4,1.5c0.3,0.4,0.7,0.8,1.1,1l2.4,1.3c0.9,0.4,1.7,1.1,2.3,2c0.6,0.9,0.8,1.9,0.8,2.9
		c0,1.3-0.3,2.5-1,3.6c-0.6,1.1-1.5,2-2.6,2.6C425.5,390,424.3,390.3,423.1,390.3z"/>
	<path class="st1" d="M450.1,390.3c-3.1,0-5.8-2-6.7-4.9c0-0.2-0.1-0.3-0.1-0.5c0-0.9,0.7-1.6,1.6-1.6s1.6,0.7,1.6,1.6l0,0v0.1
		c0,1,0.8,1.8,1.8,1.8c0.5,0,0.9-0.2,1.3-0.5s0.5-0.8,0.5-1.3s-0.1-1-0.4-1.5c-0.3-0.4-0.7-0.8-1.1-1l-2.4-1.2
		c-0.3-0.2-0.6-0.4-0.9-0.6c-0.4-0.3-0.8-0.8-1.1-1.2c-0.7-0.9-1-2.1-1-3.2c0-1.3,0.3-2.5,1-3.6c0.6-1.1,1.5-2,2.6-2.6
		c1.1-0.7,2.3-1,3.5-1c1.5,0,3,0.5,4.2,1.4s2.1,2.1,2.6,3.5c0,0.2,0.1,0.3,0.1,0.5c0,0.9-0.7,1.6-1.6,1.6c-0.4,0-0.9-0.2-1.2-0.5
		c-0.3-0.3-0.5-0.7-0.5-1.1v-0.1c0-0.5-0.2-0.9-0.5-1.3c-0.3-0.3-0.8-0.5-1.3-0.5s-0.9,0.2-1.2,0.5c-0.3,0.3-0.5,0.8-0.5,1.3
		s0.1,1,0.4,1.5c0.3,0.4,0.7,0.8,1.1,1l2.4,1.2c0.9,0.4,1.7,1.1,2.3,2c0.5,0.9,0.8,1.9,0.8,2.9c0,1.3-0.3,2.5-1,3.6
		c-0.6,1.1-1.5,2-2.6,2.6C452.6,389.9,451.4,390.3,450.1,390.3z"/>
	<path class="st1" d="M467.4,390.3c-1.2,0-2.4-0.3-3.5-1c-1.1-0.6-2-1.5-2.6-2.6s-1-2.3-1-3.5v-10.6c0-0.9,0.3-1.8,1-2.5
		s1.6-1,2.5-1s1.8,0.3,2.5,1s1,1.6,1,2.5v8.8c0,0.5,0.2,0.9,0.5,1.2c0.3,0.3,0.8,0.5,1.2,0.5c0.5,0,0.9-0.2,1.3-0.5
		c0.3-0.3,0.5-0.8,0.5-1.3V371c0-0.5,0.2-0.9,0.5-1.3c0.3-0.3,0.8-0.5,1.3-0.5s0.9,0.2,1.2,0.5c0.3,0.3,0.5,0.8,0.5,1.2v12.3
		c0,1.2-0.3,2.5-1,3.5c-0.6,1.1-1.5,1.9-2.6,2.6C469.8,390,468.6,390.3,467.4,390.3z"/>
	<path class="st1" d="M480.8,390.3c-0.9,0-1.8-0.4-2.5-1.1s-1-1.6-1-2.5v-14c0-1.9,1.5-3.5,3.5-3.5c0,0,0,0,0.1,0h3.4
		c1.3,0,2.5,0.3,3.6,1c1.1,0.6,2,1.5,2.6,2.6c0.7,1.1,1,2.3,1,3.5c0,1.1-0.3,2.2-0.8,3.2s-1.2,1.8-2.1,2.5s-1.9,1.1-3,1.3
		c-0.4,0.1-0.7,0.2-0.9,0.5c-0.2,0.3-0.4,0.6-0.4,1v2.1c0,1.9-1.5,3.5-3.5,3.5C480.9,390.3,480.9,390.3,480.8,390.3L480.8,390.3z
		 M484.4,381.5c0.6,0,1.2-0.2,1.7-0.5c1.1-0.6,1.7-1.7,1.7-2.9v-2c0-0.6-0.2-1.2-0.5-1.7s-0.7-1-1.3-1.3c-0.5-0.3-1.1-0.5-1.7-0.5
		h-0.1v8.8L484.4,381.5z"/>
	<path class="st1" d="M497.5,390.3c-0.9,0-1.8-0.4-2.5-1.1s-1-1.6-1-2.5v-14c0-1.9,1.5-3.5,3.5-3.5c0,0,0,0,0.1,0h3.4
		c1.3,0,2.5,0.3,3.6,1c1.1,0.6,2,1.5,2.6,2.6c1.2,2,1.3,4.6,0.2,6.7c-0.5,1-1.2,1.8-2.1,2.5s-1.9,1.1-2.9,1.3
		c-0.4,0.1-0.8,0.1-1.2,0.1l-0.1,3.5C501,388.8,499.4,390.3,497.5,390.3C497.5,390.4,497.5,390.4,497.5,390.3L497.5,390.3z
		 M508.6,390.2c-1.1,0-2.2-0.3-3.1-0.8s-1.7-1.3-2.2-2.2l-3.2-5.7h3.5L508.6,390.2z M501.1,381.5c0.6,0,1.2-0.2,1.7-0.5
		s0.9-0.7,1.3-1.2c0.3-0.5,0.5-1.1,0.5-1.7v-2c0-0.6-0.2-1.2-0.5-1.7s-0.7-1-1.3-1.3c-0.5-0.3-1.1-0.5-1.7-0.5H501L501.1,381.5
		L501.1,381.5z"/>
	<path class="st1" d="M517.7,390.3c-1.2,0-2.5-0.3-3.5-1c-1.1-0.6-2-1.5-2.6-2.6c-0.7-1.1-1-2.3-1-3.6v-6.9c0-1.3,0.4-2.5,1-3.6
		s1.5-2,2.6-2.6c1.1-0.7,2.3-1,3.5-1c3.2,0,6,2.2,6.8,5.3c0,0.1,0.1,0.2,0.1,0.4c0,0.8-0.7,1.4-1.4,1.4l0,0h-0.5
		c-0.8,0-1.4-0.6-1.4-1.4v-0.3c0-1-0.8-1.7-1.7-1.8c-0.5,0-0.9,0.1-1.3,0.5c-0.3,0.3-0.5,0.8-0.5,1.3V385c0,0.5,0.2,1,0.5,1.3
		s0.8,0.5,1.3,0.5c0.3,0,0.6-0.1,0.9-0.3c0.3-0.2,0.5-0.4,0.6-0.7l0.1-0.2c0.1-0.2,0.3-0.3,0.5-0.4s0.4-0.2,0.6-0.2
		c0.4,0,0.7,0.2,1,0.4c0.3,0.3,0.4,0.6,0.4,1c0,0.3-0.1,0.6-0.3,0.8c-0.6,0.9-1.5,1.7-2.5,2.2C519.9,390,518.8,390.3,517.7,390.3z
		 M513.7,380.3h7.5c0.5,0,0.9,0.2,1.2,0.5c0.7,0.7,0.7,1.8,0,2.5c-0.3,0.3-0.8,0.5-1.2,0.5h-7.5V380.3z"/>
	<path class="st1" d="M540.1,390.3c-0.6,0-1.1-0.2-1.5-0.6s-0.7-1-0.7-1.6v-7.6c0-0.8-0.2-1.5-0.6-2.1c-0.4-0.7-0.9-1.2-1.5-1.6
		s-1.4-0.6-2.1-0.6h-0.1v10.6c0,1.9-1.6,3.5-3.5,3.5l0,0c-0.9,0-1.8-0.4-2.5-1.1s-1-1.6-1-2.5v-10.5c0-1.2,0.3-2.5,1-3.5
		c0.6-1.1,1.5-1.9,2.6-2.6c1.1-0.6,2.3-1,3.5-1c1.5,0,3,0.3,4.4,1c1.3,0.6,2.4,1.5,3.2,2.6c0.8,1,1.2,2.3,1.2,3.5v11.9
		c0,0.6-0.2,1.1-0.6,1.6C541.3,390.1,540.7,390.3,540.1,390.3z M547.3,390.3c-1,0-1.8-0.7-1.8-1.7c0,0,0,0,0-0.1v-8.9
		c0-0.9-0.3-1.8-1-2.4c-0.6-0.7-1.5-1-2.4-1h-7.2c0-1.2,0.4-2.5,1-3.5c0.6-1.1,1.5-2,2.6-2.6s2.3-1,3.5-1s2.5,0.3,3.5,1
		c1.1,0.6,1.9,1.5,2.6,2.6c0.6,1.1,1,2.3,1,3.5v12.4C549.1,389.5,548.3,390.3,547.3,390.3L547.3,390.3L547.3,390.3z"/>
	<path class="st1" d="M558.9,390.3c-1.2,0-2.5-0.3-3.5-1c-1.1-0.6-2-1.5-2.6-2.6s-1-2.3-1-3.6v-6.9c0-1.3,0.3-2.5,1-3.6
		c0.6-1.1,1.5-2,2.6-2.6c1.1-0.7,2.3-1,3.5-1c1.6,0,3.1,0.5,4.3,1.5c1.2,0.9,2.1,2.3,2.5,3.8c0,0.1,0.1,0.2,0.1,0.4
		c0,0.4-0.2,0.7-0.4,1c-0.3,0.3-0.6,0.4-1,0.4h-0.5c-0.4,0-0.7-0.1-1-0.4s-0.4-0.6-0.4-1v-0.3c0-0.5-0.2-0.9-0.5-1.2
		c-0.7-0.7-1.8-0.7-2.5,0c-0.3,0.3-0.5,0.8-0.5,1.3V385c0,0.5,0.2,1,0.5,1.3s0.8,0.5,1.3,0.5c0.3,0,0.6-0.1,0.9-0.3
		c0.3-0.2,0.5-0.4,0.6-0.7l0.1-0.2c0.1-0.2,0.3-0.3,0.5-0.4s0.4-0.2,0.6-0.2c0.4,0,0.7,0.2,1,0.4c0.3,0.3,0.4,0.6,0.4,1
		c0,0.3-0.1,0.6-0.3,0.8c-0.6,0.9-1.5,1.7-2.5,2.2C561.2,390,560.1,390.3,558.9,390.3z M554.9,380.3h7.5c0.5,0,0.9,0.2,1.2,0.5
		c0.7,0.7,0.7,1.8,0,2.5c-0.3,0.3-0.8,0.5-1.2,0.5h-7.5V380.3z"/>
	<path class="st1" d="M65.8,426.5c-1.9,0-3.5-1.5-3.5-3.5c0,0,0,0,0-0.1v-17.6c1.3,0,2.4,0.6,3.1,1.7c0.3,0.5,0.5,1.1,0.5,1.8
		L65.8,426.5L65.8,426.5z"/>
	<path class="st1" d="M70.9,409.4c-1.9,0-3.5-1.6-3.5-3.5l0,0h15.5c0,1.9-1.6,3.5-3.5,3.5H70.9z M75.1,426.5c-0.5,0-0.9-0.2-1.3-0.5
		c-0.3-0.3-0.5-0.8-0.5-1.2v-17.6h3.5v17.6C76.9,425.8,76.1,426.5,75.1,426.5L75.1,426.5z"/>
	<path class="st2" d="M93,426.5c-0.5,0-0.9-0.2-1.2-0.5c-0.3-0.3-0.5-0.8-0.5-1.3v-17.6c0-0.9,0.8-1.7,1.7-1.7h1.7
		c1.3,0,2.5,0.3,3.6,1c1.1,0.6,2,1.5,2.6,2.6s1,2.3,0.9,3.5c0.1,1-0.1,2-0.6,2.9c-0.1,0.2-0.2,0.5-0.2,0.7s0.1,0.5,0.2,0.7
		c0.4,0.9,0.6,1.8,0.6,2.8c0,1.1-0.3,2.2-0.8,3.2s-1.3,1.9-2.2,2.5c-0.9,0.7-1.9,1.1-3,1.3L93,426.5z M94.9,418.5
		c0.5,0,1.1-0.1,1.6-0.3c1.6-0.6,2.7-2.2,2.7-4V412c0-1.5-0.8-3-2.1-3.8c-0.6-0.4-1.4-0.6-2.1-0.6h-0.1v4.4v6.3V418.5z M94.8,424.8
		c1.9,0,3.4-1.5,3.4-3.4v-2c0-0.1,0-0.2,0-0.4c0-0.1,0-0.1,0-0.2s0-0.2,0-0.3c-1,0.6-2.2,1-3.4,1v1.5V424.8L94.8,424.8z"/>
	<path class="st1" d="M109.9,426.5c-1,0-2-0.3-2.9-0.8s-1.6-1.2-2.1-2.1s-0.8-1.9-0.8-2.9v-9.6c0-1,0.3-2,0.8-2.9s1.2-1.6,2.1-2.1
		s1.9-0.8,2.9-0.8c1.2,0,2.5,0.4,3.4,1.1c1,0.7,1.7,1.7,2.1,2.8c0,0.2,0.1,0.4,0.1,0.6c0,0.3-0.1,0.6-0.3,0.8
		c-0.2,0.2-0.5,0.4-0.8,0.4H114c-0.3,0-0.6-0.1-0.8-0.4c-0.2-0.2-0.3-0.5-0.3-0.8c0-0.7-0.3-1.3-0.8-1.8s-1.1-0.8-1.8-0.8
		c-0.7,0-1.4,0.3-1.9,0.8s-0.8,1.2-0.8,1.9l0.2,12.6c0,0.7,0.3,1.4,0.8,1.9c0.9,0.9,2.2,1,3.2,0.4c0.4-0.2,0.7-0.6,0.9-1.1l0.1-0.2
		c0.1-0.2,0.2-0.5,0.4-0.7c0.2-0.2,0.4-0.3,0.7-0.3c0.3,0,0.6,0.1,0.8,0.3c0.2,0.2,0.3,0.4,0.3,0.7c0,0.2-0.1,0.4-0.2,0.6
		c-0.5,0.7-1.2,1.3-2,1.7C111.8,426.3,110.8,426.5,109.9,426.5z M107.2,417.4h5.9c0.2,0,0.5,0.1,0.6,0.3c0.3,0.3,0.3,0.9,0,1.2
		c-0.2,0.2-0.4,0.3-0.6,0.3h-5.9V417.4z"/>
	<path class="st1" d="M123.7,426.5c-0.9,0-1.9-0.2-2.7-0.7c-0.8-0.5-1.5-1.1-2-2c-0.5-0.8-0.8-1.7-0.8-2.7v-10.4
		c0-0.9,0.2-1.9,0.7-2.7c0.5-0.8,1.2-1.5,2-2s1.8-0.7,2.7-0.7c1.3,0,2.6,0.3,3.7,1.1c1,0.7,1.7,1.7,2.1,2.8c0,0.2,0.1,0.4,0.1,0.6
		c0,0.3-0.1,0.6-0.3,0.8c-0.2,0.2-0.5,0.3-0.8,0.3h-0.3c-0.3,0-0.6-0.1-0.8-0.3c-0.2-0.2-0.3-0.5-0.3-0.8c0-0.7-0.3-1.4-0.8-1.9
		s-1.1-0.8-1.8-0.8c-0.7,0-1.4,0.2-1.9,0.8c-0.5,0.5-0.8,1.2-0.8,1.9l0.1,12.5c0,1.5,1.2,2.7,2.7,2.7l0,0c0.5,0,1-0.1,1.4-0.4
		s0.7-0.6,0.9-1.1c0-0.1,0.1-0.2,0.1-0.3c0-0.2,0.1-0.4,0.3-0.6c0.2-0.2,0.4-0.2,0.6-0.2c0.3,0,0.6,0.1,0.8,0.3
		c0.2,0.2,0.3,0.4,0.3,0.7c0,0.2-0.1,0.4-0.2,0.6c-0.5,0.7-1.2,1.3-2,1.7C125.8,426.4,124.8,426.6,123.7,426.5z"/>
	<path class="st1" d="M137.1,426.5c-0.9,0-1.8-0.2-2.6-0.7s-1.4-1.1-1.9-1.9s-0.7-1.7-0.7-2.7v-10.6c0-0.9,0.2-1.9,0.7-2.7
		c0.5-0.8,1.1-1.4,1.9-1.9c0.8-0.5,1.7-0.7,2.6-0.7h1.4c0.9,0,1.8,0.2,2.6,0.7s1.5,1.1,1.9,1.9c0.5,0.8,0.7,1.7,0.7,2.7v10.6
		c0,0.9-0.2,1.8-0.7,2.6c-0.5,0.8-1.1,1.5-1.9,1.9c-0.8,0.5-1.7,0.7-2.6,0.7L137.1,426.5z M137.9,424.8c1.9,0,3.5-1.6,3.5-3.5V416
		c0-1.2-0.3-2.4-0.9-3.5c-0.6-1.1-1.5-2-2.6-2.6s-2.3-1-3.5-1v12.3c0,0.9,0.3,1.8,1,2.5C136,424.4,136.9,424.8,137.9,424.8
		L137.9,424.8z"/>
	<path class="st2" d="M155.5,426.5c-1,0-1.7-0.8-1.8-1.7l0,0v-10.7c0-0.6-0.2-1.2-0.5-1.7s-0.7-0.9-1.2-1.3
		c-0.5-0.3-1.1-0.5-1.7-0.5l-0.1,0.2l-0.1,13.9c0,0.5-0.2,0.9-0.5,1.3c-0.3,0.3-0.8,0.5-1.3,0.5s-0.9-0.2-1.2-0.5s-0.5-0.8-0.5-1.3
		v-14.1c0-0.9,0.2-1.9,0.7-2.7c0.5-0.8,1.1-1.5,1.9-1.9c1.6-0.9,3.7-0.9,5.3,0s2.6,2.7,2.6,4.6l0.1,14.1c-0.1,0.5-0.4,0.9-0.7,1.3
		C156.3,426.4,155.9,426.6,155.5,426.5z M162.3,426.5c-0.5,0-0.9-0.2-1.3-0.5c-0.3-0.3-0.5-0.8-0.5-1.2v-10.7c0-0.9-0.4-1.8-1-2.4
		c-0.7-0.6-1.5-1-2.4-1h-3.5c0-0.9,0.2-1.9,0.7-2.7c0.4-0.8,1.1-1.5,1.9-1.9c1.6-0.9,3.6-0.9,5.3,0c0.8,0.5,1.4,1.1,1.9,1.9
		s0.7,1.7,0.7,2.7v14.1C164.1,425.8,163.3,426.6,162.3,426.5C162.3,426.6,162.3,426.6,162.3,426.5L162.3,426.5z"/>
	<path class="st1" d="M173,426.5c-1,0-2-0.3-2.9-0.8s-1.6-1.2-2.1-2.1s-0.8-1.9-0.8-2.9v-9.6c0-1,0.3-2,0.8-2.9s1.2-1.6,2.1-2.1
		c0.9-0.5,1.9-0.8,2.9-0.8c1.2,0,2.4,0.4,3.4,1.1s1.7,1.7,2.1,2.8c0,0.2,0.1,0.4,0.1,0.6c0,0.3-0.1,0.6-0.4,0.8
		c-0.2,0.2-0.5,0.4-0.8,0.4H177c-0.3,0-0.6-0.1-0.8-0.4c-0.2-0.2-0.3-0.5-0.3-0.8c0-0.7-0.3-1.3-0.8-1.8s-1.1-0.8-1.8-0.8
		s-1.4,0.3-1.9,0.8s-0.8,1.2-0.8,1.9l0.2,12.6c0,0.7,0.3,1.4,0.8,1.9s1.2,0.8,1.9,0.8c0.5,0,0.9-0.1,1.3-0.4
		c0.4-0.2,0.7-0.6,0.9-1.1l0.1-0.2c0.1-0.3,0.2-0.5,0.4-0.7s0.4-0.3,0.7-0.3s0.6,0.1,0.8,0.3c0.2,0.2,0.3,0.4,0.3,0.7
		c0,0.2-0.1,0.4-0.2,0.6c-0.5,0.7-1.2,1.3-2,1.7C174.8,426.3,173.9,426.5,173,426.5z M170.3,417.4h5.9c0.5,0,0.9,0.4,0.9,0.9
		c0,0.2-0.1,0.5-0.3,0.6c-0.2,0.2-0.4,0.3-0.6,0.3h-5.9L170.3,417.4L170.3,417.4z"/>
	<path class="st1" d="M186.2,426.5c-2.4,0-4.4-1.5-5.1-3.8c-0.1-0.1-0.1-0.2-0.1-0.4c0-0.3,0.1-0.6,0.4-0.9c0.2-0.2,0.6-0.4,0.9-0.4
		c0.3,0,0.7,0.1,0.9,0.4c0.2,0.2,0.4,0.5,0.4,0.9v0.1c0,0.4,0.2,0.7,0.5,1s0.7,0.4,1.1,0.4c0.4,0,0.9-0.2,1.2-0.5
		c0.4-0.3,0.6-0.8,0.6-1.2c0-0.6-0.1-1.1-0.3-1.6c-0.3-0.5-0.6-1-1-1.5l-1.2-1.5l-0.8-0.9c-0.5-0.5-1-1.1-1.4-1.6s-0.8-1.1-1-1.8
		c-0.3-0.8-0.4-1.6-0.4-2.5c0-1,0.2-1.9,0.7-2.7c0.5-0.8,1.2-1.5,2-2s1.8-0.8,2.7-0.7c1.1,0,2.3,0.3,3.3,0.9
		c0.9,0.6,1.6,1.4,1.9,2.5c0.1,0.3,0.1,0.5,0.1,0.8s-0.1,0.6-0.4,0.9c-0.2,0.2-0.6,0.4-0.9,0.4c-0.3,0-0.7-0.1-0.9-0.4
		c-0.2-0.2-0.4-0.5-0.4-0.9v-0.1c0-0.4-0.2-0.7-0.5-1c-0.7-0.6-1.8-0.6-2.4,0.2c-0.3,0.3-0.4,0.7-0.4,1.1c0,0.8,0.2,1.5,0.5,2.2
		c0.4,0.6,0.9,1.2,1.4,1.6l1.1,0.9c0.9,0.8,1.6,1.7,2.2,2.7c0.6,1.2,0.9,2.6,0.8,4c0,1-0.2,1.9-0.7,2.7c-0.5,0.8-1.1,1.5-1.9,2
		C188,426.3,187.1,426.6,186.2,426.5z"/>
	<path class="st2" d="M210.1,405.4c0.4,0,0.8,0.2,1.1,0.5c0.3,0.4,0.5,0.8,0.7,1.3l-0.1,14.1c0,1.9-1,3.6-2.6,4.6
		c-1.6,0.9-3.7,0.9-5.3,0s-2.6-2.7-2.6-4.6v-14.1c0-0.5,0.2-0.9,0.5-1.3c0.7-0.7,1.8-0.7,2.5,0l0,0c0.3,0.3,0.5,0.8,0.5,1.3
		l0.1,13.9l0.1,0.2c0.9,0,1.8-0.3,2.4-1c0.7-0.6,1-1.5,1-2.4v-10.7C208.4,406.2,209.1,405.4,210.1,405.4L210.1,405.4L210.1,405.4z
		 M217,405.4c1,0,1.7,0.8,1.8,1.7l0,0v14.1c0,0.9-0.2,1.9-0.7,2.7c-0.5,0.8-1.1,1.4-1.9,1.9c-1.6,0.9-3.6,0.9-5.3,0
		c-0.8-0.5-1.4-1.1-1.9-1.9s-0.7-1.7-0.7-2.7h3.5c0.9,0,1.8-0.4,2.4-1c0.6-0.6,1-1.5,1-2.4v-10.7c0-0.5,0.2-0.9,0.5-1.2
		C216.1,405.6,216.5,405.4,217,405.4L217,405.4z"/>
	<path class="st1" d="M223.7,426.5c-0.5,0-0.9-0.2-1.3-0.5c-0.3-0.3-0.5-0.8-0.5-1.3v-17.6c0-0.5,0.2-0.9,0.5-1.2
		c0.3-0.3,0.8-0.5,1.3-0.5s0.9,0.2,1.2,0.5s0.5,0.8,0.5,1.2v10.4c0,0.3,0.1,0.5,0.3,0.7s0.4,0.3,0.7,0.3h1.6c0.6,0,1-0.4,1-1v-10.3
		c0-0.5,0.2-0.9,0.5-1.2c0.3-0.3,0.8-0.5,1.3-0.5c1,0,1.7,0.8,1.8,1.7l0,0v17.6c0,1-0.8,1.7-1.7,1.8l0,0c-0.5,0-0.9-0.2-1.3-0.5
		c-0.3-0.3-0.5-0.8-0.5-1.2v-4.3c0-0.3-0.1-0.5-0.3-0.7s-0.4-0.3-0.7-0.3h-1.6c-0.3,0-0.5,0.1-0.7,0.3c-0.2,0.2-0.3,0.4-0.3,0.7v4.3
		c0,0.5-0.2,0.9-0.5,1.2C224.6,426.3,224.2,426.5,223.7,426.5z"/>
	<path class="st1" d="M237.4,426.5c-0.5,0-0.9-0.2-1.2-0.5s-0.5-0.8-0.5-1.3v-13.3c0-1.1,0.2-2.2,0.7-3.3c0.4-0.9,1.1-1.6,1.9-2.1
		c1.7-0.9,3.7-0.9,5.4,0c0.8,0.5,1.5,1.2,1.9,2.1c0.5,1,0.7,2.1,0.7,3.3v13.4c0,1-0.8,1.8-1.8,1.8s-1.8-0.8-1.8-1.8l0,0v-4.3
		c0-0.3-0.1-0.5-0.3-0.7s-0.4-0.3-0.7-0.3h-1.6c-0.6,0-1,0.4-1,1v4.3c0,0.5-0.2,0.9-0.5,1.3C238.3,426.4,237.8,426.6,237.4,426.5z
		 M241.7,418.5c0.3,0,0.5-0.1,0.7-0.3c0.2-0.2,0.3-0.4,0.3-0.7v-6.3c0-1.9-1.5-3.4-3.4-3.4h-0.1v9.7c0,0.3,0.1,0.5,0.3,0.7
		s0.4,0.3,0.7,0.3L241.7,418.5L241.7,418.5z"/>
	<path class="st1" d="M250.6,409.4c-1.9,0-3.5-1.5-3.5-3.5c0,0,0,0,0-0.1h15.5c0,0.9-0.3,1.8-1,2.5s-1.6,1-2.5,1L250.6,409.4z
		 M254.8,426.5c-1,0-1.8-0.8-1.8-1.7l0,0v-17.6h3.5v17.6C256.6,425.8,255.8,426.5,254.8,426.5L254.8,426.5z"/>
	<path class="st1" d="M269.7,426.5c-1,0-2-0.3-2.9-0.8c-1.8-1-2.9-2.9-2.9-5v-9.6c0-1,0.3-2,0.8-2.9s1.2-1.6,2.1-2.1
		s1.9-0.8,2.9-0.8c1.2,0,2.4,0.4,3.4,1.1s1.7,1.7,2.1,2.8c0,0.2,0.1,0.4,0.1,0.6c0,0.3-0.1,0.6-0.4,0.8c-0.2,0.2-0.5,0.4-0.8,0.4
		h-0.4c-0.3,0-0.6-0.1-0.8-0.4c-0.2-0.2-0.3-0.5-0.3-0.8c0-0.7-0.3-1.3-0.8-1.8s-1.1-0.8-1.8-0.8c-0.7,0-1.4,0.3-1.9,0.8
		s-0.8,1.2-0.8,1.9l0.2,12.6c0,0.7,0.3,1.4,0.8,1.9s1.2,0.8,1.9,0.8c0.5,0,0.9-0.1,1.3-0.4c0.4-0.2,0.7-0.6,0.9-1.1l0.1-0.2
		c0.1-0.2,0.2-0.5,0.4-0.7c0.2-0.2,0.4-0.3,0.7-0.3c0.3,0,0.6,0.1,0.8,0.3c0.2,0.2,0.3,0.4,0.3,0.7c0,0.2-0.1,0.4-0.2,0.6
		c-0.5,0.7-1.2,1.3-2,1.7C271.5,426.3,270.6,426.5,269.7,426.5z M267,417.4h5.9c0.5,0,0.9,0.4,0.9,0.9c0,0.2-0.1,0.5-0.3,0.6
		c-0.2,0.2-0.4,0.3-0.6,0.3H267V417.4z"/>
	<path class="st1" d="M279.9,426.5c-0.5,0-0.9-0.2-1.3-0.5c-0.3-0.3-0.5-0.8-0.5-1.2v-17.6c0-0.5,0.2-0.9,0.5-1.2
		c0.3-0.3,0.8-0.5,1.3-0.5s0.9,0.2,1.2,0.5c0.3,0.3,0.5,0.8,0.5,1.2v12.4l5.5-10.9c0.5-1,1.2-1.8,2.1-2.3c0.9-0.6,1.9-0.9,3-0.9
		l-9,18c-0.4,0.9-1,1.6-1.6,2.3C281.1,426.2,280.5,426.5,279.9,426.5z"/>
	<path class="st1" d="M298.7,426.5c-1,0-2-0.3-2.9-0.8c-1.8-1-2.9-2.9-2.9-5v-9.6c0-1,0.3-2,0.8-2.9s1.2-1.6,2.1-2.1
		s1.9-0.8,2.9-0.8c2.5,0,4.7,1.6,5.5,3.9c0,0.2,0.1,0.4,0.1,0.6c0,0.3-0.1,0.6-0.3,0.8c-0.2,0.2-0.5,0.4-0.8,0.4h-0.4
		c-0.3,0-0.6-0.1-0.8-0.4c-0.2-0.2-0.3-0.5-0.3-0.8c0-0.7-0.3-1.3-0.8-1.8s-1.1-0.8-1.8-0.8c-0.7,0-1.4,0.3-1.9,0.8
		s-0.8,1.2-0.8,1.9l0.2,12.6c0,0.7,0.3,1.4,0.8,1.9s1.2,0.8,1.9,0.8c0.5,0,0.9-0.1,1.3-0.4s0.7-0.6,0.9-1.1l0.1-0.2
		c0.1-0.2,0.2-0.5,0.4-0.7c0.2-0.2,0.4-0.3,0.7-0.3c0.3,0,0.6,0.1,0.8,0.3c0.2,0.2,0.3,0.4,0.3,0.7c0,0.2-0.1,0.4-0.2,0.6
		c-0.5,0.7-1.2,1.3-2,1.7C300.5,426.3,299.6,426.5,298.7,426.5z M296,417.4h5.9c0.5,0,0.9,0.4,0.9,0.9c0,0.2-0.1,0.5-0.3,0.6
		c-0.2,0.2-0.4,0.3-0.6,0.3H296V417.4z"/>
	<path class="st2" d="M308.2,426.5c-0.5,0-0.9-0.2-1.2-0.5c-0.3-0.3-0.5-0.8-0.5-1.3v-17.6c0-0.5,0.2-0.9,0.5-1.2
		c0.3-0.3,0.8-0.5,1.3-0.5h1.6c1.3,0,2.5,0.3,3.6,1c1.1,0.6,2,1.5,2.6,2.6s1,2.3,1,3.5c0,1.1-0.3,2.2-0.8,3.2s-1.2,1.8-2.1,2.5
		s-1.9,1.1-2.9,1.2c-0.4,0.1-0.8,0.1-1.2,0.1v5.3c0,0.5-0.2,0.9-0.5,1.2C309.2,426.3,308.7,426.6,308.2,426.5z M316.8,426.7
		c-0.9,0-1.8-0.3-2.5-0.8c-0.8-0.6-1.5-1.4-2-2.2l-2.8-4.8h2.8L316.8,426.7z M310,418.3c2.4,0,4.3-1.9,4.3-4.2c0,0,0,0,0-0.1v-1.9
		c0-0.8-0.2-1.5-0.6-2.2c-0.8-1.3-2.2-2.2-3.8-2.1h-0.1v10.5L310,418.3L310,418.3z"/>
	<path class="st1" d="M332.1,426.5c-0.5,0-0.9-0.2-1.2-0.5c-0.3-0.3-0.5-0.8-0.5-1.3l-0.1-6c-1.4,0-2.7-1-3.1-2.4
		c-0.7-2.2-1-4.5-0.9-6.9v-4.2c0.9,0,1.9,0.3,2.6,0.9c0.8,0.6,1.5,1.4,1.9,2.3c0.5,0.9,0.7,1.9,0.7,2.9v6.4h0.6
		c0.9,0,1.7-0.3,2.3-0.9c0.3-0.3,0.5-0.6,0.6-1c0.1-0.5,0.2-0.9,0.2-1.4V407c0-1,0.8-1.8,1.7-1.8c0.5,0,0.9,0.2,1.3,0.5
		c0.3,0.3,0.5,0.8,0.5,1.2v5.5c0,1-0.2,1.9-0.6,2.8s-1,1.7-1.7,2.3c-0.7,0.6-1.7,0.9-2.6,0.9v6.1c0,0.5-0.2,0.9-0.5,1.3
		C333,426.4,332.6,426.5,332.1,426.5z"/>
	<path class="st1" d="M347,426.5c-0.9,0-1.8-0.2-2.6-0.7c-0.8-0.5-1.5-1.1-1.9-1.9c-0.5-0.8-0.7-1.7-0.7-2.7v-10.6
		c0-0.9,0.2-1.9,0.7-2.7c0.5-0.8,1.1-1.4,1.9-1.9s1.7-0.7,2.6-0.7h1.4c0.9,0,1.8,0.2,2.6,0.7c0.8,0.5,1.4,1.1,1.9,1.9
		s0.7,1.7,0.7,2.7v10.6c0,0.9-0.2,1.8-0.7,2.6c-0.5,0.8-1.1,1.5-1.9,1.9c-0.8,0.5-1.7,0.7-2.6,0.7H347V426.5z M347.8,424.8
		c1.9,0,3.5-1.6,3.5-3.5V416c0-1.2-0.3-2.4-1-3.5c-0.6-1.1-1.5-2-2.6-2.6s-2.3-1-3.5-1v12.3c0,0.9,0.3,1.8,1,2.5
		S346.8,424.8,347.8,424.8L347.8,424.8z"/>
	<path class="st1" d="M361.7,426.5c-0.9,0-1.8-0.2-2.6-0.7c-0.8-0.5-1.5-1.1-1.9-2c-0.5-0.8-0.7-1.7-0.7-2.6v-14.1
		c0-0.5,0.2-0.9,0.5-1.3c0.7-0.7,1.8-0.7,2.5,0l0,0c0.3,0.3,0.5,0.8,0.5,1.3v13.4c0,0.5,0.2,0.9,0.5,1.2c0.3,0.3,0.8,0.5,1.2,0.5
		c0.5,0,0.9-0.2,1.3-0.5c0.3-0.3,0.5-0.8,0.5-1.3l0.1-13.3c0-0.5,0.2-1,0.5-1.3c0.3-0.4,0.8-0.5,1.3-0.5s0.9,0.2,1.2,0.5
		c0.3,0.3,0.5,0.8,0.5,1.2l-0.2,14.1c0,0.9-0.3,1.8-0.7,2.6c-0.5,0.8-1.1,1.5-1.9,2C363.6,426.3,362.6,426.5,361.7,426.5z"/>
	<path class="st1" d="M386,405.4c0.4,0,0.8,0.2,1.1,0.5c0.3,0.4,0.5,0.8,0.7,1.3l-0.1,14.1c0,0.9-0.2,1.8-0.7,2.6
		c-0.5,0.8-1.1,1.5-1.9,1.9c-1.6,0.9-3.7,0.9-5.3,0c-0.8-0.5-1.5-1.1-1.9-1.9c-0.5-0.8-0.7-1.7-0.7-2.7v-14.1c0-0.5,0.2-0.9,0.5-1.3
		c0.3-0.3,0.8-0.5,1.2-0.5c0.5,0,0.9,0.2,1.3,0.5c0.3,0.3,0.5,0.8,0.5,1.3l0.1,13.9l0.1,0.2c0.9,0,1.8-0.3,2.4-1
		c0.7-0.6,1-1.5,1-2.4v-10.7c0-0.5,0.2-0.9,0.5-1.2C385.1,405.6,385.5,405.4,386,405.4z M392.9,405.4c0.5,0,0.9,0.2,1.2,0.5
		c0.3,0.3,0.5,0.8,0.5,1.2v14.1c0,0.9-0.2,1.9-0.7,2.7c-0.5,0.8-1.1,1.4-1.9,1.9s-1.7,0.7-2.7,0.7c-1.9,0-3.6-1-4.5-2.6
		c-0.5-0.8-0.7-1.7-0.7-2.7h3.5c0.9,0,1.8-0.4,2.4-1c0.7-0.6,1-1.5,1-2.4v-10.7c0-0.5,0.2-0.9,0.5-1.2
		C391.9,405.6,392.4,405.4,392.9,405.4L392.9,405.4z"/>
	<path class="st1" d="M399.6,426.5c-0.5,0-0.9-0.2-1.2-0.5c-0.3-0.3-0.5-0.8-0.5-1.3v-13.3c0-1.1,0.2-2.2,0.7-3.3
		c0.4-0.9,1.1-1.6,1.9-2.1c1.7-0.9,3.7-0.9,5.4,0c0.8,0.5,1.5,1.2,1.9,2.1c0.5,1,0.7,2.1,0.7,3.3v13.4c0,1-0.8,1.7-1.7,1.8l0,0
		c-1,0-1.7-0.8-1.8-1.8v-4.3c0-0.3-0.1-0.5-0.3-0.7c-0.2-0.2-0.4-0.3-0.7-0.3h-1.6c-0.3,0-0.5,0.1-0.7,0.3c-0.2,0.2-0.3,0.4-0.3,0.7
		v4.3C401.4,425.7,400.6,426.5,399.6,426.5L399.6,426.5z M403.9,418.5c0.3,0,0.5-0.1,0.7-0.3c0.2-0.2,0.3-0.4,0.3-0.7v-6.3
		c0-1.9-1.5-3.4-3.4-3.4h-0.1v9.7c0,0.3,0.1,0.5,0.3,0.7c0.2,0.2,0.4,0.3,0.7,0.3L403.9,418.5L403.9,418.5z"/>
	<path class="st2" d="M413.3,426.5c-0.5,0-0.9-0.2-1.2-0.5c-0.3-0.3-0.5-0.8-0.5-1.3v-17.6c0-0.5,0.2-0.9,0.5-1.3
		c0.3-0.3,0.8-0.5,1.3-0.5c0.3,0,0.5,0.1,0.8,0.2c0.2,0.1,0.4,0.3,0.6,0.5c0.4-0.3,0.8-0.5,1.2-0.6c0.5-0.1,1-0.1,1.5-0.1h0.7
		c1.7-0.1,3.3,0.7,4.3,2c1,1.5,1.5,3.3,1.5,5.1v12.4c0,1-0.8,1.7-1.7,1.8l0,0c-0.5,0-0.9-0.2-1.3-0.5c-0.3-0.3-0.5-0.8-0.5-1.2V416
		c0-0.9-0.2-1.8-0.7-2.6c-0.5-0.8-1.1-1.5-1.9-1.9c-0.8-0.5-1.7-0.7-2.6-0.7l-0.1,14.1c0,0.5-0.2,0.9-0.5,1.2
		C414.2,426.4,413.8,426.6,413.3,426.5z"/>
	<path class="st1" d="M429.1,409.4c-1.9,0-3.5-1.5-3.5-3.5c0,0,0,0,0-0.1h15.5c0,1.9-1.5,3.5-3.5,3.5l0,0h-8.5V409.4z M433.3,426.5
		c-0.5,0-0.9-0.2-1.3-0.5c-0.3-0.3-0.5-0.8-0.5-1.2v-17.6h3.5v17.6C435.1,425.8,434.3,426.5,433.3,426.5L433.3,426.5z"/>
	<path class="st1" d="M453,426.5c-1.9,0-3.5-1.5-3.5-3.5c0,0,0,0,0-0.1v-17.6c1.3,0,2.4,0.6,3.1,1.7c0.3,0.5,0.5,1.1,0.5,1.8v17.7
		H453z"/>
	<path class="st1" d="M458.1,409.4c-1.9,0-3.5-1.6-3.5-3.5l0,0h15.5c0,1.9-1.6,3.5-3.5,3.5H458.1z M462.3,426.5
		c-0.5,0-0.9-0.2-1.3-0.5c-0.3-0.3-0.5-0.8-0.5-1.2v-17.6h3.5v17.6C464.1,425.8,463.3,426.5,462.3,426.5
		C462.4,426.5,462.3,426.5,462.3,426.5z"/>
	<path class="st1" d="M480.5,409.4c-1.9,0-3.5-1.5-3.5-3.5c0,0,0,0,0-0.1h15.5c0,1.9-1.5,3.5-3.5,3.5l0,0h-8.5V409.4z M484.8,426.5
		c-1,0-1.8-0.8-1.8-1.7l0,0v-17.6h3.5v17.6C486.5,425.8,485.7,426.5,484.8,426.5z"/>
	<path class="st1" d="M499.1,426.5c-0.9,0-1.8-0.2-2.6-0.7c-0.8-0.5-1.5-1.1-1.9-1.9c-0.5-0.8-0.7-1.7-0.7-2.7v-10.6
		c0-0.9,0.2-1.9,0.7-2.7c0.5-0.8,1.1-1.4,1.9-1.9s1.7-0.7,2.6-0.7h1.4c0.9,0,1.8,0.2,2.6,0.7c0.8,0.5,1.4,1.1,1.9,1.9
		s0.7,1.7,0.7,2.7v10.6c0,0.9-0.2,1.8-0.7,2.6c-0.5,0.8-1.1,1.5-1.9,1.9c-0.8,0.5-1.7,0.7-2.6,0.7L499.1,426.5z M499.9,424.8
		c1.9,0,3.5-1.6,3.5-3.5V416c0-1.2-0.4-2.5-1-3.5c-0.6-1.1-1.5-1.9-2.6-2.6c-1.1-0.6-2.3-1-3.5-1v12.3c0,0.9,0.3,1.8,1,2.5
		S498.9,424.8,499.9,424.8z"/>
	<path class="st1" d="M517.1,426.5c-0.5,0-0.9-0.2-1.2-0.5s-0.5-0.8-0.5-1.3v-17.6c0-0.5,0.2-0.9,0.5-1.2c0.3-0.3,0.8-0.5,1.2-0.5
		h1.7c1.3,0,2.5,0.3,3.6,1c1.1,0.6,2,1.5,2.6,2.6s1,2.3,1,3.5c0.1,1-0.1,2-0.6,2.9c-0.1,0.2-0.2,0.5-0.2,0.7s0.1,0.5,0.2,0.7
		c0.4,0.9,0.6,1.8,0.6,2.8c0,1.1-0.3,2.2-0.8,3.2s-1.3,1.8-2.2,2.5s-1.9,1.1-3,1.3L517.1,426.5z M519,418.5c1.1,0,2.1-0.4,2.9-1.1
		c0.4-0.4,0.8-0.9,1-1.4c0.2-0.6,0.4-1.1,0.4-1.8V412c0-0.8-0.2-1.5-0.6-2.2c-0.4-0.7-0.9-1.2-1.5-1.6s-1.4-0.6-2.1-0.6H519v4.4v6.3
		L519,418.5z M519,424.8c1.9,0,3.4-1.5,3.4-3.4v-2c0-0.1,0-0.2,0-0.4c0-0.1,0-0.1,0-0.2s0-0.2,0-0.3c-1,0.6-2.2,1-3.4,1v1.5V424.8
		L519,424.8z"/>
	<path class="st1" d="M534,426.5c-1,0-2-0.3-2.9-0.8c-1.8-1-2.9-2.9-2.9-5v-9.6c0-1,0.3-2,0.8-2.9s1.2-1.6,2.1-2.1
		c0.9-0.5,1.9-0.8,2.9-0.8c1.2,0,2.4,0.4,3.4,1.1s1.7,1.7,2.1,2.8c0,0.2,0.1,0.4,0.1,0.6c0,0.3-0.1,0.6-0.3,0.8
		c-0.2,0.2-0.5,0.4-0.8,0.4H538c-0.3,0-0.6-0.1-0.8-0.4c-0.2-0.2-0.3-0.5-0.3-0.8c0-0.7-0.3-1.3-0.8-1.8s-1.1-0.8-1.8-0.8
		s-1.4,0.3-1.9,0.8s-0.8,1.2-0.8,1.9l0.2,12.6c0,0.7,0.3,1.4,0.8,1.9s1.2,0.8,1.9,0.8c0.5,0,0.9-0.1,1.3-0.4
		c0.4-0.2,0.7-0.6,0.9-1.1l0.1-0.2c0.1-0.2,0.2-0.5,0.4-0.7s0.4-0.3,0.7-0.3s0.6,0.1,0.8,0.3c0.2,0.2,0.3,0.4,0.3,0.7
		c0,0.2-0.1,0.4-0.2,0.6c-0.5,0.7-1.2,1.3-2,1.7C535.9,426.4,534.9,426.6,534,426.5z M531.3,417.4h5.9c0.5,0,0.9,0.4,0.9,0.9
		c0,0.2-0.1,0.5-0.3,0.6c-0.2,0.2-0.4,0.3-0.6,0.3h-5.8L531.3,417.4z"/>
	<path class="st2" d="M200,539"/>
</g>
<g id="Layer_2">
	<text transform="matrix(1 0 0 1 283.2918 29.0855)" class="st1 st3 st4">Version 1</text>
	<text transform="matrix(1 0 0 1 282.9168 188.6831)" class="st1 st3 st4">Version 2</text>
	<text transform="matrix(1 0 0 1 274.0691 348.2806)" class="st1 st3 st4">Final Version</text>
	<line class="st5" x1="275.4" y1="198.5" x2="336.6" y2="198.5"/>
	<line class="st5" x1="275.4" y1="39.2" x2="336.6" y2="39.2"/>
	<line class="st5" x1="275.4" y1="358.5" x2="336.6" y2="358.5"/>
</g>
</svg>
