<svg id="Layer_1" data-name="Layer 1" xmlns="http://www.w3.org/2000/svg" viewBox="0 0 1366 768"><defs><style>.cls-1{fill:#d3a24f;}.cls-2{fill:#7d4900;}.cls-3{fill:#fff;}</style></defs><path class="cls-1" d="M196.27,317.22a4.22,4.22,0,0,0-3,1.23c-4.37,4.37-10.9,20.49-14.93,36.75-4.5,18.18-4.91,32.42-1,36.29,8.81,8.81,63.64-6.57,73-15.9a6.78,6.78,0,0,0-1.95-11c-21.64-9.87-37-23.38-45.77-40.14h0c-.75-1.45-1.47-3-2.12-4.47a4.52,4.52,0,0,0-3.31-2.63A5,5,0,0,0,196.27,317.22Z"/><path class="cls-1" d="M563.09,355.2c-4-16.26-10.55-32.38-14.86-36.68l-.07-.07a4.21,4.21,0,0,0-3-1.23,5.1,5.1,0,0,0-.86.08,4.5,4.5,0,0,0-3.3,2.63c-.66,1.51-1.37,3-2.13,4.47-8.73,16.76-24.13,30.27-45.77,40.14a6.73,6.73,0,0,0-3.9,5,6.64,6.64,0,0,0,1.86,6c9.42,9.43,64.25,24.81,73.06,16C568,387.62,567.59,373.38,563.09,355.2Z"/><path class="cls-1" d="M400.16,353.63a7,7,0,0,0,1.4,1.35c9.59,7.31,46.45,13.82,73.72,3.85,17.93-6.56,41.82-19.18,53.74-42.07a65.67,65.67,0,0,0,4.93-12.5c5.28-18.85-34.88-55.24-62.9-68.11a9.33,9.33,0,0,0-8.74.44,10.3,10.3,0,0,0-5,8.12c0,.43-.08.84-.14,1.22C452.2,277.59,425.72,327.48,400.16,353.63Z"/><path class="cls-1" d="M341.28,353.66a7,7,0,0,1-1.4,1.35c-9.59,7.31-46.44,13.82-73.72,3.85-17.93-6.56-41.81-19.18-53.74-42.07a65.67,65.67,0,0,1-4.93-12.5c-5.28-18.85,34.88-55.24,62.91-68.11a9.32,9.32,0,0,1,8.73.44,10.28,10.28,0,0,1,5,8.12c0,.43.08.84.14,1.22C289.25,277.62,315.72,327.51,341.28,353.66Z"/><path class="cls-1" d="M370.72,183.43c-44.92,0-68.61,13.86-74.55,43.64a60,60,0,0,0-.71,12.28c0,.89,0,1.79,0,2.69,0,17.41,28.67,78.39,55.77,105.45,7.69,7.69,14.43,11.75,19.48,11.75s11.79-4.06,19.48-11.75C417.31,320.43,446,259.45,446,242c0-.9,0-1.8,0-2.69a60.68,60.68,0,0,0-.71-12.28h0C439.33,197.29,415.64,183.43,370.72,183.43Z"/><path class="cls-2" d="M210.51,553.18c13.71,0,28.27-9.94,28.27-28.37,0-14.72-12.17-25-29.6-25a167.89,167.89,0,0,0-25.42,2.05.33.33,0,0,0-.29.33v.31a.35.35,0,0,0,.2.31c3.68,1.64,5.63,5.18,5.63,10.23v54c0,5-2,8.58-5.63,10.23a.33.33,0,0,0-.2.31v.3a.34.34,0,0,0,.34.34h27.93a.34.34,0,0,0,.34-.34v-.3a.33.33,0,0,0-.2-.31c-3.69-1.65-5.64-5.19-5.64-10.23V552.85A23.15,23.15,0,0,0,210.51,553.18Zm-4.27-4V510.9c0-2.74.57-7.34,4.37-7.34,5.76,0,9.49,9.27,9.49,23.6,0,14.17-4.61,22-13,22Z"/><path class="cls-2" d="M260.13,523.35c-12.52,0-22.33,13.09-22.33,29.8,0,17.49,10.56,26.64,21,26.64,9.58,0,17.26-7,19.57-17.87a.34.34,0,0,0-.18-.37l-.61-.31a.33.33,0,0,0-.45.15A12.25,12.25,0,0,1,266,567.75c-7.88,0-12.4-7.06-12.75-19.89h25a.34.34,0,0,0,.34-.33v-2.26C278.58,532.57,270.82,523.35,260.13,523.35Zm-6.92,20.46c.22-10.5,1.95-16.51,4.77-16.51,2.61,0,3.94,5.4,4.06,16.51Z"/><path class="cls-2" d="M313.74,569.78l-.2-.41a.34.34,0,0,0-.2-.17.33.33,0,0,0-.26,0,15.31,15.31,0,0,1-6.9,2c-3.22,0-5-1.88-5-5.29V530.16h10.2a.34.34,0,0,0,.34-.33v-4.61a.34.34,0,0,0-.34-.34h-10.2V506.19a.34.34,0,0,0-.33-.34h-.41a.34.34,0,0,0-.29.16,78.81,78.81,0,0,1-22.72,23,.36.36,0,0,0-.15.28v.52a.34.34,0,0,0,.34.33h6.31v39.47c0,6.6,6,10.16,11.7,10.16,7.11,0,12.85-3.07,18.07-9.65A.33.33,0,0,0,313.74,569.78Z"/><path class="cls-2" d="M323.67,520.44c5.15,0,9.34-4.69,9.34-10.46,0-5.93-4.1-10.57-9.34-10.57s-9.24,4.64-9.24,10.57C314.43,515.75,318.58,520.44,323.67,520.44Z"/><path class="cls-2" d="M332.6,568.09v-45a.34.34,0,0,0-.33-.34H332a.32.32,0,0,0-.24.11c-4,4.11-13,7.67-19.72,7.77a.34.34,0,0,0-.33.34v.31a.35.35,0,0,0,.2.31c2.89,1.28,4.3,4.36,4.3,9.41v27.11c0,4.27-1.54,7.63-4.23,9.23a.34.34,0,0,0-.17.29v.3a.34.34,0,0,0,.34.34h24a.34.34,0,0,0,.34-.34v-.3a.34.34,0,0,0-.16-.29C334,575.84,332.6,572.47,332.6,568.09Z"/><path class="cls-2" d="M371.14,569.37a.34.34,0,0,0-.46-.15,15.31,15.31,0,0,1-6.9,2c-3.21,0-5-1.88-5-5.29V530.16H369a.34.34,0,0,0,.34-.33v-4.61a.34.34,0,0,0-.34-.34H358.8V506.19a.34.34,0,0,0-.34-.34h-.41a.32.32,0,0,0-.28.16,78.94,78.94,0,0,1-22.72,23,.33.33,0,0,0-.15.28v.52a.33.33,0,0,0,.33.33h6.32v39.47c0,6.6,6,10.16,11.69,10.16,7.11,0,12.85-3.07,18.07-9.65a.34.34,0,0,0,0-.36Z"/><path class="cls-2" d="M391,523.35c-12.52,0-22.33,13.09-22.33,29.8,0,17.49,10.57,26.64,21,26.64,9.58,0,17.26-7,19.56-17.87a.34.34,0,0,0-.18-.37l-.61-.31a.33.33,0,0,0-.45.15,12.24,12.24,0,0,1-11.16,6.36c-7.88,0-12.4-7.06-12.75-19.89h25a.33.33,0,0,0,.33-.33v-2.26C409.44,532.57,401.68,523.35,391,523.35Zm1.91,20.46h-8.82c.21-10.5,1.95-16.51,4.77-16.51C391.45,527.3,392.78,532.7,392.9,543.81Z"/><path class="cls-2" d="M443.89,553.18c13.71,0,28.27-9.94,28.27-28.37,0-14.72-12.17-25-29.6-25a167.89,167.89,0,0,0-25.42,2.05.33.33,0,0,0-.29.33v.31a.35.35,0,0,0,.2.31c3.68,1.64,5.63,5.18,5.63,10.23v54c0,5-1.95,8.58-5.63,10.23a.33.33,0,0,0-.2.31v.3a.34.34,0,0,0,.34.34h27.93a.34.34,0,0,0,.34-.34v-.3a.33.33,0,0,0-.2-.31c-3.69-1.65-5.63-5.19-5.63-10.23V552.85A23,23,0,0,0,443.89,553.18Zm-4.26-4V510.9c0-2.74.56-7.34,4.37-7.34,5.76,0,9.48,9.27,9.48,23.6,0,14.17-4.6,22-13,22Z"/><path class="cls-2" d="M518.35,574.22a.33.33,0,0,0,0-.33l-.3-.71a.33.33,0,0,0-.21-.19.34.34,0,0,0-.28,0,5.56,5.56,0,0,1-2.69.87c-1.72,0-3.45-1.54-3.45-5,0-4.69.16-10.73.31-16.57s.31-11.6.31-16.07c0-8.51-5.76-12.82-17.12-12.82-10.45,0-21.72,5.57-21.72,14.56,0,4.24,2.62,7.19,6.37,7.19,5.23,0,8-6.16,10.19-11.12,1.53-3.43,3-6.68,4.75-6.68,1,0,1.61,1.23,1.61,3.14,0,4.48-.12,11.4-.3,18.13-15.62,2.47-24.57,9.32-24.57,18.81,0,8.38,5.48,12.2,10.57,12.2,4.64,0,8.92-2.33,13.85-7.55.74,4.88,4.35,7.66,10,7.66C510,579.79,515.77,577.87,518.35,574.22Zm-22.52-22.91c-.19,6.25-.3,13.06-.3,18.35a7.18,7.18,0,0,1-4.06,1.47c-2.42,0-3.75-2.5-3.75-7C487.72,556.52,490.37,552.32,495.83,551.31Z"/><path class="cls-2" d="M567,577.34c-2.16-1.69-3.45-5.15-3.45-9.25V534.43c0-6.84-3.5-11.08-9.14-11.08s-13.26,5.77-17.21,10.15c.09-1.2.16-3,.16-4.6v-5.83a.34.34,0,0,0-.34-.34h-.31a.34.34,0,0,0-.24.11c-4.08,4.19-12.74,7.67-19.3,7.77a.34.34,0,0,0-.34.34v.31a.34.34,0,0,0,.19.3c3.06,1.58,4.32,4.31,4.32,9.42v27.11a11.57,11.57,0,0,1-4.38,9.25.34.34,0,0,0-.13.27v.3a.34.34,0,0,0,.34.34H541.2a.34.34,0,0,0,.33-.34v-.3a.34.34,0,0,0-.09-.24c-2.84-3-4.1-5.78-4.1-9.18V536.05a14.9,14.9,0,0,1,7.11-2c2,.09,3.06,2.15,3.06,6.11v28a12.19,12.19,0,0,1-4,9.18.34.34,0,0,0-.09.24v.3a.34.34,0,0,0,.33.34h23a.34.34,0,0,0,.34-.34v-.3A.31.31,0,0,0,567,577.34Z"/><path class="cls-2" d="M339.6,439.65l3.51-2.57a3,3,0,0,0,.64-4.2l-5-6.77a3,3,0,0,1,.32-3.92l0,0a3,3,0,0,0-.1-4.39l-3.25-2.9a3,3,0,0,0-4.08.08,42.52,42.52,0,0,1-59.49.17,3,3,0,0,0-4.08-.06L264.92,418a3,3,0,0,0-.07,4.39l0,0a3,3,0,0,1,.35,3.92L260.36,433a3,3,0,0,0,.67,4.19l3.52,2.56a3,3,0,0,0,4.19-.67l4.88-6.73a3,3,0,0,1,3.84-.88,51.56,51.56,0,0,0,6,2.66,3,3,0,0,1,1.91,3.44l-1.85,8.73a3,3,0,0,0,2.31,3.56l4.25.9a3,3,0,0,0,3.56-2.31l1.85-8.72a3,3,0,0,1,3.15-2.37c1.08.07,2.17.1,3.27.1s2.39,0,3.58-.12a3,3,0,0,1,3.15,2.35l1.93,8.82a3,3,0,0,0,3.57,2.3l4.25-.93a3,3,0,0,0,2.29-3.57l-1.93-8.83a3,3,0,0,1,1.89-3.45,53.42,53.42,0,0,0,6-2.7,3,3,0,0,1,3.84.86l5,6.78A3,3,0,0,0,339.6,439.65Z"/><path class="cls-2" d="M401.84,439.65l-3.5-2.57a3,3,0,0,1-.65-4.2l5-6.77a3,3,0,0,0-.33-3.92l0,0a3,3,0,0,1,.09-4.39l3.25-2.9a3,3,0,0,1,4.08.08,42.52,42.52,0,0,0,59.49.17,3,3,0,0,1,4.08-.06l3.23,2.92a3,3,0,0,1,.07,4.39l0,0a3,3,0,0,0-.35,3.92l4.88,6.72a3,3,0,0,1-.67,4.19l-3.52,2.56a3,3,0,0,1-4.19-.67l-4.88-6.73a3,3,0,0,0-3.83-.88,52.48,52.48,0,0,1-6,2.66,3,3,0,0,0-1.91,3.44l1.86,8.73a3,3,0,0,1-2.31,3.56l-4.26.9a3,3,0,0,1-3.56-2.31L446,439.77a3,3,0,0,0-3.14-2.37c-1.09.07-2.18.1-3.28.1s-2.39,0-3.58-.12a3,3,0,0,0-3.15,2.35l-1.93,8.82a3,3,0,0,1-3.57,2.3l-4.25-.93a3,3,0,0,1-2.29-3.57l1.93-8.83a3,3,0,0,0-1.89-3.45,54.25,54.25,0,0,1-6-2.7,3,3,0,0,0-3.84.86L406,439A3,3,0,0,1,401.84,439.65Z"/><rect class="cls-1" x="704.11" y="138" width="487.22" height="487.22"/><path class="cls-3" d="M773.27,313.21a4.22,4.22,0,0,0-3,1.23c-4.37,4.38-10.9,20.49-14.93,36.75-4.5,18.18-4.91,32.43-1,36.29,8.81,8.81,63.64-6.57,73-15.9a6.78,6.78,0,0,0-1.95-11.05c-21.64-9.87-37-23.38-45.77-40.14h0c-.75-1.45-1.47-2.95-2.12-4.46a4.53,4.53,0,0,0-3.31-2.64A5,5,0,0,0,773.27,313.21Z"/><path class="cls-3" d="M1140.09,351.19c-4-16.26-10.55-32.37-14.86-36.68l-.07-.07a4.21,4.21,0,0,0-3-1.23,5.1,5.1,0,0,0-.86.08,4.53,4.53,0,0,0-3.3,2.63c-.66,1.52-1.37,3-2.13,4.47-8.73,16.76-24.13,30.27-45.77,40.14a6.74,6.74,0,0,0-3.9,5,6.66,6.66,0,0,0,1.86,6c9.42,9.42,64.25,24.8,73.06,16C1145,383.62,1144.59,369.37,1140.09,351.19Z"/><path class="cls-3" d="M977.16,349.62a7,7,0,0,0,1.4,1.35c9.59,7.31,46.45,13.82,73.72,3.85,17.93-6.56,41.82-19.18,53.74-42.07a65.67,65.67,0,0,0,4.93-12.5c5.28-18.84-34.88-55.24-62.9-68.11a9.33,9.33,0,0,0-8.74.44,10.3,10.3,0,0,0-5,8.12c0,.43-.08.84-.14,1.22C1029.2,273.59,1002.72,323.47,977.16,349.62Z"/><path class="cls-3" d="M918.28,349.65a7,7,0,0,1-1.4,1.35c-9.59,7.31-46.44,13.82-73.72,3.85-17.93-6.56-41.81-19.18-53.74-42.07a65.67,65.67,0,0,1-4.93-12.5c-5.28-18.85,34.88-55.24,62.91-68.11a9.32,9.32,0,0,1,8.73.44,10.28,10.28,0,0,1,5,8.12c0,.43.08.84.14,1.22C866.25,273.62,892.72,323.5,918.28,349.65Z"/><path class="cls-3" d="M947.72,179.42c-44.92,0-68.61,13.87-74.55,43.64a60,60,0,0,0-.71,12.28c0,.89,0,1.79,0,2.69,0,17.41,28.67,78.39,55.77,105.46,7.69,7.68,14.43,11.74,19.48,11.74s11.79-4.06,19.48-11.74C994.31,316.42,1023,255.44,1023,238c0-.9,0-1.8,0-2.69a60.72,60.72,0,0,0-.71-12.28h0C1016.33,193.29,992.64,179.42,947.72,179.42Z"/><path class="cls-3" d="M787.51,549.18c13.71,0,28.27-9.95,28.27-28.38,0-14.71-12.17-25-29.6-25a167.89,167.89,0,0,0-25.42,2.05.33.33,0,0,0-.29.33v.31a.35.35,0,0,0,.2.31c3.68,1.65,5.63,5.18,5.63,10.23v54c0,5-1.95,8.58-5.63,10.23a.33.33,0,0,0-.2.31v.31a.34.34,0,0,0,.34.33h27.93a.34.34,0,0,0,.34-.33v-.31a.33.33,0,0,0-.2-.31c-3.69-1.65-5.64-5.19-5.64-10.23V548.84A23.07,23.07,0,0,0,787.51,549.18Zm-4.27-4.06V506.89c0-2.74.57-7.34,4.37-7.34,5.76,0,9.49,9.27,9.49,23.61,0,14.16-4.61,22-13,22Z"/><path class="cls-3" d="M837.13,519.34c-12.52,0-22.33,13.09-22.33,29.81,0,17.48,10.56,26.63,21,26.63,9.58,0,17.26-7,19.57-17.87a.34.34,0,0,0-.18-.37l-.61-.31a.33.33,0,0,0-.45.15A12.25,12.25,0,0,1,843,563.74c-7.88,0-12.4-7-12.75-19.88h25a.34.34,0,0,0,.34-.34v-2.25C855.58,528.56,847.82,519.34,837.13,519.34Zm-6.92,20.46c.22-10.5,1.95-16.51,4.77-16.51,2.61,0,3.94,5.4,4.06,16.51Z"/><path class="cls-3" d="M890.74,565.77l-.2-.41a.33.33,0,0,0-.46-.14,15.42,15.42,0,0,1-6.9,2c-3.22,0-5-1.87-5-5.29V526.16h10.2a.34.34,0,0,0,.34-.34v-4.61a.34.34,0,0,0-.34-.34h-10.2V502.18a.34.34,0,0,0-.33-.34h-.41a.34.34,0,0,0-.29.16,78.81,78.81,0,0,1-22.72,23,.36.36,0,0,0-.15.29v.51a.34.34,0,0,0,.34.34h6.31v39.46c0,6.6,6,10.16,11.7,10.16,7.11,0,12.85-3.07,18.07-9.65A.33.33,0,0,0,890.74,565.77Z"/><path class="cls-3" d="M900.67,516.44c5.15,0,9.34-4.7,9.34-10.47,0-5.93-4.1-10.57-9.34-10.57S891.43,500,891.43,506C891.43,511.74,895.58,516.44,900.67,516.44Z"/><path class="cls-3" d="M909.6,564.08v-45a.33.33,0,0,0-.33-.33H909a.31.31,0,0,0-.24.1c-4,4.11-13,7.67-19.72,7.77a.35.35,0,0,0-.33.34v.31a.35.35,0,0,0,.2.31c2.89,1.28,4.3,4.36,4.3,9.41v27.11c0,4.27-1.54,7.63-4.23,9.23a.34.34,0,0,0-.17.29v.31a.34.34,0,0,0,.34.33h24a.34.34,0,0,0,.34-.33v-.31a.34.34,0,0,0-.16-.29C911,571.83,909.6,568.47,909.6,564.08Z"/><path class="cls-3" d="M948.14,565.36a.33.33,0,0,0-.46-.14,15.42,15.42,0,0,1-6.9,2c-3.21,0-5-1.87-5-5.29V526.16H946a.35.35,0,0,0,.34-.34v-4.61a.35.35,0,0,0-.34-.34H935.8V502.18a.34.34,0,0,0-.34-.34h-.41a.32.32,0,0,0-.28.16,78.94,78.94,0,0,1-22.72,23,.34.34,0,0,0-.15.29v.51a.34.34,0,0,0,.33.34h6.32v39.46c0,6.6,6,10.16,11.69,10.16,7.11,0,12.85-3.07,18.07-9.65a.34.34,0,0,0,0-.36Z"/><path class="cls-3" d="M968,519.34c-12.52,0-22.33,13.09-22.33,29.81,0,17.48,10.57,26.63,21,26.63,9.58,0,17.26-7,19.56-17.87a.34.34,0,0,0-.18-.37l-.61-.31a.33.33,0,0,0-.45.15,12.24,12.24,0,0,1-11.16,6.36c-7.88,0-12.4-7-12.75-19.88h25a.34.34,0,0,0,.33-.34v-2.25C986.44,528.56,978.68,519.34,968,519.34Zm1.91,20.46h-8.82c.21-10.5,1.95-16.51,4.77-16.51C968.45,523.29,969.78,528.69,969.9,539.8Z"/><path class="cls-3" d="M1020.89,549.18c13.71,0,28.27-9.95,28.27-28.38,0-14.71-12.17-25-29.6-25a167.89,167.89,0,0,0-25.42,2.05.33.33,0,0,0-.29.33v.31a.35.35,0,0,0,.2.31c3.68,1.65,5.63,5.18,5.63,10.23v54c0,5-1.95,8.58-5.63,10.23a.33.33,0,0,0-.2.31v.31a.34.34,0,0,0,.34.33h27.93a.34.34,0,0,0,.34-.33v-.31a.33.33,0,0,0-.2-.31c-3.69-1.65-5.63-5.19-5.63-10.23V548.84A22.89,22.89,0,0,0,1020.89,549.18Zm-4.26-4.06V506.89c0-2.74.56-7.34,4.37-7.34,5.76,0,9.48,9.27,9.48,23.61,0,14.16-4.6,22-13,22Z"/><path class="cls-3" d="M1095.35,570.21a.32.32,0,0,0,0-.33l-.3-.71a.36.36,0,0,0-.21-.19.34.34,0,0,0-.28,0,5.56,5.56,0,0,1-2.69.87c-1.72,0-3.45-1.54-3.45-5,0-4.69.16-10.73.31-16.57s.31-11.6.31-16.07c0-8.5-5.76-12.82-17.12-12.82-10.45,0-21.72,5.57-21.72,14.56,0,4.24,2.62,7.2,6.37,7.2,5.23,0,8-6.17,10.19-11.12,1.53-3.44,3-6.69,4.75-6.69,1,0,1.61,1.24,1.61,3.14,0,4.48-.12,11.4-.3,18.13-15.62,2.47-24.57,9.32-24.57,18.81,0,8.39,5.48,12.21,10.57,12.21,4.64,0,8.92-2.34,13.85-7.55.74,4.87,4.35,7.65,10,7.65C1087,575.78,1092.77,573.87,1095.35,570.21Zm-22.52-22.91c-.19,6.25-.3,13.07-.3,18.35a7.18,7.18,0,0,1-4.06,1.47c-2.42,0-3.75-2.49-3.75-7C1064.72,552.51,1067.37,548.32,1072.83,547.3Z"/><path class="cls-3" d="M1144,573.33c-2.16-1.69-3.45-5.15-3.45-9.25V530.42c0-6.83-3.5-11.08-9.14-11.08s-13.26,5.78-17.21,10.16c.09-1.2.16-3,.16-4.6v-5.84a.34.34,0,0,0-.34-.33h-.31a.33.33,0,0,0-.24.1c-4.08,4.19-12.74,7.68-19.3,7.77a.35.35,0,0,0-.34.34v.31a.33.33,0,0,0,.19.3c3.06,1.58,4.32,4.31,4.32,9.42v27.11a11.57,11.57,0,0,1-4.38,9.25.35.35,0,0,0-.13.27v.31a.34.34,0,0,0,.34.33h24a.33.33,0,0,0,.33-.33v-.31a.36.36,0,0,0-.09-.24c-2.84-3-4.1-5.78-4.1-9.17V532.05a14.92,14.92,0,0,1,7.11-2c2,.1,3.06,2.15,3.06,6.11v28a12.17,12.17,0,0,1-4,9.17.34.34,0,0,0-.09.24v.31a.33.33,0,0,0,.33.33h23a.34.34,0,0,0,.34-.33v-.31A.32.32,0,0,0,1144,573.33Z"/><path class="cls-3" d="M916.6,435.64l3.51-2.57a3,3,0,0,0,.64-4.19l-5-6.78a3,3,0,0,1,.32-3.92l0,0a3,3,0,0,0-.1-4.39l-3.25-2.9a3,3,0,0,0-4.08.08,42.52,42.52,0,0,1-59.49.17,3,3,0,0,0-4.08-.06L841.92,414a3,3,0,0,0-.07,4.39l0,0a3,3,0,0,1,.35,3.92L837.36,429a3,3,0,0,0,.67,4.2l3.52,2.55a3,3,0,0,0,4.19-.67l4.88-6.73a3,3,0,0,1,3.84-.88,51.56,51.56,0,0,0,6,2.66,3,3,0,0,1,1.91,3.44l-1.85,8.73a3,3,0,0,0,2.31,3.56l4.25.9a3,3,0,0,0,3.56-2.31l1.85-8.72a3,3,0,0,1,3.15-2.37c1.08.07,2.17.11,3.27.11s2.39-.05,3.58-.13a3,3,0,0,1,3.15,2.35l1.93,8.83a3,3,0,0,0,3.57,2.29l4.25-.93a3,3,0,0,0,2.29-3.57l-1.93-8.83a3,3,0,0,1,1.89-3.45,53.42,53.42,0,0,0,6-2.7,3,3,0,0,1,3.84.86l5,6.78A3,3,0,0,0,916.6,435.64Z"/><path class="cls-3" d="M978.84,435.64l-3.5-2.57a3,3,0,0,1-.65-4.19l5-6.78a3,3,0,0,0-.33-3.92l0,0a3,3,0,0,1,.09-4.39l3.25-2.9a3,3,0,0,1,4.08.08,42.52,42.52,0,0,0,59.49.17,3,3,0,0,1,4.08-.06l3.23,2.92a3,3,0,0,1,.07,4.39l0,0a3,3,0,0,0-.35,3.92l4.88,6.72a3,3,0,0,1-.67,4.2l-3.52,2.55a3,3,0,0,1-4.19-.67l-4.88-6.73a3,3,0,0,0-3.83-.88,52.48,52.48,0,0,1-6,2.66,3,3,0,0,0-1.91,3.44l1.86,8.73a3,3,0,0,1-2.31,3.56l-4.26.9a3,3,0,0,1-3.56-2.31l-1.85-8.72a3,3,0,0,0-3.14-2.37c-1.09.07-2.18.11-3.28.11s-2.39-.05-3.58-.13a3,3,0,0,0-3.15,2.35l-1.93,8.83a3,3,0,0,1-3.57,2.29l-4.25-.93a3,3,0,0,1-2.29-3.57l1.93-8.83a3,3,0,0,0-1.89-3.45,54.25,54.25,0,0,1-6-2.7,3,3,0,0,0-3.84.86L983,435A3,3,0,0,1,978.84,435.64Z"/></svg>