<svg id="Layer_1" data-name="Layer 1" xmlns="http://www.w3.org/2000/svg" width="600" height="300" viewBox="0 0 600 300"><defs><style>.cls-1{fill:#010101;}.cls-2{fill:#d0d2d3;}</style></defs><rect class="cls-1" width="600" height="300"/><path class="cls-2" d="M66.64,103.5a3.07,3.07,0,0,0-.2-1.1,2.68,2.68,0,0,0-.7-1,5.35,5.35,0,0,0-1.27-.81,12.72,12.72,0,0,0-2-.68,18.8,18.8,0,0,1-2.73-1,10,10,0,0,1-2.29-1.41,6.81,6.81,0,0,1-1.59-1.93,5.27,5.27,0,0,1-.59-2.52,5.41,5.41,0,0,1,.59-2.52,5.74,5.74,0,0,1,1.62-1.92A7.72,7.72,0,0,1,60,87.44,10.75,10.75,0,0,1,63,87a9.53,9.53,0,0,1,3.14.49,7.47,7.47,0,0,1,2.44,1.39,6.3,6.3,0,0,1,2.16,4.84H66.65a4.22,4.22,0,0,0-.26-1.36,2.91,2.91,0,0,0-.69-1.06,3.41,3.41,0,0,0-1.14-.69,5.35,5.35,0,0,0-3.1,0,3.07,3.07,0,0,0-1.11.57,2.29,2.29,0,0,0-.68.87,2.51,2.51,0,0,0-.23,1.09,2.1,2.1,0,0,0,.3,1.11,3.21,3.21,0,0,0,.9.9,7.49,7.49,0,0,0,1.42.73,18.35,18.35,0,0,0,1.89.61,16.34,16.34,0,0,1,2.76,1.07A8.76,8.76,0,0,1,68.89,99a6.36,6.36,0,0,1,1.41,2,5.76,5.76,0,0,1,.5,2.46,5.58,5.58,0,0,1-.57,2.56,5.42,5.42,0,0,1-1.61,1.89,7.24,7.24,0,0,1-2.43,1.18,11.54,11.54,0,0,1-3.08.4,11.89,11.89,0,0,1-2.07-.19,9.76,9.76,0,0,1-2-.58,8.55,8.55,0,0,1-1.75-1,6.55,6.55,0,0,1-1.41-1.37,6,6,0,0,1-.93-1.77,6.64,6.64,0,0,1-.34-2.2h4.15a4.31,4.31,0,0,0,.35,1.7,3,3,0,0,0,.88,1.16,3.55,3.55,0,0,0,1.35.66,6.69,6.69,0,0,0,1.74.21A5.18,5.18,0,0,0,64.6,106a3.38,3.38,0,0,0,1.11-.54,2.33,2.33,0,0,0,.69-.84A2.37,2.37,0,0,0,66.64,103.5Z"/><path class="cls-2" d="M89.4,99.87a12.9,12.9,0,0,1-.56,3.88,8.8,8.8,0,0,1-1.61,3,7.27,7.27,0,0,1-2.56,2,8,8,0,0,1-3.41.71,7.68,7.68,0,0,1-3.36-.71,7.14,7.14,0,0,1-2.49-2,9.16,9.16,0,0,1-1.53-3.06,13.46,13.46,0,0,1-.53-3.87V96.68a13.68,13.68,0,0,1,.53-3.88,9.16,9.16,0,0,1,1.53-3.06,7.19,7.19,0,0,1,2.48-2A7.54,7.54,0,0,1,81.25,87a7.87,7.87,0,0,1,3.42.72,7.38,7.38,0,0,1,2.56,2,8.94,8.94,0,0,1,1.61,3.06,13,13,0,0,1,.56,3.88Zm-4.29-3.22a13.43,13.43,0,0,0-.21-2.46,6.42,6.42,0,0,0-.69-1.94A3.56,3.56,0,0,0,83,91a3.24,3.24,0,0,0-1.77-.46,3,3,0,0,0-1.72.46,3.28,3.28,0,0,0-1.11,1.27,6.42,6.42,0,0,0-.6,1.94,15.61,15.61,0,0,0-.18,2.46v3.22a15.57,15.57,0,0,0,.18,2.45,6.64,6.64,0,0,0,.6,2,3.35,3.35,0,0,0,1.11,1.29,3.06,3.06,0,0,0,1.73.47,3.21,3.21,0,0,0,1.76-.47,3.56,3.56,0,0,0,1.18-1.28,6.58,6.58,0,0,0,.69-2,12.68,12.68,0,0,0,.22-2.47Z"/><path class="cls-2" d="M108.17,102.35a8.21,8.21,0,0,1-.71,3,7.15,7.15,0,0,1-1.63,2.26,7.05,7.05,0,0,1-2.44,1.43,9.13,9.13,0,0,1-3.13.51,7.87,7.87,0,0,1-3.44-.72,7.05,7.05,0,0,1-2.53-2,9.17,9.17,0,0,1-1.56-3.09,13.76,13.76,0,0,1-.54-4v-3a13.15,13.15,0,0,1,.57-4,9.16,9.16,0,0,1,1.63-3.1,7.41,7.41,0,0,1,2.54-2,7.81,7.81,0,0,1,3.36-.71,9.42,9.42,0,0,1,3.22.51A6.8,6.8,0,0,1,105.9,89a6.57,6.57,0,0,1,1.57,2.32,10.31,10.31,0,0,1,.72,3.08H104a7.6,7.6,0,0,0-.29-1.72,3.34,3.34,0,0,0-.68-1.22,2.85,2.85,0,0,0-1.11-.74,4.78,4.78,0,0,0-1.61-.25,3.29,3.29,0,0,0-1.69.42,3.41,3.41,0,0,0-1.2,1.24,6.12,6.12,0,0,0-.7,2,14.45,14.45,0,0,0-.22,2.68v3a9.67,9.67,0,0,0,.91,4.78,3.06,3.06,0,0,0,2.87,1.55,3.71,3.71,0,0,0,2.62-.88,4,4,0,0,0,1.07-2.85Z"/><path class="cls-2" d="M112.75,87.32h12.67v3.41h-4.27v15.08h4.27v3.4H112.75v-3.4h4.17V90.73h-4.17Z"/><path class="cls-2" d="M141.44,104.64h-6.57l-1.29,4.57h-4.46l7.18-21.89h3.83l7,21.89h-4.45Zm-5.53-3.6h4.54L138.21,93Z"/><path class="cls-2" d="M154.05,105.8h10.26v3.41h-14.5V87.32h4.24Z"/><path class="cls-2" d="M192.41,87.32l2.08,8.22,2.36-8.22h5.25v21.89h-3.88v-6.48l.18-10.24-2.88,9.5h-2.09l-2.57-9.1.18,9.84v6.48h-3.88V87.32Z"/><path class="cls-2" d="M219.55,99.62h-9v6.18h10.51v3.41H206.32V87.32H221v3.44H210.56v5.52h9Z"/><path class="cls-2" d="M224.84,109.21V87.32h5.66a10,10,0,0,1,3.95.74,8.72,8.72,0,0,1,3,2.08,9,9,0,0,1,1.94,3.18,11.49,11.49,0,0,1,.69,4.06v1.8a11.48,11.48,0,0,1-.69,4,9.41,9.41,0,0,1-1.91,3.18,8.66,8.66,0,0,1-3,2.06,9.64,9.64,0,0,1-3.82.74Zm4.25-18.47v15.07h1.62a4.83,4.83,0,0,0,2.13-.45,4.39,4.39,0,0,0,1.6-1.31,6.19,6.19,0,0,0,1-2.08,10.35,10.35,0,0,0,.34-2.79V97.35a9.8,9.8,0,0,0-.34-2.69,6,6,0,0,0-1-2.08,4.63,4.63,0,0,0-1.66-1.35,5,5,0,0,0-2.28-.49Z"/><path class="cls-2" d="M243.17,87.32h12.66v3.41h-4.27v15.08h4.27v3.4H243.17v-3.4h4.16V90.73h-4.16Z"/><path class="cls-2" d="M271.85,104.64h-6.57L264,109.21h-4.45l7.17-21.89h3.84l7,21.89h-4.45Zm-5.53-3.6h4.54L268.62,93Z"/><path class="cls-2" d="M299.72,87.32H312.4v1.62h-5.49v18.68h5.49v1.59H299.72v-1.59H305V88.94h-5.32Z"/><path class="cls-2" d="M330.55,103.83a3.77,3.77,0,0,0-.23-1.38,3.6,3.6,0,0,0-.64-1.09,5.22,5.22,0,0,0-1-.85,8.67,8.67,0,0,0-1.16-.65q-.62-.28-1.26-.51l-1.25-.43c-.51-.16-1-.33-1.56-.53a13,13,0,0,1-1.53-.68,9.11,9.11,0,0,1-1.4-.87,6.26,6.26,0,0,1-1.14-1.1,4.9,4.9,0,0,1-.77-1.38,5,5,0,0,1-.28-1.69,4.8,4.8,0,0,1,.61-2.42,5.89,5.89,0,0,1,1.59-1.78,7.3,7.3,0,0,1,2.2-1.09,8.75,8.75,0,0,1,2.48-.36,7.86,7.86,0,0,1,2.66.45,7.19,7.19,0,0,1,2.22,1.29,6.21,6.21,0,0,1,1.52,2,6.39,6.39,0,0,1,.62,2.62h-1.82a6.37,6.37,0,0,0-.53-2,4.84,4.84,0,0,0-1.08-1.51,4.78,4.78,0,0,0-1.59-1,5.35,5.35,0,0,0-2-.36,7.07,7.07,0,0,0-1.82.25,5.35,5.35,0,0,0-1.6.75,3.92,3.92,0,0,0-1.16,1.27,3.41,3.41,0,0,0-.45,1.78,3.28,3.28,0,0,0,.52,1.86,4.81,4.81,0,0,0,1.32,1.3,8.68,8.68,0,0,0,1.75.88c.64.23,1.24.44,1.81.61s1.07.34,1.61.54a14,14,0,0,1,1.57.72,9.82,9.82,0,0,1,1.42.91,5.45,5.45,0,0,1,1.15,1.15,5.06,5.06,0,0,1,.77,1.43,5.2,5.2,0,0,1,.28,1.76,4.94,4.94,0,0,1-.62,2.51,5.87,5.87,0,0,1-1.62,1.78,7,7,0,0,1-2.26,1.07,9.62,9.62,0,0,1-2.55.35,9.35,9.35,0,0,1-2.8-.42,7.63,7.63,0,0,1-2.41-1.23,6.46,6.46,0,0,1-1.73-2,5.94,5.94,0,0,1-.7-2.73h1.82a5.82,5.82,0,0,0,.62,2.08,4.82,4.82,0,0,0,1.26,1.52,5.32,5.32,0,0,0,1.77.92,7.59,7.59,0,0,0,2.17.31,7.4,7.4,0,0,0,1.88-.24,5.27,5.27,0,0,0,1.67-.75,3.81,3.81,0,0,0,1.18-1.28A3.6,3.6,0,0,0,330.55,103.83Z"/><path class="cls-2" d="M358.48,107.65h11.14v1.56H356.68V87.32h1.8Z"/><path class="cls-2" d="M374,87.32h12.68v1.62h-5.49v18.68h5.49v1.59H374v-1.59h5.33V88.94H374Z"/><path class="cls-2" d="M397.63,98.37l-2.81,3v7.85H393V87.32h1.82V99l2.69-3.1,7.4-8.61h2.24L398.85,97l8.9,12.17h-2.19Z"/><path class="cls-2" d="M423.31,98.71h-9.66v8.94h11.13v1.56H411.86V87.32h12.86v1.57H413.65v8.26h9.66Z"/><path class="cls-2" d="M460.15,103.11h-8.33l-1.94,6.1h-1.82l7.13-21.89h1.62l7.07,21.89h-1.8Zm-7.82-1.61h7.31L456,90Z"/><path class="cls-2" d="M69.36,146.17H67.57l-10-18.48,0,18.48H55.72v-21.9h1.79l10.05,18.45V124.27h1.79Z"/><path class="cls-2" d="M86,135.67H76.35v8.93H87.48v1.57H74.56v-21.9H87.41v1.58H76.35v8.26H86Z"/><path class="cls-2" d="M95,141.2l.12,1.54.18-1.54,3.19-16.93h1.57l3.18,16.93.18,1.58.14-1.58,2.24-16.93h1.68l-3.08,21.9h-1.79l-3.34-18.26-3.35,18.26H94.13l-3.08-21.9h1.7Z"/><path class="cls-2" d="M123.51,140.78a3.68,3.68,0,0,0-.24-1.37,3.6,3.6,0,0,0-.64-1.09,4.87,4.87,0,0,0-1-.85,7.63,7.63,0,0,0-1.15-.66c-.42-.19-.84-.36-1.27-.51l-1.25-.42c-.51-.16-1-.34-1.55-.53a14.11,14.11,0,0,1-1.54-.68,10.85,10.85,0,0,1-1.39-.87,6.38,6.38,0,0,1-1.15-1.11,5,5,0,0,1-.76-1.37,4.79,4.79,0,0,1-.28-1.69,4.74,4.74,0,0,1,.61-2.43,5.7,5.7,0,0,1,1.58-1.77,7.24,7.24,0,0,1,2.21-1.09,8.36,8.36,0,0,1,2.47-.37,7.63,7.63,0,0,1,2.66.46,7,7,0,0,1,2.22,1.29,6.31,6.31,0,0,1,1.53,2,6.43,6.43,0,0,1,.61,2.63H123.4a6.37,6.37,0,0,0-.52-1.95,4.76,4.76,0,0,0-1.09-1.51,5,5,0,0,0-1.58-1,5.66,5.66,0,0,0-2-.35,6.53,6.53,0,0,0-1.81.25,4.86,4.86,0,0,0-1.61.75,4.11,4.11,0,0,0-1.16,1.26,3.44,3.44,0,0,0-.44,1.79,3.21,3.21,0,0,0,.52,1.86,4.6,4.6,0,0,0,1.31,1.29,8.43,8.43,0,0,0,1.75.88c.64.24,1.24.44,1.82.61s1.06.34,1.6.55a14.08,14.08,0,0,1,1.58.71,12.74,12.74,0,0,1,1.42.91,6.26,6.26,0,0,1,1.15,1.15,5.36,5.36,0,0,1,.76,1.44,5.14,5.14,0,0,1,.28,1.75,4.92,4.92,0,0,1-.62,2.51,5.79,5.79,0,0,1-1.62,1.79,7.07,7.07,0,0,1-2.25,1.06,9.42,9.42,0,0,1-5.36-.06,7.76,7.76,0,0,1-2.41-1.24,6.38,6.38,0,0,1-1.72-2,6,6,0,0,1-.71-2.73h1.82a5.88,5.88,0,0,0,.62,2.08,4.93,4.93,0,0,0,1.26,1.52,5.3,5.3,0,0,0,1.77.91,7.3,7.3,0,0,0,2.17.31,7.53,7.53,0,0,0,1.89-.24,5.43,5.43,0,0,0,1.66-.74,3.94,3.94,0,0,0,1.19-1.28A3.66,3.66,0,0,0,123.51,140.78Z"/><path class="cls-2" d="M132.52,137.14v9h-1.8v-21.9h6.89a8.5,8.5,0,0,1,2.7.48A6.68,6.68,0,0,1,142.5,126a6,6,0,0,1,1.48,2,7,7,0,0,1,0,5.38,5.9,5.9,0,0,1-1.48,2,6.7,6.7,0,0,1-2.2,1.25,8.48,8.48,0,0,1-2.69.45Zm0-1.51h5.09a6,6,0,0,0,2-.37,5.2,5.2,0,0,0,1.63-1,4.46,4.46,0,0,0,1.09-1.5,5,5,0,0,0,.39-2,5.15,5.15,0,0,0-.39-2,4.55,4.55,0,0,0-1.08-1.56,4.94,4.94,0,0,0-1.62-1,6.1,6.1,0,0,0-2-.38h-5.09Z"/><path class="cls-2" d="M158.08,140.06h-8.33l-1.94,6.11H146l7.13-21.9h1.62l7.07,21.9H160Zm-7.82-1.61h7.31l-3.64-11.52Z"/><path class="cls-2" d="M168.38,137.14v9h-1.81v-21.9h6.89a8.5,8.5,0,0,1,2.7.48,6.48,6.48,0,0,1,2.19,1.29,6.14,6.14,0,0,1,1.49,2,7,7,0,0,1,0,5.38,6.06,6.06,0,0,1-1.49,2,6.6,6.6,0,0,1-2.2,1.25,8.48,8.48,0,0,1-2.69.45Zm0-1.51h5.08a6,6,0,0,0,2-.37,5,5,0,0,0,1.63-1,4.46,4.46,0,0,0,1.09-1.5,5,5,0,0,0,.4-2,5.15,5.15,0,0,0-.39-2,4.57,4.57,0,0,0-1.09-1.56,4.94,4.94,0,0,0-1.62-1,6.05,6.05,0,0,0-2-.38h-5.08Z"/><path class="cls-2" d="M196.64,135.67H187v8.93h11.12v1.57H185.2v-21.9h12.85v1.58H187v8.26h9.65Z"/><path class="cls-2" d="M211.28,137h-5.41v9.16h-1.78v-21.9h6.18a9,9,0,0,1,2.73.47,6.85,6.85,0,0,1,2.23,1.25,5.89,5.89,0,0,1,1.5,2,6.35,6.35,0,0,1,.55,2.72,6,6,0,0,1-.32,2,5.87,5.87,0,0,1-.9,1.63,6.19,6.19,0,0,1-1.36,1.29,8.72,8.72,0,0,1-1.73,1l5,9.38v.2h-1.88Zm-5.41-1.52h4.76a5.42,5.42,0,0,0,1.91-.39,4.78,4.78,0,0,0,1.55-1,4.49,4.49,0,0,0,1-1.49,5.25,5.25,0,0,0,0-4,4.61,4.61,0,0,0-1.1-1.53,4.93,4.93,0,0,0-1.66-1,6.83,6.83,0,0,0-2.05-.36h-4.39Z"/><path class="cls-2" d="M244,141.2l.12,1.54.18-1.54,3.19-16.93H249l3.19,16.93.18,1.58.14-1.58,2.24-16.93h1.68l-3.08,21.9h-1.79l-3.34-18.26-3.35,18.26h-1.79L240,124.27h1.7Z"/><path class="cls-2" d="M260.48,124.27h12.68v1.63h-5.49v18.67h5.49v1.6H260.48v-1.6h5.32V125.9h-5.32Z"/><path class="cls-2" d="M293.56,125.85h-7v20.32h-1.76V125.85h-7v-1.58h15.72Z"/><path class="cls-2" d="M311.35,146.17h-1.7v-10.5H299.37v10.5h-1.7v-21.9h1.7v9.84h10.28v-9.84h1.7Z"/><path class="cls-2" d="M349,146.17h-1.79L337.2,127.69v18.48H335.4v-21.9h1.79l10,18.45,0-18.45H349Z"/><path class="cls-2" d="M368.42,136.68a16.48,16.48,0,0,1-.2,2.28,13.22,13.22,0,0,1-.56,2.25,11,11,0,0,1-1,2,7.77,7.77,0,0,1-1.39,1.67,6.24,6.24,0,0,1-1.86,1.12,6.81,6.81,0,0,1-4.71,0,6.42,6.42,0,0,1-1.87-1.12,7.16,7.16,0,0,1-1.41-1.68,10.16,10.16,0,0,1-1-2.05,12.37,12.37,0,0,1-.57-2.25,14.86,14.86,0,0,1-.21-2.27v-2.89a15.1,15.1,0,0,1,.21-2.28,13,13,0,0,1,.56-2.25,10.21,10.21,0,0,1,1-2.06,7.67,7.67,0,0,1,1.41-1.68,6.37,6.37,0,0,1,1.85-1.14,7,7,0,0,1,4.72,0,6.67,6.67,0,0,1,1.87,1.13,7.16,7.16,0,0,1,1.41,1.68,11,11,0,0,1,1,2.05,13.1,13.1,0,0,1,.56,2.26,16.35,16.35,0,0,1,.2,2.29Zm-1.78-2.92a16.75,16.75,0,0,0-.13-1.82,11.47,11.47,0,0,0-.39-1.85,11.27,11.27,0,0,0-.7-1.72,5.93,5.93,0,0,0-1.05-1.44,4.88,4.88,0,0,0-5.19-1,4.86,4.86,0,0,0-1.44,1,6.07,6.07,0,0,0-1.05,1.43,11,11,0,0,0-.7,1.73,11.25,11.25,0,0,0-.39,1.85,16.58,16.58,0,0,0-.13,1.8v2.92a16.66,16.66,0,0,0,.14,1.81,13,13,0,0,0,.4,1.85,9.35,9.35,0,0,0,.7,1.73,5.77,5.77,0,0,0,1,1.43,4.85,4.85,0,0,0,1.45,1,4.51,4.51,0,0,0,1.88.37,4.44,4.44,0,0,0,1.88-.37,4.68,4.68,0,0,0,1.44-1,6.07,6.07,0,0,0,1.05-1.43,10.07,10.07,0,0,0,.69-1.73,11.65,11.65,0,0,0,.37-1.85,16.58,16.58,0,0,0,.13-1.81Z"/><path class="cls-2" d="M403.14,140.06h-8.33l-1.94,6.11h-1.82l7.13-21.9h1.62l7.07,21.9h-1.81Zm-7.82-1.61h7.31L399,126.93Z"/><path class="cls-2" d="M418,137h-5.41v9.16h-1.78v-21.9H417a9,9,0,0,1,2.73.47A6.85,6.85,0,0,1,422,126a5.89,5.89,0,0,1,1.5,2,6.35,6.35,0,0,1,.55,2.72,6,6,0,0,1-.32,2,5.87,5.87,0,0,1-.9,1.63,6.19,6.19,0,0,1-1.36,1.29,8.53,8.53,0,0,1-1.74,1l5,9.38v.2h-1.88Zm-5.41-1.52h4.76a5.42,5.42,0,0,0,1.91-.39,4.78,4.78,0,0,0,1.55-1,4.49,4.49,0,0,0,1-1.49,5.25,5.25,0,0,0,0-4,4.5,4.5,0,0,0-1.11-1.53,4.79,4.79,0,0,0-1.65-1,6.83,6.83,0,0,0-2.05-.36h-4.39Z"/><path class="cls-2" d="M442.2,125.85h-7v20.32h-1.76V125.85h-7v-1.58H442.2Z"/><path class="cls-2" d="M446.21,124.27h12.68v1.63H453.4v18.67h5.49v1.6H446.21v-1.6h5.33V125.9h-5.33Z"/><path class="cls-2" d="M478.69,139.52a9.71,9.71,0,0,1-.74,2.74,7.24,7.24,0,0,1-1.47,2.21,6.46,6.46,0,0,1-2.18,1.47,7.2,7.2,0,0,1-2.82.53,6.75,6.75,0,0,1-2.36-.4,6.35,6.35,0,0,1-1.88-1.09,7,7,0,0,1-1.42-1.63,9.59,9.59,0,0,1-1-2,12.69,12.69,0,0,1-.58-2.24,16.36,16.36,0,0,1-.2-2.3v-3.17a16.36,16.36,0,0,1,.2-2.3,12.58,12.58,0,0,1,.58-2.23,9.43,9.43,0,0,1,1-2,7.18,7.18,0,0,1,1.42-1.63,6.17,6.17,0,0,1,1.88-1.1,6.53,6.53,0,0,1,2.36-.4,7.28,7.28,0,0,1,2.85.53,6.58,6.58,0,0,1,2.18,1.46,7.2,7.2,0,0,1,1.46,2.22,9.55,9.55,0,0,1,.72,2.78H476.9a10.17,10.17,0,0,0-.58-2.12,5.91,5.91,0,0,0-1.06-1.73,4.73,4.73,0,0,0-1.6-1.18,5.23,5.23,0,0,0-2.18-.43,4.68,4.68,0,0,0-1.89.37,4.82,4.82,0,0,0-1.45,1,5.68,5.68,0,0,0-1.06,1.4,9.19,9.19,0,0,0-.71,1.71,12.84,12.84,0,0,0-.4,1.84,14.53,14.53,0,0,0-.12,1.83v3.2a14.68,14.68,0,0,0,.12,1.84,12.68,12.68,0,0,0,.4,1.85,8.83,8.83,0,0,0,.71,1.7,5.79,5.79,0,0,0,1.06,1.42,4.85,4.85,0,0,0,1.45,1,4.69,4.69,0,0,0,1.89.36,5.38,5.38,0,0,0,2.21-.42,4.37,4.37,0,0,0,1.59-1.15,5.63,5.63,0,0,0,1.05-1.72,9.23,9.23,0,0,0,.57-2.14Z"/><path class="cls-2" d="M486.12,144.6h11.15v1.57H484.32v-21.9h1.8Z"/><path class="cls-2" d="M513.4,135.67h-9.65v8.93h11.13v1.57H502v-21.9h12.86v1.58H503.75v8.26h9.65Z"/><path class="cls-2" d="M532.68,140.78a3.68,3.68,0,0,0-.24-1.37,3.6,3.6,0,0,0-.64-1.09,4.87,4.87,0,0,0-1-.85,7.74,7.74,0,0,0-1.16-.66q-.61-.28-1.26-.51l-1.25-.42c-.51-.16-1-.34-1.55-.53a14.11,14.11,0,0,1-1.54-.68,11.72,11.72,0,0,1-1.4-.87,6.66,6.66,0,0,1-1.14-1.11,4.67,4.67,0,0,1-1-3.06,4.84,4.84,0,0,1,.6-2.43,5.86,5.86,0,0,1,1.59-1.77,7.3,7.3,0,0,1,2.2-1.09,8.47,8.47,0,0,1,2.48-.37,7.63,7.63,0,0,1,2.66.46,7,7,0,0,1,2.22,1.29,6.28,6.28,0,0,1,1.52,2,6.44,6.44,0,0,1,.62,2.63h-1.82a6.1,6.1,0,0,0-.53-1.95,4.73,4.73,0,0,0-1.08-1.51,5,5,0,0,0-1.58-1,5.66,5.66,0,0,0-2-.35,6.53,6.53,0,0,0-1.81.25,4.86,4.86,0,0,0-1.61.75,4,4,0,0,0-1.16,1.26,3.44,3.44,0,0,0-.44,1.79,3.28,3.28,0,0,0,.51,1.86,4.77,4.77,0,0,0,1.32,1.29,8.43,8.43,0,0,0,1.75.88c.64.24,1.24.44,1.81.61s1.07.34,1.61.55a13.92,13.92,0,0,1,1.57.71,12.89,12.89,0,0,1,1.43.91,6.26,6.26,0,0,1,1.15,1.15,5.36,5.36,0,0,1,.76,1.44,5.14,5.14,0,0,1,.28,1.75,4.92,4.92,0,0,1-.62,2.51,5.79,5.79,0,0,1-1.62,1.79,7,7,0,0,1-2.26,1.06,9.24,9.24,0,0,1-2.55.36,9.4,9.4,0,0,1-2.8-.42,7.65,7.65,0,0,1-2.41-1.24,6.38,6.38,0,0,1-1.72-2,5.82,5.82,0,0,1-.71-2.73h1.82a5.88,5.88,0,0,0,.62,2.08,4.93,4.93,0,0,0,1.26,1.52,5.3,5.3,0,0,0,1.77.91,7.25,7.25,0,0,0,2.17.31,7.53,7.53,0,0,0,1.89-.24,5.43,5.43,0,0,0,1.66-.74,3.91,3.91,0,0,0,1.18-1.28A3.56,3.56,0,0,0,532.68,140.78Z"/><path class="cls-2" d="M543.68,145.64a5.94,5.94,0,0,1-.15,1.32,7.89,7.89,0,0,1-.4,1.31,7.37,7.37,0,0,1-.66,1.24,6.29,6.29,0,0,1-.9,1.09l-1.14-.72a7.12,7.12,0,0,0,1.32-4.19v-2.35h1.93Z"/><path class="cls-2" d="M69.89,173.63a16.34,16.34,0,0,1-.2,2.28,13.1,13.1,0,0,1-.56,2.26,10.93,10.93,0,0,1-1,2,7.53,7.53,0,0,1-1.39,1.67A6.26,6.26,0,0,1,64.91,183a7,7,0,0,1-4.71,0,6.44,6.44,0,0,1-1.87-1.13,7.1,7.1,0,0,1-1.41-1.67,10.82,10.82,0,0,1-1-2.06,12.16,12.16,0,0,1-.57-2.25,14.72,14.72,0,0,1-.2-2.27v-2.88a14.84,14.84,0,0,1,.2-2.28,13.1,13.1,0,0,1,.56-2.26,10.69,10.69,0,0,1,1-2.05,7.67,7.67,0,0,1,1.41-1.68,6.09,6.09,0,0,1,1.86-1.14,6.23,6.23,0,0,1,2.35-.41,6.2,6.2,0,0,1,4.23,1.54,6.91,6.91,0,0,1,1.41,1.67,11.42,11.42,0,0,1,1,2.06,13,13,0,0,1,.56,2.25,16.49,16.49,0,0,1,.2,2.3Zm-1.78-2.91A16.75,16.75,0,0,0,68,168.9a11.47,11.47,0,0,0-.39-1.85,10.44,10.44,0,0,0-.7-1.73,6.07,6.07,0,0,0-1-1.43,4.51,4.51,0,0,0-3.32-1.34,4.43,4.43,0,0,0-1.87.37,4.65,4.65,0,0,0-1.44,1,5.83,5.83,0,0,0-1,1.44,9.54,9.54,0,0,0-.7,1.72,11.47,11.47,0,0,0-.39,1.85,16.86,16.86,0,0,0-.14,1.81v2.91a16.29,16.29,0,0,0,.14,1.81,12.68,12.68,0,0,0,.4,1.85,9.08,9.08,0,0,0,.7,1.73,5.68,5.68,0,0,0,1,1.44,4.65,4.65,0,0,0,1.44,1,5,5,0,0,0,3.77,0,4.73,4.73,0,0,0,1.43-1,5.93,5.93,0,0,0,1-1.44,9.75,9.75,0,0,0,.69-1.73,11.43,11.43,0,0,0,.37-1.85,16.23,16.23,0,0,0,.13-1.81Z"/><path class="cls-2" d="M88.21,183.12H86.42l-10-18.48,0,18.48H74.57V161.23h1.79l10,18.45V161.23h1.79Z"/><path class="cls-2" d="M96.11,181.56h11.15v1.56h-13V161.23h1.8Z"/><path class="cls-2" d="M117,173.17l5.85-11.94h2l-7,13.65,0,8.24h-1.68l0-8.24-7-13.65h2.09Z"/><path class="cls-2" d="M161.78,183.12h-1.7V172.63H149.8v10.49h-1.7V161.23h1.7v9.83h10.28v-9.83h1.7Z"/><path class="cls-2" d="M179,172.63h-9.65v8.93H180.5v1.56H167.58V161.23h12.86v1.58H169.37v8.25H179Z"/><path class="cls-2" d="M195.78,177h-8.33l-1.94,6.1h-1.82l7.13-21.89h1.63l7.06,21.89h-1.8ZM188,175.41h7.31l-3.64-11.52Z"/><path class="cls-2" d="M203.69,183.12V161.23H209a8.88,8.88,0,0,1,3.76.82,8.74,8.74,0,0,1,2.8,2.14,9.32,9.32,0,0,1,1.74,3.12,12.4,12.4,0,0,1,.63,3.8v2.15a12.34,12.34,0,0,1-.63,3.79,9.47,9.47,0,0,1-1.74,3.13,8.41,8.41,0,0,1-2.8,2.12,8.88,8.88,0,0,1-3.76.82Zm1.8-20.36V181.6H209a6.9,6.9,0,0,0,3.09-.72,6.52,6.52,0,0,0,2.22-1.84,8.17,8.17,0,0,0,1.34-2.65,10.83,10.83,0,0,0,.48-3.13v-2.2a10.7,10.7,0,0,0-.48-3.11,8.07,8.07,0,0,0-1.34-2.63,6.64,6.64,0,0,0-2.22-1.84,6.9,6.9,0,0,0-3.09-.72Z"/><path class="cls-2" d="M225,181.56h11.14v1.56H223.18V161.23H225Z"/><path class="cls-2" d="M239.78,161.23h12.68v1.62H247v18.68h5.49v1.59H239.78v-1.59h5.32V162.85h-5.32Z"/><path class="cls-2" d="M271.79,183.12H270L260,164.64v18.48h-1.79V161.23h1.79l10,18.45,0-18.45h1.79Z"/><path class="cls-2" d="M289.05,172.63h-9.66v8.93h11.13v1.56H277.6V161.23h12.86v1.58H279.39v8.25h9.66Z"/><path class="cls-2" d="M308.32,177.74a3.77,3.77,0,0,0-.24-1.38,3.73,3.73,0,0,0-.64-1.09,5.22,5.22,0,0,0-1-.85,8.09,8.09,0,0,0-1.16-.65q-.61-.28-1.26-.51l-1.25-.42c-.51-.16-1-.34-1.55-.54a14,14,0,0,1-1.54-.67,10.63,10.63,0,0,1-1.4-.88,6.26,6.26,0,0,1-1.14-1.1,4.87,4.87,0,0,1-.76-1.38,4.76,4.76,0,0,1-.28-1.69,4.7,4.7,0,0,1,.61-2.42,5.7,5.7,0,0,1,1.58-1.77,6.82,6.82,0,0,1,2.21-1.09,8.36,8.36,0,0,1,2.47-.37,7.63,7.63,0,0,1,2.66.46,7,7,0,0,1,2.22,1.28,6.08,6.08,0,0,1,1.52,2,6.27,6.27,0,0,1,.62,2.62h-1.82a6.37,6.37,0,0,0-.52-2,5.17,5.17,0,0,0-1.09-1.51,4.84,4.84,0,0,0-1.58-1,5.44,5.44,0,0,0-2-.35,6.92,6.92,0,0,0-1.81.24,5.09,5.09,0,0,0-1.61.76,3.89,3.89,0,0,0-1.16,1.26,3.41,3.41,0,0,0-.44,1.78,3.26,3.26,0,0,0,.52,1.87,4.6,4.6,0,0,0,1.31,1.29,9,9,0,0,0,1.75.88c.64.23,1.24.44,1.81.61s1.07.34,1.61.55a12.48,12.48,0,0,1,1.58.71,10.4,10.4,0,0,1,1.42.91,6.26,6.26,0,0,1,1.15,1.15,5.21,5.21,0,0,1,.76,1.44,5.1,5.1,0,0,1,.28,1.75,4.94,4.94,0,0,1-.62,2.51,5.76,5.76,0,0,1-1.62,1.78,7.09,7.09,0,0,1-2.25,1.07,9.75,9.75,0,0,1-2.56.35,9.4,9.4,0,0,1-2.8-.42,7.73,7.73,0,0,1-2.41-1.23,6.3,6.3,0,0,1-1.72-2,6,6,0,0,1-.71-2.73h1.82a5.82,5.82,0,0,0,.62,2.08,4.82,4.82,0,0,0,1.26,1.52,5.32,5.32,0,0,0,1.77.92,7.3,7.3,0,0,0,2.17.31,7.53,7.53,0,0,0,1.89-.24,5.22,5.22,0,0,0,1.66-.75,3.91,3.91,0,0,0,1.19-1.27A3.66,3.66,0,0,0,308.32,177.74Z"/><path class="cls-2" d="M316.43,181.84a1.52,1.52,0,0,1,.41-1.07,1.45,1.45,0,0,1,1.12-.44,1.46,1.46,0,0,1,1.14.44,1.48,1.48,0,0,1,.41,1.07,1.4,1.4,0,0,1-.41,1,1.56,1.56,0,0,1-1.14.41,1.54,1.54,0,0,1-1.12-.41A1.44,1.44,0,0,1,316.43,181.84Z"/><path class="cls-2" d="M56.72,207.79H54.91v3.05h-.59v-7.3h2.06a3,3,0,0,1,.91.16,2.13,2.13,0,0,1,.75.42,2.06,2.06,0,0,1,.5.66,2.21,2.21,0,0,1,.18.91,2,2,0,0,1-.11.67,1.78,1.78,0,0,1-.3.54,1.85,1.85,0,0,1-.45.43,3.6,3.6,0,0,1-.58.32l1.66,3.12v.07h-.62Zm-1.81-.51H56.5a1.92,1.92,0,0,0,.64-.13,1.59,1.59,0,0,0,.86-.83,1.61,1.61,0,0,0,.12-.63A1.67,1.67,0,0,0,58,205a1.46,1.46,0,0,0-.37-.51,1.66,1.66,0,0,0-.55-.32,2.48,2.48,0,0,0-.68-.12H54.91Z"/><path class="cls-2" d="M60.24,208.05a3.3,3.3,0,0,1,.17-1.05,2.63,2.63,0,0,1,.48-.87,2.07,2.07,0,0,1,.75-.59,2.47,2.47,0,0,1,2,0,2.2,2.2,0,0,1,.76.59,2.8,2.8,0,0,1,.47.87,3.3,3.3,0,0,1,.17,1.05v.16a3.6,3.6,0,0,1-.16,1,2.63,2.63,0,0,1-.48.87,2.26,2.26,0,0,1-1.77.81,2.25,2.25,0,0,1-1-.22,2.11,2.11,0,0,1-.76-.59,2.63,2.63,0,0,1-.48-.87,3.3,3.3,0,0,1-.17-1Zm.6.16a2.94,2.94,0,0,0,.12.84,2.3,2.3,0,0,0,.35.7,1.94,1.94,0,0,0,.57.5,1.8,1.8,0,0,0,1.57,0,1.79,1.79,0,0,0,.56-.5,2.3,2.3,0,0,0,.35-.7,2.94,2.94,0,0,0,.12-.84v-.16a2.87,2.87,0,0,0-.12-.83,2.35,2.35,0,0,0-.35-.71,1.69,1.69,0,0,0-.57-.49,1.55,1.55,0,0,0-.78-.19,1.5,1.5,0,0,0-.78.19,1.69,1.69,0,0,0-.57.49,2.35,2.35,0,0,0-.35.71,2.87,2.87,0,0,0-.12.83Z"/><path class="cls-2" d="M71.24,208.18a3.93,3.93,0,0,1-.13,1,2.6,2.6,0,0,1-.39.88,2,2,0,0,1-.66.62,1.94,1.94,0,0,1-1,.23,2.11,2.11,0,0,1-1-.21,2,2,0,0,1-.71-.62l0,.73h-.56v-7.7h.6v3a1.89,1.89,0,0,1,.69-.63,1.92,1.92,0,0,1,.94-.22,2,2,0,0,1,1,.22,2.09,2.09,0,0,1,.67.62,2.7,2.7,0,0,1,.38.88,4,4,0,0,1,.13,1Zm-.61-.1a3.71,3.71,0,0,0-.08-.81,2.3,2.3,0,0,0-.28-.72,1.56,1.56,0,0,0-1.8-.63,1.3,1.3,0,0,0-.42.22,1.22,1.22,0,0,0-.34.34,1.76,1.76,0,0,0-.24.42v2.54a1.67,1.67,0,0,0,.25.4,1.47,1.47,0,0,0,.35.31,1.69,1.69,0,0,0,.43.2,1.61,1.61,0,0,0,.49.07,1.45,1.45,0,0,0,.77-.2,1.55,1.55,0,0,0,.51-.51,2.3,2.3,0,0,0,.28-.72,3.71,3.71,0,0,0,.08-.81Z"/><path class="cls-2" d="M72.81,208.05A3.3,3.3,0,0,1,73,207a2.8,2.8,0,0,1,.47-.87,2.2,2.2,0,0,1,.76-.59,2.23,2.23,0,0,1,1-.22,2.19,2.19,0,0,1,1,.22,2.11,2.11,0,0,1,.76.59,2.63,2.63,0,0,1,.48.87,3.3,3.3,0,0,1,.17,1.05v.16a3.3,3.3,0,0,1-.17,1,2.61,2.61,0,0,1-.47.87,2.26,2.26,0,0,1-1.78.81,2.25,2.25,0,0,1-1-.22,2.3,2.3,0,0,1-.76-.59,2.8,2.8,0,0,1-.47-.87,3.3,3.3,0,0,1-.17-1Zm.6.16a2.94,2.94,0,0,0,.12.84,2.3,2.3,0,0,0,.35.7,1.72,1.72,0,0,0,.57.5,1.66,1.66,0,0,0,.78.18,1.61,1.61,0,0,0,.78-.18,1.72,1.72,0,0,0,.57-.5,2.3,2.3,0,0,0,.35-.7,2.94,2.94,0,0,0,.12-.84v-.16a2.87,2.87,0,0,0-.12-.83,2.35,2.35,0,0,0-.35-.71A1.91,1.91,0,0,0,76,206a1.72,1.72,0,0,0-1.57,0,1.76,1.76,0,0,0-.56.49,2.35,2.35,0,0,0-.35.71,2.87,2.87,0,0,0-.12.83Z"/><path class="cls-2" d="M81.4,204v1.39h2v.49h-2v3.41a1.45,1.45,0,0,0,.1.52.89.89,0,0,0,.25.34.85.85,0,0,0,.37.18,1.73,1.73,0,0,0,.47.06,3.08,3.08,0,0,0,.51,0l.45-.07.09.46a2.28,2.28,0,0,1-.53.13,4.44,4.44,0,0,1-.63,0,2.41,2.41,0,0,1-.67-.09,1.42,1.42,0,0,1-.53-.28,1.22,1.22,0,0,1-.35-.5,1.89,1.89,0,0,1-.14-.75v-3.41H79.28v-.49h1.51V204Z"/><path class="cls-2" d="M85.38,208.05a3.3,3.3,0,0,1,.17-1.05,2.61,2.61,0,0,1,.47-.87,2.11,2.11,0,0,1,.76-.59,2.21,2.21,0,0,1,1-.22,2.25,2.25,0,0,1,1,.22,2.2,2.2,0,0,1,.76.59,2.63,2.63,0,0,1,.48.87,3.61,3.61,0,0,1,.17,1.05v.16a3.61,3.61,0,0,1-.17,1,2.8,2.8,0,0,1-.47.87,2.2,2.2,0,0,1-.76.59,2.47,2.47,0,0,1-2,0,2.2,2.2,0,0,1-.76-.59,2.61,2.61,0,0,1-.47-.87,3.3,3.3,0,0,1-.17-1Zm.6.16a2.94,2.94,0,0,0,.12.84,2.09,2.09,0,0,0,.35.7,1.72,1.72,0,0,0,.57.5,1.78,1.78,0,0,0,1.56,0,1.72,1.72,0,0,0,.57-.5,2.3,2.3,0,0,0,.35-.7,2.94,2.94,0,0,0,.12-.84v-.16a2.87,2.87,0,0,0-.12-.83,2.16,2.16,0,0,0-.36-.71,1.69,1.69,0,0,0-.57-.49,1.5,1.5,0,0,0-.78-.19A1.55,1.55,0,0,0,87,206a1.76,1.76,0,0,0-.56.49,2.14,2.14,0,0,0-.35.71,2.87,2.87,0,0,0-.12.83Z"/><path class="cls-2" d="M98.89,203.54l1.47,4.13,1.57-4.13h.78v7.3h-.58v-3.23l0-3.27-1.62,4.3h-.39l-1.5-4.23,0,3.2v3.23h-.59v-7.3Z"/><path class="cls-2" d="M104.23,208.05a3.3,3.3,0,0,1,.17-1.05,2.61,2.61,0,0,1,.47-.87,2.26,2.26,0,0,1,1.77-.81,2.25,2.25,0,0,1,1,.22,2.2,2.2,0,0,1,.76.59,2.63,2.63,0,0,1,.48.87,3.61,3.61,0,0,1,.17,1.05v.16a3.61,3.61,0,0,1-.17,1,2.8,2.8,0,0,1-.47.87,2.2,2.2,0,0,1-.76.59,2.47,2.47,0,0,1-2,0,2.2,2.2,0,0,1-.76-.59,2.61,2.61,0,0,1-.47-.87,3.3,3.3,0,0,1-.17-1Zm.6.16a2.94,2.94,0,0,0,.12.84,2.09,2.09,0,0,0,.35.7,1.72,1.72,0,0,0,.57.5,1.78,1.78,0,0,0,1.56,0,1.72,1.72,0,0,0,.57-.5,2.3,2.3,0,0,0,.35-.7,2.94,2.94,0,0,0,.12-.84v-.16a2.87,2.87,0,0,0-.12-.83,2.16,2.16,0,0,0-.36-.71,1.69,1.69,0,0,0-.57-.49,1.5,1.5,0,0,0-.78-.19,1.55,1.55,0,0,0-.78.19,1.76,1.76,0,0,0-.56.49,2.14,2.14,0,0,0-.35.71,2.87,2.87,0,0,0-.12.83Z"/><path class="cls-2" d="M111.37,205.42l0,1a2.36,2.36,0,0,1,.76-.81,2,2,0,0,1,1.08-.3,1.69,1.69,0,0,1,1.36.53,2.2,2.2,0,0,1,.48,1.52v3.47h-.6v-3.46a1.77,1.77,0,0,0-.34-1.15,1.27,1.27,0,0,0-1-.39,1.73,1.73,0,0,0-.56.09,2.23,2.23,0,0,0-.48.26,2.4,2.4,0,0,0-.39.39,2.19,2.19,0,0,0-.27.5v3.76h-.6v-5.42Z"/><path class="cls-2" d="M116.79,208.05A3.61,3.61,0,0,1,117,207a2.63,2.63,0,0,1,.48-.87,2.07,2.07,0,0,1,.75-.59,2.47,2.47,0,0,1,2,0,2.2,2.2,0,0,1,.76.59,2.61,2.61,0,0,1,.47.87,3.3,3.3,0,0,1,.17,1.05v.16a3.3,3.3,0,0,1-.16,1,2.63,2.63,0,0,1-.48.87,2.16,2.16,0,0,1-.75.59,2.47,2.47,0,0,1-2,0,2.2,2.2,0,0,1-.76-.59,2.63,2.63,0,0,1-.48-.87,3.61,3.61,0,0,1-.17-1Zm.6.16a2.94,2.94,0,0,0,.12.84,2.11,2.11,0,0,0,.36.7,1.79,1.79,0,0,0,.56.5,1.8,1.8,0,0,0,1.57,0,1.79,1.79,0,0,0,.56-.5,2.09,2.09,0,0,0,.35-.7,2.94,2.94,0,0,0,.12-.84v-.16a2.87,2.87,0,0,0-.12-.83,2.14,2.14,0,0,0-.35-.71A1.69,1.69,0,0,0,120,206a1.55,1.55,0,0,0-.78-.19,1.5,1.5,0,0,0-.78.19,1.69,1.69,0,0,0-.57.49,2.35,2.35,0,0,0-.35.71,2.87,2.87,0,0,0-.12.83Z"/><path class="cls-2" d="M130.41,210.32h3.71v.52h-4.31v-7.3h.6Z"/><path class="cls-2" d="M136.09,205.42h2.52v4.89h1.85v.53h-4.37v-.53H138V206h-1.92Zm1.74-1.49a.52.52,0,0,1,.11-.32.54.54,0,0,1,.7,0,.52.52,0,0,1,.11.32.49.49,0,0,1-.11.31.54.54,0,0,1-.7,0A.49.49,0,0,1,137.83,203.93Z"/><path class="cls-2" d="M142.07,208.08a4,4,0,0,1,.13-1,2.53,2.53,0,0,1,.4-.88,2,2,0,0,1,.67-.62,1.91,1.91,0,0,1,.95-.22,2,2,0,0,1,.94.22,2.07,2.07,0,0,1,.69.63l0-.75h.56v5.32a2.69,2.69,0,0,1-.15.92,2.07,2.07,0,0,1-.44.71,1.82,1.82,0,0,1-.68.46,2.37,2.37,0,0,1-.9.17,2.2,2.2,0,0,1-.5-.06,2,2,0,0,1-.52-.17,2.53,2.53,0,0,1-.47-.28,1.77,1.77,0,0,1-.4-.42l.33-.36a1.93,1.93,0,0,0,1.52.78,1.83,1.83,0,0,0,.68-.12,1.54,1.54,0,0,0,.51-.35,1.74,1.74,0,0,0,.31-.55,2.23,2.23,0,0,0,.11-.7v-.62a1.89,1.89,0,0,1-.7.59,2.11,2.11,0,0,1-.92.2,1.9,1.9,0,0,1-.94-.23,2.09,2.09,0,0,1-.67-.62,2.83,2.83,0,0,1-.4-.88,3.93,3.93,0,0,1-.13-1Zm.6.1a3.72,3.72,0,0,0,.09.81,2.08,2.08,0,0,0,.28.72,1.55,1.55,0,0,0,.51.51,1.45,1.45,0,0,0,.77.2,1.57,1.57,0,0,0,.49-.07,1.59,1.59,0,0,0,.42-.19,1.69,1.69,0,0,0,.6-.7v-2.59a2.75,2.75,0,0,0-.24-.41,1.52,1.52,0,0,0-.34-.33,2.1,2.1,0,0,0-.42-.22,1.59,1.59,0,0,0-.5-.07,1.36,1.36,0,0,0-.77.2,1.58,1.58,0,0,0-.52.51,2.08,2.08,0,0,0-.28.72,3.72,3.72,0,0,0-.09.81Z"/><path class="cls-2" d="M149.12,206.46a2.43,2.43,0,0,1,.76-.83,1.93,1.93,0,0,1,1.09-.31,2.15,2.15,0,0,1,.79.13,1.72,1.72,0,0,1,.58.4,1.93,1.93,0,0,1,.35.65,2.67,2.67,0,0,1,.13.88v3.46h-.6v-3.46a2.17,2.17,0,0,0-.09-.65,1.24,1.24,0,0,0-.26-.48,1,1,0,0,0-.43-.31,1.82,1.82,0,0,0-1.16,0,1.83,1.83,0,0,0-.48.25,1.56,1.56,0,0,0-.39.38,1.92,1.92,0,0,0-.29.48v3.8h-.6v-7.7h.6Z"/><path class="cls-2" d="M156.8,204v1.39h2v.49h-2v3.41a1.45,1.45,0,0,0,.1.52.89.89,0,0,0,.25.34.85.85,0,0,0,.37.18,1.78,1.78,0,0,0,.47.06,3,3,0,0,0,.51,0,3.59,3.59,0,0,0,.45-.07l.09.46a2.16,2.16,0,0,1-.53.13,4.26,4.26,0,0,1-.63,0,2.29,2.29,0,0,1-.66-.09,1.39,1.39,0,0,1-.54-.28,1.32,1.32,0,0,1-.35-.5,2.09,2.09,0,0,1-.14-.75v-3.41h-1.51v-.49h1.51V204Z"/><path class="cls-2" d="M163.13,210.66a2.28,2.28,0,0,1,0,.45,3.59,3.59,0,0,1-.14.43,2,2,0,0,1-.22.41,1.52,1.52,0,0,1-.3.37l-.38-.24a2.42,2.42,0,0,0,.44-1.4v-.78h.64Z"/><path class="cls-2" d="M176.11,207.79H174.3v3.05h-.59v-7.3h2.06a3,3,0,0,1,.91.16,2,2,0,0,1,.74.42,1.93,1.93,0,0,1,.5.66,2.21,2.21,0,0,1,.19.91,2,2,0,0,1-.11.67,1.78,1.78,0,0,1-.3.54,2.29,2.29,0,0,1-.45.43,3.6,3.6,0,0,1-.58.32l1.66,3.12v.07h-.63Zm-1.81-.51h1.59a1.92,1.92,0,0,0,.64-.13,1.6,1.6,0,0,0,.51-.33,1.35,1.35,0,0,0,.34-.5,1.61,1.61,0,0,0,.12-.63,1.67,1.67,0,0,0-.13-.69,1.46,1.46,0,0,0-.37-.51,1.66,1.66,0,0,0-.55-.32,2.48,2.48,0,0,0-.68-.12H174.3Z"/><path class="cls-2" d="M179.63,208.05a3.3,3.3,0,0,1,.17-1.05,2.8,2.8,0,0,1,.47-.87,2.2,2.2,0,0,1,.76-.59,2.45,2.45,0,0,1,2,0,2.11,2.11,0,0,1,.76.59,2.63,2.63,0,0,1,.48.87,3.3,3.3,0,0,1,.17,1.05v.16a3.3,3.3,0,0,1-.17,1,2.61,2.61,0,0,1-.47.87,2.2,2.2,0,0,1-.76.59,2.47,2.47,0,0,1-2,0,2.2,2.2,0,0,1-.76-.59,2.8,2.8,0,0,1-.47-.87,3.3,3.3,0,0,1-.17-1Zm.6.16a2.94,2.94,0,0,0,.12.84,2.3,2.3,0,0,0,.35.7,1.72,1.72,0,0,0,.57.5,1.63,1.63,0,0,0,.78.18,1.61,1.61,0,0,0,.78-.18,1.72,1.72,0,0,0,.57-.5,2.3,2.3,0,0,0,.35-.7,2.94,2.94,0,0,0,.12-.84v-.16a2.87,2.87,0,0,0-.12-.83,2.35,2.35,0,0,0-.35-.71,1.91,1.91,0,0,0-.57-.49,1.72,1.72,0,0,0-1.57,0,1.76,1.76,0,0,0-.56.49,2.35,2.35,0,0,0-.35.71,2.87,2.87,0,0,0-.12.83Z"/><path class="cls-2" d="M190.63,208.18a3.93,3.93,0,0,1-.13,1,3.06,3.06,0,0,1-.39.88,2.09,2.09,0,0,1-.67.62,1.88,1.88,0,0,1-.95.23,2.06,2.06,0,0,1-.94-.21,2,2,0,0,1-.71-.62l0,.73h-.56v-7.7h.6v3a2.07,2.07,0,0,1,.69-.63,2.16,2.16,0,0,1,1.9,0,1.9,1.9,0,0,1,.67.62,2.71,2.71,0,0,1,.39.88,4,4,0,0,1,.13,1Zm-.61-.1a4.45,4.45,0,0,0-.08-.81,2.3,2.3,0,0,0-.28-.72,1.55,1.55,0,0,0-.51-.51,1.37,1.37,0,0,0-.78-.2,1.44,1.44,0,0,0-.51.08,1.35,1.35,0,0,0-.43.22,1.37,1.37,0,0,0-.34.34,2.86,2.86,0,0,0-.24.42v2.54a1.72,1.72,0,0,0,.26.4,1.47,1.47,0,0,0,.35.31,1.54,1.54,0,0,0,.43.2,1.57,1.57,0,0,0,.49.07,1.45,1.45,0,0,0,.77-.2,1.52,1.52,0,0,0,.5-.51,2.08,2.08,0,0,0,.28-.72,3.72,3.72,0,0,0,.09-.81Z"/><path class="cls-2" d="M192.19,208.05a3.31,3.31,0,0,1,.18-1.05,2.61,2.61,0,0,1,.47-.87,2.11,2.11,0,0,1,.76-.59,2.18,2.18,0,0,1,1-.22,2.25,2.25,0,0,1,1,.22,2.2,2.2,0,0,1,.76.59,2.63,2.63,0,0,1,.48.87,3.61,3.61,0,0,1,.17,1.05v.16a3.61,3.61,0,0,1-.17,1,2.8,2.8,0,0,1-.47.87,2.2,2.2,0,0,1-.76.59,2.47,2.47,0,0,1-2,0,2.2,2.2,0,0,1-.76-.59,2.61,2.61,0,0,1-.47-.87,3.31,3.31,0,0,1-.18-1Zm.61.16a2.94,2.94,0,0,0,.12.84,2.09,2.09,0,0,0,.35.7,1.72,1.72,0,0,0,.57.5,1.61,1.61,0,0,0,.78.18,1.66,1.66,0,0,0,.78-.18,1.82,1.82,0,0,0,.57-.5,2.28,2.28,0,0,0,.34-.7,2.63,2.63,0,0,0,.13-.84v-.16a2.57,2.57,0,0,0-.13-.83,2.14,2.14,0,0,0-.35-.71,1.69,1.69,0,0,0-.57-.49,1.53,1.53,0,0,0-.78-.19,1.55,1.55,0,0,0-.78.19,1.91,1.91,0,0,0-.57.49,2.34,2.34,0,0,0-.34.71,2.87,2.87,0,0,0-.12.83Z"/><path class="cls-2" d="M200.79,204v1.39h2v.49h-2v3.41a1.12,1.12,0,0,0,.1.52.87.87,0,0,0,.62.52,1.65,1.65,0,0,0,.46.06,3.12,3.12,0,0,0,.52,0,3.71,3.71,0,0,0,.44-.07l.09.46a2.07,2.07,0,0,1-.52.13,4.44,4.44,0,0,1-.63,0,2.36,2.36,0,0,1-.67-.09,1.42,1.42,0,0,1-.53-.28,1.34,1.34,0,0,1-.36-.5,2.1,2.1,0,0,1-.13-.75v-3.41h-1.51v-.49h1.51V204Z"/><path class="cls-2" d="M204.76,208.05a3.61,3.61,0,0,1,.17-1.05,2.63,2.63,0,0,1,.48-.87,2.07,2.07,0,0,1,.75-.59,2.47,2.47,0,0,1,2,0,2.2,2.2,0,0,1,.76.59,2.8,2.8,0,0,1,.47.87,3.3,3.3,0,0,1,.17,1.05v.16a3.6,3.6,0,0,1-.16,1,2.63,2.63,0,0,1-.48.87,2.38,2.38,0,0,1-2.79.59,2.2,2.2,0,0,1-.76-.59,2.63,2.63,0,0,1-.48-.87,3.61,3.61,0,0,1-.17-1Zm.6.16a2.94,2.94,0,0,0,.12.84,2.3,2.3,0,0,0,.35.7,1.94,1.94,0,0,0,.57.5,1.8,1.8,0,0,0,1.57,0,1.79,1.79,0,0,0,.56-.5,2.09,2.09,0,0,0,.35-.7,2.94,2.94,0,0,0,.12-.84v-.16a2.87,2.87,0,0,0-.12-.83,2.35,2.35,0,0,0-.35-.71A1.69,1.69,0,0,0,208,206a1.55,1.55,0,0,0-.78-.19,1.5,1.5,0,0,0-.78.19,1.69,1.69,0,0,0-.57.49,2.35,2.35,0,0,0-.35.71,2.87,2.87,0,0,0-.12.83Z"/><path class="cls-2" d="M218.28,203.54l1.47,4.13,1.56-4.13h.79v7.3h-.59v-3.23l.05-3.27-1.62,4.3h-.39l-1.5-4.23,0,3.2v3.23h-.59v-7.3Z"/><path class="cls-2" d="M223.61,208.05a3.61,3.61,0,0,1,.17-1.05,2.63,2.63,0,0,1,.48-.87,2.07,2.07,0,0,1,.75-.59,2.47,2.47,0,0,1,2,0,2.2,2.2,0,0,1,.76.59,2.8,2.8,0,0,1,.47.87,3.3,3.3,0,0,1,.17,1.05v.16a3.3,3.3,0,0,1-.16,1,2.63,2.63,0,0,1-.48.87,2.16,2.16,0,0,1-.75.59,2.47,2.47,0,0,1-2,0,2.2,2.2,0,0,1-.76-.59,2.63,2.63,0,0,1-.48-.87,3.61,3.61,0,0,1-.17-1Zm.6.16a2.94,2.94,0,0,0,.12.84,2.11,2.11,0,0,0,.36.7,1.79,1.79,0,0,0,.56.5,1.8,1.8,0,0,0,1.57,0,1.79,1.79,0,0,0,.56-.5,2.09,2.09,0,0,0,.35-.7,2.94,2.94,0,0,0,.12-.84v-.16a2.87,2.87,0,0,0-.12-.83,2.14,2.14,0,0,0-.35-.71,1.69,1.69,0,0,0-.57-.49,1.55,1.55,0,0,0-.78-.19,1.5,1.5,0,0,0-.78.19,1.69,1.69,0,0,0-.57.49,2.35,2.35,0,0,0-.35.71,2.87,2.87,0,0,0-.12.83Z"/><path class="cls-2" d="M230.76,205.42l0,1a2.39,2.39,0,0,1,.77-.81,2,2,0,0,1,1.08-.3,1.7,1.7,0,0,1,1.36.53,2.25,2.25,0,0,1,.48,1.52v3.47h-.6v-3.46a1.77,1.77,0,0,0-.35-1.15,1.26,1.26,0,0,0-1-.39,1.67,1.67,0,0,0-.55.09,1.84,1.84,0,0,0-.48.26,1.8,1.8,0,0,0-.39.39,2.19,2.19,0,0,0-.27.5v3.76h-.6v-5.42Z"/><path class="cls-2" d="M236.18,208.05a3.3,3.3,0,0,1,.17-1.05,2.8,2.8,0,0,1,.47-.87,2.2,2.2,0,0,1,.76-.59,2.47,2.47,0,0,1,2,0,2.16,2.16,0,0,1,.75.59,2.63,2.63,0,0,1,.48.87,3.3,3.3,0,0,1,.17,1.05v.16a3.3,3.3,0,0,1-.17,1,2.61,2.61,0,0,1-.47.87,2.26,2.26,0,0,1-1.77.81,2.26,2.26,0,0,1-1-.22,2.16,2.16,0,0,1-.75-.59,2.63,2.63,0,0,1-.48-.87,3.3,3.3,0,0,1-.17-1Zm.6.16a2.94,2.94,0,0,0,.12.84,2.3,2.3,0,0,0,.35.7,1.94,1.94,0,0,0,.57.5,1.67,1.67,0,0,0,.79.18,1.59,1.59,0,0,0,.77-.18,1.72,1.72,0,0,0,.57-.5,2.3,2.3,0,0,0,.35-.7,2.94,2.94,0,0,0,.12-.84v-.16a2.87,2.87,0,0,0-.12-.83,2.35,2.35,0,0,0-.35-.71,1.91,1.91,0,0,0-.57-.49,1.55,1.55,0,0,0-.78-.19,1.5,1.5,0,0,0-.78.19,1.69,1.69,0,0,0-.57.49,2.35,2.35,0,0,0-.35.71,2.87,2.87,0,0,0-.12.83Z"/><path class="cls-2" d="M249.06,210.84v-7.3h2a3.13,3.13,0,0,1,.86.12,2.11,2.11,0,0,1,.74.35,1.71,1.71,0,0,1,.72,1.44,1.43,1.43,0,0,1-.1.56,1.39,1.39,0,0,1-.26.44,1.57,1.57,0,0,1-.38.34,3.07,3.07,0,0,1-.48.24,1.91,1.91,0,0,1,.59.23,1.7,1.7,0,0,1,.46.38,1.72,1.72,0,0,1,.42,1.14,1.74,1.74,0,0,1-.18.87,1.85,1.85,0,0,1-.5.64,2.07,2.07,0,0,1-.73.4,2.47,2.47,0,0,1-.86.15Zm.6-4h1.47a2,2,0,0,0,.61-.09,1.53,1.53,0,0,0,.53-.25,1.41,1.41,0,0,0,.37-.43,1.27,1.27,0,0,0,.14-.6,1.22,1.22,0,0,0-.15-.63,1.21,1.21,0,0,0-.39-.42,1.65,1.65,0,0,0-.54-.24,2.65,2.65,0,0,0-.63-.08h-1.41Zm0,.52v3h1.71a2.19,2.19,0,0,0,.63-.11,1.85,1.85,0,0,0,.53-.31,1.26,1.26,0,0,0,.36-.47,1.51,1.51,0,0,0,0-1.25,1.3,1.3,0,0,0-.35-.45,1.55,1.55,0,0,0-.52-.29,2.06,2.06,0,0,0-.61-.11Z"/><path class="cls-2" d="M255,208.05a3.3,3.3,0,0,1,.17-1.05,2.8,2.8,0,0,1,.47-.87,2.2,2.2,0,0,1,.76-.59,2.47,2.47,0,0,1,2,0,2.3,2.3,0,0,1,.76.59,2.8,2.8,0,0,1,.47.87,3.3,3.3,0,0,1,.17,1.05v.16a3.3,3.3,0,0,1-.17,1,2.44,2.44,0,0,1-.47.87,2.38,2.38,0,0,1-2.79.59,2.11,2.11,0,0,1-.76-.59,2.63,2.63,0,0,1-.48-.87,3.3,3.3,0,0,1-.17-1Zm.6.16a2.94,2.94,0,0,0,.12.84,2.3,2.3,0,0,0,.35.7,1.94,1.94,0,0,0,.57.5,1.8,1.8,0,0,0,1.57,0,1.79,1.79,0,0,0,.56-.5,2.3,2.3,0,0,0,.35-.7,2.94,2.94,0,0,0,.12-.84v-.16a2.87,2.87,0,0,0-.12-.83,2.35,2.35,0,0,0-.35-.71,1.79,1.79,0,0,0-.57-.49,1.55,1.55,0,0,0-.78-.19,1.5,1.5,0,0,0-.78.19,1.69,1.69,0,0,0-.57.49,2.35,2.35,0,0,0-.35.71,2.87,2.87,0,0,0-.12.83Z"/><path class="cls-2" d="M261.76,203.14h2.53v7.17h1.84v.53h-4.37v-.53h1.93v-6.63h-1.93Z"/><path class="cls-2" d="M267.73,208.08a4,4,0,0,1,.13-1,2.74,2.74,0,0,1,.41-.88,2,2,0,0,1,.67-.62,1.91,1.91,0,0,1,.95-.22,1.87,1.87,0,0,1,.92.22,2,2,0,0,1,.69.61v-3h.59v7.7h-.56l0-.71a2,2,0,0,1-.71.6,2,2,0,0,1-.92.21,1.9,1.9,0,0,1-.94-.23,2,2,0,0,1-.67-.62,2.85,2.85,0,0,1-.41-.88,3.93,3.93,0,0,1-.13-1Zm.6.1a3.72,3.72,0,0,0,.09.81,2.3,2.3,0,0,0,.28.72,1.58,1.58,0,0,0,.52.51,1.42,1.42,0,0,0,.77.2,1.51,1.51,0,0,0,.48-.07,1.57,1.57,0,0,0,.42-.18,1.68,1.68,0,0,0,.35-.3,2,2,0,0,0,.26-.39v-2.63a2.14,2.14,0,0,0-.25-.41,1.72,1.72,0,0,0-.34-.32,1.65,1.65,0,0,0-.42-.21,1.57,1.57,0,0,0-.49-.07,1.37,1.37,0,0,0-.78.2,1.55,1.55,0,0,0-.51.51,2.1,2.1,0,0,0-.29.72,3.72,3.72,0,0,0-.09.81Z"/><path class="cls-2" d="M303.52,210.84h-.61V204.3l-2,.87v-.57l2.54-1.06h.09Z"/><path class="cls-2" d="M311.31,210.84h-4.58v-.46l2.39-2.71c.18-.2.34-.4.49-.58a4.56,4.56,0,0,0,.39-.54,2.61,2.61,0,0,0,.25-.54,1.77,1.77,0,0,0,.09-.56,1.74,1.74,0,0,0-.11-.61,1.38,1.38,0,0,0-.31-.47,1.64,1.64,0,0,0-.49-.31,1.71,1.71,0,0,0-.62-.11,1.84,1.84,0,0,0-.69.13,1.57,1.57,0,0,0-.51.36,1.67,1.67,0,0,0-.32.53,2.42,2.42,0,0,0-.12.68h-.6a2.27,2.27,0,0,1,.17-.86,2,2,0,0,1,.45-.7,1.92,1.92,0,0,1,.7-.47,2.25,2.25,0,0,1,.92-.18,2.65,2.65,0,0,1,.87.14,2,2,0,0,1,.68.41,2,2,0,0,1,.43.63,2.18,2.18,0,0,1,.15.82,1.89,1.89,0,0,1-.13.7,2.91,2.91,0,0,1-.33.66,5.41,5.41,0,0,1-.46.64l-.51.59-2,2.3h3.84Z"/><path class="cls-2" d="M317.72,208.18a4.4,4.4,0,0,1-.13,1,3.06,3.06,0,0,1-.39.88,2.09,2.09,0,0,1-.67.62,1.88,1.88,0,0,1-.95.23,2.22,2.22,0,0,1-.93-.2,1.81,1.81,0,0,1-.7-.56v2.74h-.6v-7.5h.56l0,.74a1.94,1.94,0,0,1,1.64-.84,2,2,0,0,1,1,.22,2,2,0,0,1,.67.62,2.94,2.94,0,0,1,.39.88,4.42,4.42,0,0,1,.13,1Zm-.6-.1a3.72,3.72,0,0,0-.09-.81,2.11,2.11,0,0,0-.3-.72,1.55,1.55,0,0,0-.51-.51,1.42,1.42,0,0,0-.78-.2,1.53,1.53,0,0,0-.49.07,1.65,1.65,0,0,0-.42.21,1.38,1.38,0,0,0-.33.31,1.67,1.67,0,0,0-.25.4v2.69a1.6,1.6,0,0,0,1.5.91,1.36,1.36,0,0,0,.77-.2,1.52,1.52,0,0,0,.52-.52A2.31,2.31,0,0,0,317,209a3.72,3.72,0,0,0,.09-.81Z"/><path class="cls-2" d="M321.61,204v1.39h2v.49h-2v3.41a1.45,1.45,0,0,0,.1.52.89.89,0,0,0,.25.34.85.85,0,0,0,.37.18,1.78,1.78,0,0,0,.47.06,3,3,0,0,0,.51,0,3.59,3.59,0,0,0,.45-.07l.09.46a2.16,2.16,0,0,1-.53.13,4.26,4.26,0,0,1-.63,0,2.29,2.29,0,0,1-.66-.09,1.39,1.39,0,0,1-.54-.28,1.32,1.32,0,0,1-.35-.5,2.09,2.09,0,0,1-.14-.75v-3.41h-1.51v-.49H321V204Z"/><path class="cls-2" d="M336.92,204.07H334.6v6.77H334v-6.77h-2.33v-.53h5.23Z"/><path class="cls-2" d="M342.05,205.32l.46,0a2.33,2.33,0,0,1,.37.08l-.07.58a3,3,0,0,0-.43-.07,3,3,0,0,0-.43,0,2.25,2.25,0,0,0-1.29.36,2,2,0,0,0-.75,1.11v3.47h-.62v-5.42h.57l0,.94v.11a2.47,2.47,0,0,1,.88-.85A2.61,2.61,0,0,1,342.05,205.32Z"/><path class="cls-2" d="M348.48,210.84a1.82,1.82,0,0,1-.09-.37c0-.13,0-.27,0-.41a2.4,2.4,0,0,1-.36.35,2.27,2.27,0,0,1-.45.28,2.13,2.13,0,0,1-.52.18,2.27,2.27,0,0,1-.59.07,2.35,2.35,0,0,1-.71-.11,1.74,1.74,0,0,1-.57-.31,1.47,1.47,0,0,1-.38-.48,1.5,1.5,0,0,1-.14-.64,1.43,1.43,0,0,1,.21-.79,1.59,1.59,0,0,1,.56-.53,2.67,2.67,0,0,1,.81-.3,5,5,0,0,1,1-.09h1.18v-.62a1.53,1.53,0,0,0-.12-.54,1.2,1.2,0,0,0-.32-.39,1.6,1.6,0,0,0-.47-.24,2.21,2.21,0,0,0-.59-.08,2,2,0,0,0-.56.08,1.62,1.62,0,0,0-.46.21,1.1,1.1,0,0,0-.33.35.85.85,0,0,0-.13.45h-.61a1.32,1.32,0,0,1,.19-.64,1.64,1.64,0,0,1,.45-.5,2.27,2.27,0,0,1,.66-.33,2.74,2.74,0,0,1,.81-.12,2.65,2.65,0,0,1,.81.11,1.78,1.78,0,0,1,.66.33,1.49,1.49,0,0,1,.44.55,1.71,1.71,0,0,1,.17.77v2.63a2.47,2.47,0,0,0,.05.54c0,.19.07.36.11.53v.06Zm-2-.43a2,2,0,0,0,.6-.08,1.91,1.91,0,0,0,.53-.22,2,2,0,0,0,.43-.34,1.71,1.71,0,0,0,.29-.43v-1.19h-1.1a4.77,4.77,0,0,0-.76.06,2,2,0,0,0-.64.2,1.16,1.16,0,0,0-.45.36,1,1,0,0,0-.17.58.92.92,0,0,0,.1.44,1.07,1.07,0,0,0,.67.55A2,2,0,0,0,346.5,210.41Z"/><path class="cls-2" d="M353.23,210.43a2.25,2.25,0,0,0,.58-.08,1.59,1.59,0,0,0,.48-.26,1.19,1.19,0,0,0,.34-.4,1.27,1.27,0,0,0,.16-.52h.57a1.61,1.61,0,0,1-.2.71,1.92,1.92,0,0,1-.47.56,2.07,2.07,0,0,1-.67.37,2.3,2.3,0,0,1-.79.13,2.21,2.21,0,0,1-1-.23,2.18,2.18,0,0,1-.74-.6,2.8,2.8,0,0,1-.44-.86,3.5,3.5,0,0,1-.15-1V208a3.38,3.38,0,0,1,.15-1,2.74,2.74,0,0,1,.44-.87,2.18,2.18,0,0,1,.74-.6,2.53,2.53,0,0,1,1.86-.08,2,2,0,0,1,.67.4,1.93,1.93,0,0,1,.45.61,2,2,0,0,1,.18.78h-.57a1.49,1.49,0,0,0-.14-.57,1.87,1.87,0,0,0-.33-.45,1.44,1.44,0,0,0-.49-.3,1.68,1.68,0,0,0-.6-.1,1.59,1.59,0,0,0-.81.19,1.52,1.52,0,0,0-.54.5,2.33,2.33,0,0,0-.31.7,3.65,3.65,0,0,0-.1.8v.21a3.59,3.59,0,0,0,.1.81,2.23,2.23,0,0,0,.31.7,1.52,1.52,0,0,0,.54.5A1.62,1.62,0,0,0,353.23,210.43Z"/><path class="cls-2" d="M358.81,208.1l-.77.68v2.06h-.61v-7.7H358v5l.64-.63,2.21-2h.76l-2.42,2.28,2.67,3.14h-.77Z"/><path class="cls-2" d="M363.74,205.42h2.52v4.89h1.84v.53h-4.36v-.53h1.91V206h-1.91Zm1.74-1.49a.51.51,0,0,1,.1-.32.43.43,0,0,1,.36-.13.4.4,0,0,1,.34.13.46.46,0,0,1,.11.32.44.44,0,0,1-.11.31.4.4,0,0,1-.34.13.43.43,0,0,1-.36-.13A.48.48,0,0,1,365.48,203.93Z"/><path class="cls-2" d="M370.43,205.42l.05,1a2.36,2.36,0,0,1,.76-.81,2,2,0,0,1,1.08-.3,1.72,1.72,0,0,1,1.37.53,2.25,2.25,0,0,1,.47,1.52v3.47h-.6v-3.46a1.77,1.77,0,0,0-.34-1.15,1.26,1.26,0,0,0-1-.39,1.73,1.73,0,0,0-.56.09,2.23,2.23,0,0,0-.48.26,2,2,0,0,0-.38.39,2.22,2.22,0,0,0-.28.5v3.76h-.6v-5.42Z"/><path class="cls-2" d="M376,208.08a4,4,0,0,1,.13-1,2.53,2.53,0,0,1,.4-.88,2,2,0,0,1,.67-.62,1.91,1.91,0,0,1,.95-.22,2,2,0,0,1,.94.22,2.07,2.07,0,0,1,.69.63l0-.75h.56v5.32a2.69,2.69,0,0,1-.15.92,2.07,2.07,0,0,1-.44.71,1.9,1.9,0,0,1-.68.46,2.37,2.37,0,0,1-.9.17,2.2,2.2,0,0,1-.5-.06,2,2,0,0,1-.52-.17,2.53,2.53,0,0,1-.47-.28,1.77,1.77,0,0,1-.4-.42l.33-.36a1.93,1.93,0,0,0,1.52.78,1.83,1.83,0,0,0,.68-.12,1.54,1.54,0,0,0,.51-.35,1.74,1.74,0,0,0,.31-.55,2.23,2.23,0,0,0,.11-.7v-.62a1.89,1.89,0,0,1-.7.59,2.11,2.11,0,0,1-.92.2,1.9,1.9,0,0,1-.94-.23,2,2,0,0,1-.67-.62,2.83,2.83,0,0,1-.4-.88,3.93,3.93,0,0,1-.13-1Zm.6.1a3.72,3.72,0,0,0,.09.81,2.08,2.08,0,0,0,.28.72,1.55,1.55,0,0,0,.51.51,1.45,1.45,0,0,0,.77.2,1.61,1.61,0,0,0,.49-.07,1.59,1.59,0,0,0,.42-.19,1.69,1.69,0,0,0,.6-.7v-2.59a2.75,2.75,0,0,0-.24-.41,1.52,1.52,0,0,0-.34-.33,2.1,2.1,0,0,0-.42-.22,1.63,1.63,0,0,0-.5-.07,1.39,1.39,0,0,0-.78.2,1.55,1.55,0,0,0-.51.51,2.08,2.08,0,0,0-.28.72,3.72,3.72,0,0,0-.09.81Z"/></svg>