<svg id="Layer_1" data-name="Layer 1" xmlns="http://www.w3.org/2000/svg" width="600" height="300" viewBox="0 0 600 300"><defs><style>.cls-1{fill:#d0d2d3;}.cls-2{fill:#010101;}</style></defs><rect class="cls-1" width="600" height="300"/><path class="cls-2" d="M117,147.19a6,6,0,0,0,2.57-.47,3.81,3.81,0,0,0,1.56-1.27,4.86,4.86,0,0,0,.76-1.85,11,11,0,0,0,.2-2.15v-.74h5.42v.74q0,5.13-2.68,7.9T117,152.12a10.31,10.31,0,0,1-7.8-3c-1.92-2-2.87-4.91-2.87-8.74V134a15.32,15.32,0,0,1,.74-4.95,10,10,0,0,1,2.13-3.69,9.24,9.24,0,0,1,3.37-2.3,11.73,11.73,0,0,1,4.43-.8,12.64,12.64,0,0,1,4.52.74,8.75,8.75,0,0,1,3.31,2.13,9.2,9.2,0,0,1,2,3.37,13.6,13.6,0,0,1,.67,4.43v.74h-5.42v-.74a9,9,0,0,0-.24-2.05,5.62,5.62,0,0,0-.82-1.85,4.42,4.42,0,0,0-1.56-1.33,5.35,5.35,0,0,0-2.47-.51,5,5,0,0,0-2.34.51,4.81,4.81,0,0,0-1.64,1.4,5.89,5.89,0,0,0-1,2.05,9.77,9.77,0,0,0-.3,2.44v7.23a10.8,10.8,0,0,0,.28,2.56,6.13,6.13,0,0,0,.91,2,4.07,4.07,0,0,0,1.62,1.33A5.62,5.62,0,0,0,117,147.19Z"/><path class="cls-2" d="M132,134q0-5.58,2.81-8.66a11.38,11.38,0,0,1,15.57,0q2.8,3.07,2.81,8.66v6.41c0,3.83-.94,6.75-2.81,8.74a11.6,11.6,0,0,1-15.57,0c-1.87-2-2.81-4.91-2.81-8.74Zm10.59,13.22a5.64,5.64,0,0,0,2.47-.47,4.15,4.15,0,0,0,1.6-1.33,5.32,5.32,0,0,0,.86-2.06,12.53,12.53,0,0,0,.25-2.62v-7.07a10.86,10.86,0,0,0-.29-2.54,5.86,5.86,0,0,0-.9-2.06,4.53,4.53,0,0,0-1.6-1.37,5.83,5.83,0,0,0-4.77,0,4.53,4.53,0,0,0-1.6,1.37,5.86,5.86,0,0,0-.9,2.06,10.86,10.86,0,0,0-.29,2.54v7.07a12.53,12.53,0,0,0,.25,2.62,5.32,5.32,0,0,0,.86,2.06,4.08,4.08,0,0,0,1.6,1.33A5.62,5.62,0,0,0,142.57,147.19Z"/><path class="cls-2" d="M172.1,148.84h.74v-26h5.42v28.75h-10.6l-3.36-26h-.74v26h-5.42V122.8h10.59Z"/><path class="cls-2" d="M181.83,122.8h20.69V128h-7.63v23.57h-5.42V128h-7.64Z"/><path class="cls-2" d="M207.37,122.8h18.15V128H212.79v6.57H225v5.17H212.79v6.65H226v5.18H207.37Z"/><path class="cls-2" d="M236.85,122.8l4.85,11.75h1l4.85-11.75h5.87l-5.91,14v.74l5.91,14.05h-5.87l-4.85-11.83h-1l-4.85,11.83H231l5.91-14.05v-.74l-5.91-14Z"/><path class="cls-2" d="M257.47,122.8h20.69V128h-7.64v23.57H265.1V128h-7.63Z"/><path class="cls-2" d="M307.4,122.8h9.52l1.65,21.6v4.19h1V144.4l1.64-21.6h9.53v28.75h-4.93V132.33l.5-6.57h-1l-2.14,25.79H315l-2.21-25.79h-1l.49,6.57v19.22H307.4Z"/><path class="cls-2" d="M349.57,145.39h-9.78l-1.39,6.16h-5.67l6.86-28.75h10.18l6.86,28.75H351Zm-8.63-5.18h7.44l-3.33-14.7h-.74Z"/><path class="cls-2" d="M357.49,122.8h20.7V128h-7.64v23.57h-5.42V128h-7.64Z"/><path class="cls-2" d="M383.11,122.8h20.7V128h-7.64v23.57h-5.42V128h-7.64Z"/><path class="cls-2" d="M408.66,122.8h18.15V128H414.08v6.57h12.23v5.17H414.08v6.65H427.3v5.18H408.66Z"/><path class="cls-2" d="M453.21,151.55h-5.42v-8.63a2.39,2.39,0,0,0-.52-1.6,2.1,2.1,0,0,0-1.7-.61h-6.24v10.84h-5.42V122.8h11a11.32,11.32,0,0,1,3.9.62,8,8,0,0,1,2.82,1.7,7.53,7.53,0,0,1,1.72,2.53,7.9,7.9,0,0,1,.6,3.08v1A6.23,6.23,0,0,1,453,135a6,6,0,0,1-2.91,2.36v.74a3.33,3.33,0,0,1,3.12,3.49Zm-13.88-16h5.17a4.36,4.36,0,0,0,3-.92,3.36,3.36,0,0,0,1-2.61v-.49a3.46,3.46,0,0,0-1-2.49,4,4,0,0,0-3-1h-5.17Z"/><path class="cls-2" d="M474,131.59a4,4,0,0,0-1.34-3,5.22,5.22,0,0,0-3.76-1.27,5.56,5.56,0,0,0-3.24.84,2.66,2.66,0,0,0-1.19,2.28,3.1,3.1,0,0,0,.29,1.34,2.7,2.7,0,0,0,1,1.06,7.3,7.3,0,0,0,1.89.84,24.27,24.27,0,0,0,3,.7,15.34,15.34,0,0,1,6.9,2.75,6.94,6.94,0,0,1,2.38,5.71v.49a8.86,8.86,0,0,1-.72,3.64,7.73,7.73,0,0,1-2.07,2.77,9.44,9.44,0,0,1-3.29,1.77,15.89,15.89,0,0,1-9.34-.19,9.84,9.84,0,0,1-3.59-2.22,9.27,9.27,0,0,1-2.18-3.32,11.53,11.53,0,0,1-.74-4.17v-1.23h5.42v1a5.67,5.67,0,0,0,1.5,4.13,6.23,6.23,0,0,0,4.66,1.54,5.39,5.39,0,0,0,3.66-1.07,3.31,3.31,0,0,0,1.19-2.54,3.79,3.79,0,0,0-.25-1.34,2.81,2.81,0,0,0-.86-1.15,5.87,5.87,0,0,0-1.69-.92,14,14,0,0,0-2.71-.7,27.62,27.62,0,0,1-4-1,10.88,10.88,0,0,1-3.14-1.58,6.66,6.66,0,0,1-2.07-2.46,7.93,7.93,0,0,1-.74-3.61v-.25a7.41,7.41,0,0,1,.72-3.26,7.82,7.82,0,0,1,2-2.61,9.24,9.24,0,0,1,3.12-1.73,12.76,12.76,0,0,1,4.08-.61,13.11,13.11,0,0,1,4.52.72,9.71,9.71,0,0,1,3.31,2,8.07,8.07,0,0,1,2,2.83,8.6,8.6,0,0,1,.68,3.37v1.48H474Z"/><path class="cls-2" d="M491.93,148.22a4,4,0,0,1-.31,1.54,3.84,3.84,0,0,1-.84,1.23,4.15,4.15,0,0,1-1.26.82,3.81,3.81,0,0,1-3,0,4.18,4.18,0,0,1-1.24-.82,3.84,3.84,0,0,1-.84-1.23,4,4,0,0,1,0-3.08,3.84,3.84,0,0,1,.84-1.23,4.18,4.18,0,0,1,1.24-.82,3.81,3.81,0,0,1,3,0,4.15,4.15,0,0,1,1.26.82,3.84,3.84,0,0,1,.84,1.23A4,4,0,0,1,491.93,148.22Z"/><path class="cls-2" d="M109.35,173.89a1.34,1.34,0,0,0-.08-.46,1.13,1.13,0,0,0-.22-.36,1.38,1.38,0,0,0-.31-.28,2.46,2.46,0,0,0-.39-.22l-.42-.17-.42-.14-.52-.18c-.17-.07-.34-.14-.51-.23a2.74,2.74,0,0,1-.46-.29,1.86,1.86,0,0,1-.38-.36,1.61,1.61,0,0,1-.26-.46,1.7,1.7,0,0,1-.09-.57,1.61,1.61,0,0,1,.2-.8,1.91,1.91,0,0,1,.53-.6,2.37,2.37,0,0,1,.73-.36,3,3,0,0,1,.83-.12,2.64,2.64,0,0,1,.89.15,2.48,2.48,0,0,1,.74.43,2,2,0,0,1,.5.67,2.07,2.07,0,0,1,.21.87h-.61a2,2,0,0,0-.17-.65,1.64,1.64,0,0,0-.36-.5,1.69,1.69,0,0,0-.53-.33,1.81,1.81,0,0,0-.67-.12,2.1,2.1,0,0,0-.61.09,1.72,1.72,0,0,0-.53.25,1.31,1.31,0,0,0-.39.42,1.15,1.15,0,0,0-.15.59,1,1,0,0,0,.18.62,1.54,1.54,0,0,0,.44.44,3.14,3.14,0,0,0,.58.29l.6.2.54.18a4.12,4.12,0,0,1,.52.24,3,3,0,0,1,.48.31,2.28,2.28,0,0,1,.38.38,1.59,1.59,0,0,1,.26.48,1.76,1.76,0,0,1,.09.58,1.64,1.64,0,0,1-.21.84,1.91,1.91,0,0,1-.54.59,2.37,2.37,0,0,1-.75.36,3.06,3.06,0,0,1-.85.12,3.22,3.22,0,0,1-.93-.14,2.81,2.81,0,0,1-.81-.41,2.31,2.31,0,0,1-.57-.67,2,2,0,0,1-.24-.91h.61a1.86,1.86,0,0,0,.21.69,1.74,1.74,0,0,0,.42.51,1.82,1.82,0,0,0,.59.3,2.36,2.36,0,0,0,.72.11,2.72,2.72,0,0,0,.63-.08,2,2,0,0,0,.55-.25,1.27,1.27,0,0,0,.4-.43A1.21,1.21,0,0,0,109.35,173.89Z"/><path class="cls-2" d="M116,173a4,4,0,0,1-.13,1,2.6,2.6,0,0,1-.39.88,1.93,1.93,0,0,1-.66.61,1.84,1.84,0,0,1-1,.24,2.18,2.18,0,0,1-.93-.2,1.87,1.87,0,0,1-.71-.57v2.75h-.6v-7.51h.56l0,.74a1.94,1.94,0,0,1,1.64-.84,2,2,0,0,1,1,.23,2.06,2.06,0,0,1,.67.61,2.79,2.79,0,0,1,.38.88,4,4,0,0,1,.13,1Zm-.6-.11a3.63,3.63,0,0,0-.09-.8,2.31,2.31,0,0,0-.29-.72,1.61,1.61,0,0,0-.52-.52,1.46,1.46,0,0,0-.78-.2,1.62,1.62,0,0,0-.49.08,1.42,1.42,0,0,0-.41.2,1.72,1.72,0,0,0-.34.32,1.8,1.8,0,0,0-.25.4v2.69a1.6,1.6,0,0,0,.6.66,1.63,1.63,0,0,0,.9.25,1.48,1.48,0,0,0,.78-.2,1.58,1.58,0,0,0,.51-.52,2.31,2.31,0,0,0,.29-.72,3.72,3.72,0,0,0,.09-.81Z"/><path class="cls-2" d="M121.65,175.69a2,2,0,0,1-.09-.37c0-.14,0-.28,0-.42a2,2,0,0,1-.36.36,2,2,0,0,1-.45.27,2.66,2.66,0,0,1-.52.19,2.8,2.8,0,0,1-.59.07,2.23,2.23,0,0,1-.7-.11,2.14,2.14,0,0,1-.58-.31,1.51,1.51,0,0,1-.38-.49,1.45,1.45,0,0,1-.13-.63,1.41,1.41,0,0,1,.2-.79,1.5,1.5,0,0,1,.56-.53,2.43,2.43,0,0,1,.81-.3,5.06,5.06,0,0,1,1-.1h1.17v-.61a1.13,1.13,0,0,0-.12-.54,1.1,1.1,0,0,0-.31-.39,1.28,1.28,0,0,0-.48-.24,2.21,2.21,0,0,0-.59-.08,2,2,0,0,0-.55.07,1.7,1.7,0,0,0-.47.22,1.33,1.33,0,0,0-.33.34.91.91,0,0,0-.13.46h-.6a1.4,1.4,0,0,1,.18-.64,1.64,1.64,0,0,1,.45-.5,2,2,0,0,1,.67-.34,2.64,2.64,0,0,1,.81-.12,3.1,3.1,0,0,1,.81.11,2.09,2.09,0,0,1,.65.33,1.53,1.53,0,0,1,.44.56,1.68,1.68,0,0,1,.17.77v2.62a3.41,3.41,0,0,0,0,.55,4.54,4.54,0,0,0,.12.53v.06Zm-2-.43a2.35,2.35,0,0,0,.6-.08,2.11,2.11,0,0,0,.53-.22,2.38,2.38,0,0,0,.43-.34,1.76,1.76,0,0,0,.29-.44V173h-1.09a3.87,3.87,0,0,0-.77.07,2.4,2.4,0,0,0-.64.19,1.18,1.18,0,0,0-.45.37,1,1,0,0,0-.17.58.92.92,0,0,0,.1.44,1.09,1.09,0,0,0,.27.33,1.39,1.39,0,0,0,.4.21A1.64,1.64,0,0,0,119.67,175.26Z"/><path class="cls-2" d="M126.4,175.28a1.85,1.85,0,0,0,.58-.09,1.57,1.57,0,0,0,.48-.25,1.35,1.35,0,0,0,.35-.4A1.43,1.43,0,0,0,128,174h.57a1.54,1.54,0,0,1-.2.71,1.84,1.84,0,0,1-.47.57,2.11,2.11,0,0,1-.66.36,2.36,2.36,0,0,1-.8.14,2.23,2.23,0,0,1-1-.23,2.18,2.18,0,0,1-.74-.6,2.8,2.8,0,0,1-.44-.86,3.5,3.5,0,0,1-.15-1v-.21a3.5,3.5,0,0,1,.15-1,2.8,2.8,0,0,1,.44-.86,2.18,2.18,0,0,1,.74-.6,2.4,2.4,0,0,1,1.86-.08,2,2,0,0,1,1.12,1,1.94,1.94,0,0,1,.18.77H128a1.49,1.49,0,0,0-.14-.56,1.54,1.54,0,0,0-.33-.45,1.44,1.44,0,0,0-.49-.3,1.64,1.64,0,0,0-.6-.11,1.73,1.73,0,0,0-.81.19,1.65,1.65,0,0,0-.54.51,2.23,2.23,0,0,0-.31.7,3.58,3.58,0,0,0-.1.8v.21a3.74,3.74,0,0,0,.1.81,2.23,2.23,0,0,0,.31.7,1.53,1.53,0,0,0,1.35.69Z"/><path class="cls-2" d="M132.8,175.79a2.5,2.5,0,0,1-1-.21,2.32,2.32,0,0,1-.8-.58,2.76,2.76,0,0,1-.52-.84,2.94,2.94,0,0,1-.18-1v-.22a3,3,0,0,1,.19-1.08A3.12,3.12,0,0,1,131,171a2.41,2.41,0,0,1,.77-.58,2,2,0,0,1,.95-.22,2.26,2.26,0,0,1,1,.2,2,2,0,0,1,.69.53,2.44,2.44,0,0,1,.44.79,3.34,3.34,0,0,1,.15,1V173h-4.06v.12a2.42,2.42,0,0,0,.14.81,2.36,2.36,0,0,0,.4.69,1.92,1.92,0,0,0,.62.47,1.74,1.74,0,0,0,.8.18,2.27,2.27,0,0,0,.91-.18,2,2,0,0,0,.69-.56l.38.29a2.19,2.19,0,0,1-.36.39,1.83,1.83,0,0,1-.46.3,3,3,0,0,1-.55.2A3.22,3.22,0,0,1,132.8,175.79Zm-.11-5.12a1.6,1.6,0,0,0-.67.14,1.5,1.5,0,0,0-.54.39,2.1,2.1,0,0,0-.38.57,2.93,2.93,0,0,0-.21.73h3.44v-.06a2.15,2.15,0,0,0-.13-.66,1.64,1.64,0,0,0-.32-.56,1.57,1.57,0,0,0-.51-.4A1.48,1.48,0,0,0,132.69,170.67Z"/><path class="cls-2" d="M143.7,168.39l1.46,4.13,1.57-4.13h.79v7.3h-.59v-3.24l0-3.26-1.62,4.3H145l-1.5-4.23,0,3.19v3.24h-.59v-7.3Z"/><path class="cls-2" d="M149,172.89a3.29,3.29,0,0,1,.17-1,2.8,2.8,0,0,1,.47-.87,2.22,2.22,0,0,1,1.77-.82,2.39,2.39,0,0,1,1,.22,2.25,2.25,0,0,1,.76.6,2.63,2.63,0,0,1,.48.87,3.29,3.29,0,0,1,.17,1v.17a3.3,3.3,0,0,1-.17,1.05,2.8,2.8,0,0,1-.47.87,2.32,2.32,0,0,1-.76.59,2.47,2.47,0,0,1-2,0,2.32,2.32,0,0,1-.76-.59,2.8,2.8,0,0,1-.47-.87,3.3,3.3,0,0,1-.17-1.05Zm.6.17a2.87,2.87,0,0,0,.12.83,2.24,2.24,0,0,0,.35.71,1.72,1.72,0,0,0,.57.5,1.63,1.63,0,0,0,.78.18,1.61,1.61,0,0,0,.78-.18,1.72,1.72,0,0,0,.57-.5,2.24,2.24,0,0,0,.35-.71,2.87,2.87,0,0,0,.12-.83v-.17a2.81,2.81,0,0,0-.12-.82,2.24,2.24,0,0,0-.35-.71,1.86,1.86,0,0,0-.58-.5,1.61,1.61,0,0,0-.78-.19,1.67,1.67,0,0,0-.78.19,1.79,1.79,0,0,0-.56.5,2.05,2.05,0,0,0-.35.71,2.81,2.81,0,0,0-.12.82Z"/><path class="cls-2" d="M156.17,170.26l.05,1a2.19,2.19,0,0,1,.76-.81,2.09,2.09,0,0,1,1.08-.31,1.73,1.73,0,0,1,1.37.54,2.22,2.22,0,0,1,.47,1.51v3.48h-.6v-3.47a1.74,1.74,0,0,0-.34-1.14,1.27,1.27,0,0,0-1-.4,1.74,1.74,0,0,0-.56.1,1.87,1.87,0,0,0-.48.26,2.2,2.2,0,0,0-.66.88v3.77h-.6v-5.43Z"/><path class="cls-2" d="M161.59,172.89a3.59,3.59,0,0,1,.17-1,2.63,2.63,0,0,1,.48-.87,2.31,2.31,0,0,1,.75-.6,2.47,2.47,0,0,1,2,0,2.35,2.35,0,0,1,.76.6,2.63,2.63,0,0,1,.48.87,3.59,3.59,0,0,1,.17,1v.17a3.61,3.61,0,0,1-.17,1.05,2.63,2.63,0,0,1-.48.87,2.29,2.29,0,0,1-.75.59,2.47,2.47,0,0,1-2,0,2.32,2.32,0,0,1-.76-.59,2.63,2.63,0,0,1-.48-.87,3.61,3.61,0,0,1-.17-1.05Zm.61.17a2.87,2.87,0,0,0,.12.83,2.05,2.05,0,0,0,.35.71,1.72,1.72,0,0,0,.57.5,1.61,1.61,0,0,0,.78.18,1.66,1.66,0,0,0,.78-.18,1.94,1.94,0,0,0,.57-.5,2.23,2.23,0,0,0,.34-.71,2.87,2.87,0,0,0,.12-.83v-.17a2.81,2.81,0,0,0-.12-.82,2.05,2.05,0,0,0-.35-.71,1.72,1.72,0,0,0-.57-.5,1.7,1.7,0,0,0-1.56,0,1.82,1.82,0,0,0-.57.5,2.23,2.23,0,0,0-.34.71,2.81,2.81,0,0,0-.12.82Z"/><path class="cls-2" d="M174.48,175.69v-7.3h2a3.08,3.08,0,0,1,.86.12,2.33,2.33,0,0,1,.75.34,1.85,1.85,0,0,1,.52.59,1.68,1.68,0,0,1,.19.86,1.64,1.64,0,0,1-.09.56,1.76,1.76,0,0,1-.26.44,1.7,1.7,0,0,1-.38.33,2.16,2.16,0,0,1-.48.24,2.27,2.27,0,0,1,.58.23,1.78,1.78,0,0,1,.47.39,1.67,1.67,0,0,1,.42,1.14,2,2,0,0,1-.18.87,2.09,2.09,0,0,1-.5.64,2.35,2.35,0,0,1-.73.4,3.17,3.17,0,0,1-.87.15Zm.6-4h1.47a2.1,2.1,0,0,0,.61-.09,1.67,1.67,0,0,0,.52-.25,1.39,1.39,0,0,0,.37-.43,1.28,1.28,0,0,0,.14-.61,1.16,1.16,0,0,0-.53-1,1.61,1.61,0,0,0-.55-.24,3.2,3.2,0,0,0-.62-.09h-1.41Zm0,.52v3h1.71a2.2,2.2,0,0,0,.63-.12,1.62,1.62,0,0,0,.53-.3,1.51,1.51,0,0,0,.36-.47,1.47,1.47,0,0,0,.13-.64,1.33,1.33,0,0,0-.13-.61,1.31,1.31,0,0,0-.35-.46,1.58,1.58,0,0,0-.51-.28,1.84,1.84,0,0,0-.62-.11Z"/><path class="cls-2" d="M180.44,172.89a3.59,3.59,0,0,1,.17-1,2.82,2.82,0,0,1,.48-.87,2.25,2.25,0,0,1,.76-.6,2.31,2.31,0,0,1,1-.22,2.39,2.39,0,0,1,1,.22,2.35,2.35,0,0,1,.76.6,2.63,2.63,0,0,1,.48.87,3.59,3.59,0,0,1,.17,1v.17a3.61,3.61,0,0,1-.17,1.05,2.8,2.8,0,0,1-.47.87,2.32,2.32,0,0,1-.76.59,2.47,2.47,0,0,1-2,0,2.32,2.32,0,0,1-.76-.59,2.82,2.82,0,0,1-.48-.87,3.61,3.61,0,0,1-.17-1.05Zm.61.17a2.87,2.87,0,0,0,.12.83,2.05,2.05,0,0,0,.35.71,1.72,1.72,0,0,0,.57.5,1.61,1.61,0,0,0,.78.18,1.66,1.66,0,0,0,.78-.18,1.82,1.82,0,0,0,.57-.5,2.23,2.23,0,0,0,.34-.71,2.57,2.57,0,0,0,.13-.83v-.17a2.51,2.51,0,0,0-.13-.82,2.05,2.05,0,0,0-.35-.71,1.72,1.72,0,0,0-.57-.5,1.64,1.64,0,0,0-.78-.19,1.67,1.67,0,0,0-.78.19,1.94,1.94,0,0,0-.57.5,2.23,2.23,0,0,0-.34.71,2.81,2.81,0,0,0-.12.82Z"/><path class="cls-2" d="M187.18,168h2.53v7.17h1.83v.53h-4.36v-.53h1.92v-6.64h-1.92Z"/><path class="cls-2" d="M193.14,172.92a4,4,0,0,1,.14-1,2.83,2.83,0,0,1,.4-.88,2.06,2.06,0,0,1,.67-.61,1.94,1.94,0,0,1,1-.23,1.87,1.87,0,0,1,1.61.84v-3h.6v7.7H197l0-.71a1.92,1.92,0,0,1-.7.6,2.05,2.05,0,0,1-.93.21,1.8,1.8,0,0,1-.94-.24,2.06,2.06,0,0,1-.67-.61,2.83,2.83,0,0,1-.4-.88,4,4,0,0,1-.14-1Zm.61.11a3.72,3.72,0,0,0,.09.81,2.25,2.25,0,0,0,.28.72,1.55,1.55,0,0,0,.51.51,1.45,1.45,0,0,0,.77.2,2,2,0,0,0,.49-.07,1.62,1.62,0,0,0,.76-.48,1.66,1.66,0,0,0,.26-.39V171.7a1.87,1.87,0,0,0-.25-.41,1.72,1.72,0,0,0-.34-.32,1.38,1.38,0,0,0-.42-.21,1.53,1.53,0,0,0-.49-.08,1.45,1.45,0,0,0-.77.2,1.61,1.61,0,0,0-.52.52,2.08,2.08,0,0,0-.28.72,3.63,3.63,0,0,0-.09.8Z"/></svg>